%TF.GenerationSoftware,KiCad,Pcbnew,7.0.2*%
%TF.CreationDate,2025-07-06T11:08:55-05:00*%
%TF.ProjectId,MagicBook,4d616769-6342-46f6-9f6b-2e6b69636164,rev?*%
%TF.SameCoordinates,Original*%
%TF.FileFunction,Paste,Top*%
%TF.FilePolarity,Positive*%
%FSLAX46Y46*%
G04 Gerber Fmt 4.6, Leading zero omitted, Abs format (unit mm)*
G04 Created by KiCad (PCBNEW 7.0.2) date 2025-07-06 11:08:55*
%MOMM*%
%LPD*%
G01*
G04 APERTURE LIST*
G04 Aperture macros list*
%AMRoundRect*
0 Rectangle with rounded corners*
0 $1 Rounding radius*
0 $2 $3 $4 $5 $6 $7 $8 $9 X,Y pos of 4 corners*
0 Add a 4 corners polygon primitive as box body*
4,1,4,$2,$3,$4,$5,$6,$7,$8,$9,$2,$3,0*
0 Add four circle primitives for the rounded corners*
1,1,$1+$1,$2,$3*
1,1,$1+$1,$4,$5*
1,1,$1+$1,$6,$7*
1,1,$1+$1,$8,$9*
0 Add four rect primitives between the rounded corners*
20,1,$1+$1,$2,$3,$4,$5,0*
20,1,$1+$1,$4,$5,$6,$7,0*
20,1,$1+$1,$6,$7,$8,$9,0*
20,1,$1+$1,$8,$9,$2,$3,0*%
G04 Aperture macros list end*
%ADD10RoundRect,0.237500X-0.237500X0.250000X-0.237500X-0.250000X0.237500X-0.250000X0.237500X0.250000X0*%
%ADD11RoundRect,0.237500X0.237500X-0.250000X0.237500X0.250000X-0.237500X0.250000X-0.237500X-0.250000X0*%
%ADD12RoundRect,0.237500X-0.250000X-0.237500X0.250000X-0.237500X0.250000X0.237500X-0.250000X0.237500X0*%
G04 APERTURE END LIST*
D10*
%TO.C,R20*%
X228346000Y-70311000D03*
X228346000Y-72136000D03*
%TD*%
D11*
%TO.C,R9*%
X52832000Y-154178000D03*
X52832000Y-152353000D03*
%TD*%
D12*
%TO.C,R22*%
X196953500Y-60198000D03*
X198778500Y-60198000D03*
%TD*%
D11*
%TO.C,R10*%
X53086000Y-112522000D03*
X53086000Y-110697000D03*
%TD*%
D12*
%TO.C,R6*%
X91035500Y-58420000D03*
X92860500Y-58420000D03*
%TD*%
D11*
%TO.C,R1*%
X82550000Y-34036000D03*
X82550000Y-32211000D03*
%TD*%
%TO.C,R26*%
X175260000Y-112268000D03*
X175260000Y-110443000D03*
%TD*%
%TO.C,R25*%
X188468000Y-112823000D03*
X188468000Y-110998000D03*
%TD*%
D10*
%TO.C,R4*%
X119380000Y-110443000D03*
X119380000Y-112268000D03*
%TD*%
D12*
%TO.C,R12*%
X91035500Y-44196000D03*
X92860500Y-44196000D03*
%TD*%
D10*
%TO.C,R16*%
X237490000Y-152353000D03*
X237490000Y-154178000D03*
%TD*%
D11*
%TO.C,R15*%
X170180000Y-33782000D03*
X170180000Y-31957000D03*
%TD*%
D10*
%TO.C,R17*%
X242062000Y-110443000D03*
X242062000Y-112268000D03*
%TD*%
D11*
%TO.C,R11*%
X61976000Y-72032500D03*
X61976000Y-70207500D03*
%TD*%
D10*
%TO.C,R14*%
X107188000Y-110697000D03*
X107188000Y-112522000D03*
%TD*%
%TO.C,R13*%
X107188000Y-70057000D03*
X107188000Y-71882000D03*
%TD*%
D11*
%TO.C,R23*%
X188468000Y-72540500D03*
X188468000Y-70715500D03*
%TD*%
D10*
%TO.C,R18*%
X228346000Y-110697000D03*
X228346000Y-112522000D03*
%TD*%
%TO.C,R2*%
X70104000Y-32211000D03*
X70104000Y-34036000D03*
%TD*%
D11*
%TO.C,R24*%
X175260000Y-72136000D03*
X175260000Y-70311000D03*
%TD*%
D10*
%TO.C,R3*%
X115824000Y-152353000D03*
X115824000Y-154178000D03*
%TD*%
%TO.C,R5*%
X119530500Y-70311000D03*
X119530500Y-72136000D03*
%TD*%
D11*
%TO.C,R7*%
X65786000Y-72136000D03*
X65786000Y-70311000D03*
%TD*%
D12*
%TO.C,R21*%
X196850000Y-55880000D03*
X198675000Y-55880000D03*
%TD*%
D11*
%TO.C,R27*%
X171450000Y-154178000D03*
X171450000Y-152353000D03*
%TD*%
%TO.C,R8*%
X65786000Y-112418500D03*
X65786000Y-110593500D03*
%TD*%
D10*
%TO.C,R19*%
X242062000Y-70311000D03*
X242062000Y-72136000D03*
%TD*%
D11*
%TO.C,R28*%
X189992000Y-154178000D03*
X189992000Y-152353000D03*
%TD*%
M02*
