%TF.GenerationSoftware,KiCad,Pcbnew,7.0.2*%
%TF.CreationDate,2025-07-06T11:08:55-05:00*%
%TF.ProjectId,MagicBook,4d616769-6342-46f6-9f6b-2e6b69636164,rev?*%
%TF.SameCoordinates,Original*%
%TF.FileFunction,Legend,Top*%
%TF.FilePolarity,Positive*%
%FSLAX46Y46*%
G04 Gerber Fmt 4.6, Leading zero omitted, Abs format (unit mm)*
G04 Created by KiCad (PCBNEW 7.0.2) date 2025-07-06 11:08:55*
%MOMM*%
%LPD*%
G01*
G04 APERTURE LIST*
%ADD10C,0.300000*%
%ADD11C,0.150000*%
%ADD12C,0.120000*%
G04 APERTURE END LIST*
D10*
X99304857Y-130842000D02*
X101304857Y-130842000D01*
X98162000Y-131556285D02*
X100304857Y-132270571D01*
X100304857Y-132270571D02*
X100304857Y-130413428D01*
X149794857Y-132921428D02*
X149794857Y-130921428D01*
X149794857Y-130921428D02*
X152794857Y-132207142D01*
X205880857Y-132588285D02*
X205880857Y-134302571D01*
X205880857Y-133445428D02*
X202880857Y-133445428D01*
X202880857Y-133445428D02*
X203309428Y-133731142D01*
X203309428Y-133731142D02*
X203595142Y-134016857D01*
X203595142Y-134016857D02*
X203738000Y-134302571D01*
X202880857Y-130731142D02*
X202880857Y-130445428D01*
X202880857Y-130445428D02*
X203023714Y-130159714D01*
X203023714Y-130159714D02*
X203166571Y-130016857D01*
X203166571Y-130016857D02*
X203452285Y-129873999D01*
X203452285Y-129873999D02*
X204023714Y-129731142D01*
X204023714Y-129731142D02*
X204738000Y-129731142D01*
X204738000Y-129731142D02*
X205309428Y-129873999D01*
X205309428Y-129873999D02*
X205595142Y-130016857D01*
X205595142Y-130016857D02*
X205738000Y-130159714D01*
X205738000Y-130159714D02*
X205880857Y-130445428D01*
X205880857Y-130445428D02*
X205880857Y-130731142D01*
X205880857Y-130731142D02*
X205738000Y-131016857D01*
X205738000Y-131016857D02*
X205595142Y-131159714D01*
X205595142Y-131159714D02*
X205309428Y-131302571D01*
X205309428Y-131302571D02*
X204738000Y-131445428D01*
X204738000Y-131445428D02*
X204023714Y-131445428D01*
X204023714Y-131445428D02*
X203452285Y-131302571D01*
X203452285Y-131302571D02*
X203166571Y-131159714D01*
X203166571Y-131159714D02*
X203023714Y-131016857D01*
X203023714Y-131016857D02*
X202880857Y-130731142D01*
X153302857Y-50704857D02*
X153302857Y-50133428D01*
X153302857Y-50133428D02*
X153160000Y-49847714D01*
X153160000Y-49847714D02*
X153017142Y-49704857D01*
X153017142Y-49704857D02*
X152588571Y-49419142D01*
X152588571Y-49419142D02*
X152017142Y-49276285D01*
X152017142Y-49276285D02*
X150874285Y-49276285D01*
X150874285Y-49276285D02*
X150588571Y-49419142D01*
X150588571Y-49419142D02*
X150445714Y-49562000D01*
X150445714Y-49562000D02*
X150302857Y-49847714D01*
X150302857Y-49847714D02*
X150302857Y-50419142D01*
X150302857Y-50419142D02*
X150445714Y-50704857D01*
X150445714Y-50704857D02*
X150588571Y-50847714D01*
X150588571Y-50847714D02*
X150874285Y-50990571D01*
X150874285Y-50990571D02*
X151588571Y-50990571D01*
X151588571Y-50990571D02*
X151874285Y-50847714D01*
X151874285Y-50847714D02*
X152017142Y-50704857D01*
X152017142Y-50704857D02*
X152160000Y-50419142D01*
X152160000Y-50419142D02*
X152160000Y-49847714D01*
X152160000Y-49847714D02*
X152017142Y-49562000D01*
X152017142Y-49562000D02*
X151874285Y-49419142D01*
X151874285Y-49419142D02*
X151588571Y-49276285D01*
X98546857Y-91329142D02*
X98546857Y-92757714D01*
X98546857Y-92757714D02*
X99975428Y-92900571D01*
X99975428Y-92900571D02*
X99832571Y-92757714D01*
X99832571Y-92757714D02*
X99689714Y-92472000D01*
X99689714Y-92472000D02*
X99689714Y-91757714D01*
X99689714Y-91757714D02*
X99832571Y-91472000D01*
X99832571Y-91472000D02*
X99975428Y-91329142D01*
X99975428Y-91329142D02*
X100261142Y-91186285D01*
X100261142Y-91186285D02*
X100975428Y-91186285D01*
X100975428Y-91186285D02*
X101261142Y-91329142D01*
X101261142Y-91329142D02*
X101404000Y-91472000D01*
X101404000Y-91472000D02*
X101546857Y-91757714D01*
X101546857Y-91757714D02*
X101546857Y-92472000D01*
X101546857Y-92472000D02*
X101404000Y-92757714D01*
X101404000Y-92757714D02*
X101261142Y-92900571D01*
X151334571Y-93091142D02*
X151191714Y-93376857D01*
X151191714Y-93376857D02*
X151048857Y-93519714D01*
X151048857Y-93519714D02*
X150763142Y-93662571D01*
X150763142Y-93662571D02*
X150620285Y-93662571D01*
X150620285Y-93662571D02*
X150334571Y-93519714D01*
X150334571Y-93519714D02*
X150191714Y-93376857D01*
X150191714Y-93376857D02*
X150048857Y-93091142D01*
X150048857Y-93091142D02*
X150048857Y-92519714D01*
X150048857Y-92519714D02*
X150191714Y-92234000D01*
X150191714Y-92234000D02*
X150334571Y-92091142D01*
X150334571Y-92091142D02*
X150620285Y-91948285D01*
X150620285Y-91948285D02*
X150763142Y-91948285D01*
X150763142Y-91948285D02*
X151048857Y-92091142D01*
X151048857Y-92091142D02*
X151191714Y-92234000D01*
X151191714Y-92234000D02*
X151334571Y-92519714D01*
X151334571Y-92519714D02*
X151334571Y-93091142D01*
X151334571Y-93091142D02*
X151477428Y-93376857D01*
X151477428Y-93376857D02*
X151620285Y-93519714D01*
X151620285Y-93519714D02*
X151906000Y-93662571D01*
X151906000Y-93662571D02*
X152477428Y-93662571D01*
X152477428Y-93662571D02*
X152763142Y-93519714D01*
X152763142Y-93519714D02*
X152906000Y-93376857D01*
X152906000Y-93376857D02*
X153048857Y-93091142D01*
X153048857Y-93091142D02*
X153048857Y-92519714D01*
X153048857Y-92519714D02*
X152906000Y-92234000D01*
X152906000Y-92234000D02*
X152763142Y-92091142D01*
X152763142Y-92091142D02*
X152477428Y-91948285D01*
X152477428Y-91948285D02*
X151906000Y-91948285D01*
X151906000Y-91948285D02*
X151620285Y-92091142D01*
X151620285Y-92091142D02*
X151477428Y-92234000D01*
X151477428Y-92234000D02*
X151334571Y-92519714D01*
X47892857Y-129794285D02*
X47892857Y-131508571D01*
X47892857Y-130651428D02*
X44892857Y-130651428D01*
X44892857Y-130651428D02*
X45321428Y-130937142D01*
X45321428Y-130937142D02*
X45607142Y-131222857D01*
X45607142Y-131222857D02*
X45750000Y-131508571D01*
X205880857Y-50800285D02*
X205880857Y-52514571D01*
X205880857Y-51657428D02*
X202880857Y-51657428D01*
X202880857Y-51657428D02*
X203309428Y-51943142D01*
X203309428Y-51943142D02*
X203595142Y-52228857D01*
X203595142Y-52228857D02*
X203738000Y-52514571D01*
X203166571Y-49657428D02*
X203023714Y-49514571D01*
X203023714Y-49514571D02*
X202880857Y-49228857D01*
X202880857Y-49228857D02*
X202880857Y-48514571D01*
X202880857Y-48514571D02*
X203023714Y-48228857D01*
X203023714Y-48228857D02*
X203166571Y-48085999D01*
X203166571Y-48085999D02*
X203452285Y-47943142D01*
X203452285Y-47943142D02*
X203738000Y-47943142D01*
X203738000Y-47943142D02*
X204166571Y-48085999D01*
X204166571Y-48085999D02*
X205880857Y-49800285D01*
X205880857Y-49800285D02*
X205880857Y-47943142D01*
X205880857Y-92456285D02*
X205880857Y-94170571D01*
X205880857Y-93313428D02*
X202880857Y-93313428D01*
X202880857Y-93313428D02*
X203309428Y-93599142D01*
X203309428Y-93599142D02*
X203595142Y-93884857D01*
X203595142Y-93884857D02*
X203738000Y-94170571D01*
X205880857Y-89599142D02*
X205880857Y-91313428D01*
X205880857Y-90456285D02*
X202880857Y-90456285D01*
X202880857Y-90456285D02*
X203309428Y-90741999D01*
X203309428Y-90741999D02*
X203595142Y-91027714D01*
X203595142Y-91027714D02*
X203738000Y-91313428D01*
X44892857Y-51133428D02*
X44892857Y-49276285D01*
X44892857Y-49276285D02*
X46035714Y-50276285D01*
X46035714Y-50276285D02*
X46035714Y-49847714D01*
X46035714Y-49847714D02*
X46178571Y-49562000D01*
X46178571Y-49562000D02*
X46321428Y-49419142D01*
X46321428Y-49419142D02*
X46607142Y-49276285D01*
X46607142Y-49276285D02*
X47321428Y-49276285D01*
X47321428Y-49276285D02*
X47607142Y-49419142D01*
X47607142Y-49419142D02*
X47750000Y-49562000D01*
X47750000Y-49562000D02*
X47892857Y-49847714D01*
X47892857Y-49847714D02*
X47892857Y-50704857D01*
X47892857Y-50704857D02*
X47750000Y-50990571D01*
X47750000Y-50990571D02*
X47607142Y-51133428D01*
X98994857Y-49558000D02*
X98994857Y-50129428D01*
X98994857Y-50129428D02*
X99137714Y-50415142D01*
X99137714Y-50415142D02*
X99280571Y-50558000D01*
X99280571Y-50558000D02*
X99709142Y-50843714D01*
X99709142Y-50843714D02*
X100280571Y-50986571D01*
X100280571Y-50986571D02*
X101423428Y-50986571D01*
X101423428Y-50986571D02*
X101709142Y-50843714D01*
X101709142Y-50843714D02*
X101852000Y-50700857D01*
X101852000Y-50700857D02*
X101994857Y-50415142D01*
X101994857Y-50415142D02*
X101994857Y-49843714D01*
X101994857Y-49843714D02*
X101852000Y-49558000D01*
X101852000Y-49558000D02*
X101709142Y-49415142D01*
X101709142Y-49415142D02*
X101423428Y-49272285D01*
X101423428Y-49272285D02*
X100709142Y-49272285D01*
X100709142Y-49272285D02*
X100423428Y-49415142D01*
X100423428Y-49415142D02*
X100280571Y-49558000D01*
X100280571Y-49558000D02*
X100137714Y-49843714D01*
X100137714Y-49843714D02*
X100137714Y-50415142D01*
X100137714Y-50415142D02*
X100280571Y-50700857D01*
X100280571Y-50700857D02*
X100423428Y-50843714D01*
X100423428Y-50843714D02*
X100709142Y-50986571D01*
X45178571Y-92746571D02*
X45035714Y-92603714D01*
X45035714Y-92603714D02*
X44892857Y-92318000D01*
X44892857Y-92318000D02*
X44892857Y-91603714D01*
X44892857Y-91603714D02*
X45035714Y-91318000D01*
X45035714Y-91318000D02*
X45178571Y-91175142D01*
X45178571Y-91175142D02*
X45464285Y-91032285D01*
X45464285Y-91032285D02*
X45750000Y-91032285D01*
X45750000Y-91032285D02*
X46178571Y-91175142D01*
X46178571Y-91175142D02*
X47892857Y-92889428D01*
X47892857Y-92889428D02*
X47892857Y-91032285D01*
D11*
%TO.C,SW19*%
X160539000Y-51899523D02*
X160586619Y-51756666D01*
X160586619Y-51756666D02*
X160586619Y-51518571D01*
X160586619Y-51518571D02*
X160539000Y-51423333D01*
X160539000Y-51423333D02*
X160491380Y-51375714D01*
X160491380Y-51375714D02*
X160396142Y-51328095D01*
X160396142Y-51328095D02*
X160300904Y-51328095D01*
X160300904Y-51328095D02*
X160205666Y-51375714D01*
X160205666Y-51375714D02*
X160158047Y-51423333D01*
X160158047Y-51423333D02*
X160110428Y-51518571D01*
X160110428Y-51518571D02*
X160062809Y-51709047D01*
X160062809Y-51709047D02*
X160015190Y-51804285D01*
X160015190Y-51804285D02*
X159967571Y-51851904D01*
X159967571Y-51851904D02*
X159872333Y-51899523D01*
X159872333Y-51899523D02*
X159777095Y-51899523D01*
X159777095Y-51899523D02*
X159681857Y-51851904D01*
X159681857Y-51851904D02*
X159634238Y-51804285D01*
X159634238Y-51804285D02*
X159586619Y-51709047D01*
X159586619Y-51709047D02*
X159586619Y-51470952D01*
X159586619Y-51470952D02*
X159634238Y-51328095D01*
X159586619Y-50994761D02*
X160586619Y-50756666D01*
X160586619Y-50756666D02*
X159872333Y-50566190D01*
X159872333Y-50566190D02*
X160586619Y-50375714D01*
X160586619Y-50375714D02*
X159586619Y-50137619D01*
X160586619Y-49232857D02*
X160586619Y-49804285D01*
X160586619Y-49518571D02*
X159586619Y-49518571D01*
X159586619Y-49518571D02*
X159729476Y-49613809D01*
X159729476Y-49613809D02*
X159824714Y-49709047D01*
X159824714Y-49709047D02*
X159872333Y-49804285D01*
X160586619Y-48756666D02*
X160586619Y-48566190D01*
X160586619Y-48566190D02*
X160539000Y-48470952D01*
X160539000Y-48470952D02*
X160491380Y-48423333D01*
X160491380Y-48423333D02*
X160348523Y-48328095D01*
X160348523Y-48328095D02*
X160158047Y-48280476D01*
X160158047Y-48280476D02*
X159777095Y-48280476D01*
X159777095Y-48280476D02*
X159681857Y-48328095D01*
X159681857Y-48328095D02*
X159634238Y-48375714D01*
X159634238Y-48375714D02*
X159586619Y-48470952D01*
X159586619Y-48470952D02*
X159586619Y-48661428D01*
X159586619Y-48661428D02*
X159634238Y-48756666D01*
X159634238Y-48756666D02*
X159681857Y-48804285D01*
X159681857Y-48804285D02*
X159777095Y-48851904D01*
X159777095Y-48851904D02*
X160015190Y-48851904D01*
X160015190Y-48851904D02*
X160110428Y-48804285D01*
X160110428Y-48804285D02*
X160158047Y-48756666D01*
X160158047Y-48756666D02*
X160205666Y-48661428D01*
X160205666Y-48661428D02*
X160205666Y-48470952D01*
X160205666Y-48470952D02*
X160158047Y-48375714D01*
X160158047Y-48375714D02*
X160110428Y-48328095D01*
X160110428Y-48328095D02*
X160015190Y-48280476D01*
%TO.C,R20*%
X230238619Y-71866357D02*
X229762428Y-72199690D01*
X230238619Y-72437785D02*
X229238619Y-72437785D01*
X229238619Y-72437785D02*
X229238619Y-72056833D01*
X229238619Y-72056833D02*
X229286238Y-71961595D01*
X229286238Y-71961595D02*
X229333857Y-71913976D01*
X229333857Y-71913976D02*
X229429095Y-71866357D01*
X229429095Y-71866357D02*
X229571952Y-71866357D01*
X229571952Y-71866357D02*
X229667190Y-71913976D01*
X229667190Y-71913976D02*
X229714809Y-71961595D01*
X229714809Y-71961595D02*
X229762428Y-72056833D01*
X229762428Y-72056833D02*
X229762428Y-72437785D01*
X229333857Y-71485404D02*
X229286238Y-71437785D01*
X229286238Y-71437785D02*
X229238619Y-71342547D01*
X229238619Y-71342547D02*
X229238619Y-71104452D01*
X229238619Y-71104452D02*
X229286238Y-71009214D01*
X229286238Y-71009214D02*
X229333857Y-70961595D01*
X229333857Y-70961595D02*
X229429095Y-70913976D01*
X229429095Y-70913976D02*
X229524333Y-70913976D01*
X229524333Y-70913976D02*
X229667190Y-70961595D01*
X229667190Y-70961595D02*
X230238619Y-71533023D01*
X230238619Y-71533023D02*
X230238619Y-70913976D01*
X229238619Y-70294928D02*
X229238619Y-70199690D01*
X229238619Y-70199690D02*
X229286238Y-70104452D01*
X229286238Y-70104452D02*
X229333857Y-70056833D01*
X229333857Y-70056833D02*
X229429095Y-70009214D01*
X229429095Y-70009214D02*
X229619571Y-69961595D01*
X229619571Y-69961595D02*
X229857666Y-69961595D01*
X229857666Y-69961595D02*
X230048142Y-70009214D01*
X230048142Y-70009214D02*
X230143380Y-70056833D01*
X230143380Y-70056833D02*
X230191000Y-70104452D01*
X230191000Y-70104452D02*
X230238619Y-70199690D01*
X230238619Y-70199690D02*
X230238619Y-70294928D01*
X230238619Y-70294928D02*
X230191000Y-70390166D01*
X230191000Y-70390166D02*
X230143380Y-70437785D01*
X230143380Y-70437785D02*
X230048142Y-70485404D01*
X230048142Y-70485404D02*
X229857666Y-70533023D01*
X229857666Y-70533023D02*
X229619571Y-70533023D01*
X229619571Y-70533023D02*
X229429095Y-70485404D01*
X229429095Y-70485404D02*
X229333857Y-70437785D01*
X229333857Y-70437785D02*
X229286238Y-70390166D01*
X229286238Y-70390166D02*
X229238619Y-70294928D01*
%TO.C,R9*%
X51864619Y-153432166D02*
X51388428Y-153765499D01*
X51864619Y-154003594D02*
X50864619Y-154003594D01*
X50864619Y-154003594D02*
X50864619Y-153622642D01*
X50864619Y-153622642D02*
X50912238Y-153527404D01*
X50912238Y-153527404D02*
X50959857Y-153479785D01*
X50959857Y-153479785D02*
X51055095Y-153432166D01*
X51055095Y-153432166D02*
X51197952Y-153432166D01*
X51197952Y-153432166D02*
X51293190Y-153479785D01*
X51293190Y-153479785D02*
X51340809Y-153527404D01*
X51340809Y-153527404D02*
X51388428Y-153622642D01*
X51388428Y-153622642D02*
X51388428Y-154003594D01*
X51864619Y-152955975D02*
X51864619Y-152765499D01*
X51864619Y-152765499D02*
X51817000Y-152670261D01*
X51817000Y-152670261D02*
X51769380Y-152622642D01*
X51769380Y-152622642D02*
X51626523Y-152527404D01*
X51626523Y-152527404D02*
X51436047Y-152479785D01*
X51436047Y-152479785D02*
X51055095Y-152479785D01*
X51055095Y-152479785D02*
X50959857Y-152527404D01*
X50959857Y-152527404D02*
X50912238Y-152575023D01*
X50912238Y-152575023D02*
X50864619Y-152670261D01*
X50864619Y-152670261D02*
X50864619Y-152860737D01*
X50864619Y-152860737D02*
X50912238Y-152955975D01*
X50912238Y-152955975D02*
X50959857Y-153003594D01*
X50959857Y-153003594D02*
X51055095Y-153051213D01*
X51055095Y-153051213D02*
X51293190Y-153051213D01*
X51293190Y-153051213D02*
X51388428Y-153003594D01*
X51388428Y-153003594D02*
X51436047Y-152955975D01*
X51436047Y-152955975D02*
X51483666Y-152860737D01*
X51483666Y-152860737D02*
X51483666Y-152670261D01*
X51483666Y-152670261D02*
X51436047Y-152575023D01*
X51436047Y-152575023D02*
X51388428Y-152527404D01*
X51388428Y-152527404D02*
X51293190Y-152479785D01*
%TO.C,R22*%
X197223142Y-59230619D02*
X196889809Y-58754428D01*
X196651714Y-59230619D02*
X196651714Y-58230619D01*
X196651714Y-58230619D02*
X197032666Y-58230619D01*
X197032666Y-58230619D02*
X197127904Y-58278238D01*
X197127904Y-58278238D02*
X197175523Y-58325857D01*
X197175523Y-58325857D02*
X197223142Y-58421095D01*
X197223142Y-58421095D02*
X197223142Y-58563952D01*
X197223142Y-58563952D02*
X197175523Y-58659190D01*
X197175523Y-58659190D02*
X197127904Y-58706809D01*
X197127904Y-58706809D02*
X197032666Y-58754428D01*
X197032666Y-58754428D02*
X196651714Y-58754428D01*
X197604095Y-58325857D02*
X197651714Y-58278238D01*
X197651714Y-58278238D02*
X197746952Y-58230619D01*
X197746952Y-58230619D02*
X197985047Y-58230619D01*
X197985047Y-58230619D02*
X198080285Y-58278238D01*
X198080285Y-58278238D02*
X198127904Y-58325857D01*
X198127904Y-58325857D02*
X198175523Y-58421095D01*
X198175523Y-58421095D02*
X198175523Y-58516333D01*
X198175523Y-58516333D02*
X198127904Y-58659190D01*
X198127904Y-58659190D02*
X197556476Y-59230619D01*
X197556476Y-59230619D02*
X198175523Y-59230619D01*
X198556476Y-58325857D02*
X198604095Y-58278238D01*
X198604095Y-58278238D02*
X198699333Y-58230619D01*
X198699333Y-58230619D02*
X198937428Y-58230619D01*
X198937428Y-58230619D02*
X199032666Y-58278238D01*
X199032666Y-58278238D02*
X199080285Y-58325857D01*
X199080285Y-58325857D02*
X199127904Y-58421095D01*
X199127904Y-58421095D02*
X199127904Y-58516333D01*
X199127904Y-58516333D02*
X199080285Y-58659190D01*
X199080285Y-58659190D02*
X198508857Y-59230619D01*
X198508857Y-59230619D02*
X199127904Y-59230619D01*
%TO.C,R10*%
X52118619Y-112252357D02*
X51642428Y-112585690D01*
X52118619Y-112823785D02*
X51118619Y-112823785D01*
X51118619Y-112823785D02*
X51118619Y-112442833D01*
X51118619Y-112442833D02*
X51166238Y-112347595D01*
X51166238Y-112347595D02*
X51213857Y-112299976D01*
X51213857Y-112299976D02*
X51309095Y-112252357D01*
X51309095Y-112252357D02*
X51451952Y-112252357D01*
X51451952Y-112252357D02*
X51547190Y-112299976D01*
X51547190Y-112299976D02*
X51594809Y-112347595D01*
X51594809Y-112347595D02*
X51642428Y-112442833D01*
X51642428Y-112442833D02*
X51642428Y-112823785D01*
X52118619Y-111299976D02*
X52118619Y-111871404D01*
X52118619Y-111585690D02*
X51118619Y-111585690D01*
X51118619Y-111585690D02*
X51261476Y-111680928D01*
X51261476Y-111680928D02*
X51356714Y-111776166D01*
X51356714Y-111776166D02*
X51404333Y-111871404D01*
X51118619Y-110680928D02*
X51118619Y-110585690D01*
X51118619Y-110585690D02*
X51166238Y-110490452D01*
X51166238Y-110490452D02*
X51213857Y-110442833D01*
X51213857Y-110442833D02*
X51309095Y-110395214D01*
X51309095Y-110395214D02*
X51499571Y-110347595D01*
X51499571Y-110347595D02*
X51737666Y-110347595D01*
X51737666Y-110347595D02*
X51928142Y-110395214D01*
X51928142Y-110395214D02*
X52023380Y-110442833D01*
X52023380Y-110442833D02*
X52071000Y-110490452D01*
X52071000Y-110490452D02*
X52118619Y-110585690D01*
X52118619Y-110585690D02*
X52118619Y-110680928D01*
X52118619Y-110680928D02*
X52071000Y-110776166D01*
X52071000Y-110776166D02*
X52023380Y-110823785D01*
X52023380Y-110823785D02*
X51928142Y-110871404D01*
X51928142Y-110871404D02*
X51737666Y-110919023D01*
X51737666Y-110919023D02*
X51499571Y-110919023D01*
X51499571Y-110919023D02*
X51309095Y-110871404D01*
X51309095Y-110871404D02*
X51213857Y-110823785D01*
X51213857Y-110823785D02*
X51166238Y-110776166D01*
X51166238Y-110776166D02*
X51118619Y-110680928D01*
%TO.C,R6*%
X91781333Y-57452619D02*
X91448000Y-56976428D01*
X91209905Y-57452619D02*
X91209905Y-56452619D01*
X91209905Y-56452619D02*
X91590857Y-56452619D01*
X91590857Y-56452619D02*
X91686095Y-56500238D01*
X91686095Y-56500238D02*
X91733714Y-56547857D01*
X91733714Y-56547857D02*
X91781333Y-56643095D01*
X91781333Y-56643095D02*
X91781333Y-56785952D01*
X91781333Y-56785952D02*
X91733714Y-56881190D01*
X91733714Y-56881190D02*
X91686095Y-56928809D01*
X91686095Y-56928809D02*
X91590857Y-56976428D01*
X91590857Y-56976428D02*
X91209905Y-56976428D01*
X92638476Y-56452619D02*
X92448000Y-56452619D01*
X92448000Y-56452619D02*
X92352762Y-56500238D01*
X92352762Y-56500238D02*
X92305143Y-56547857D01*
X92305143Y-56547857D02*
X92209905Y-56690714D01*
X92209905Y-56690714D02*
X92162286Y-56881190D01*
X92162286Y-56881190D02*
X92162286Y-57262142D01*
X92162286Y-57262142D02*
X92209905Y-57357380D01*
X92209905Y-57357380D02*
X92257524Y-57405000D01*
X92257524Y-57405000D02*
X92352762Y-57452619D01*
X92352762Y-57452619D02*
X92543238Y-57452619D01*
X92543238Y-57452619D02*
X92638476Y-57405000D01*
X92638476Y-57405000D02*
X92686095Y-57357380D01*
X92686095Y-57357380D02*
X92733714Y-57262142D01*
X92733714Y-57262142D02*
X92733714Y-57024047D01*
X92733714Y-57024047D02*
X92686095Y-56928809D01*
X92686095Y-56928809D02*
X92638476Y-56881190D01*
X92638476Y-56881190D02*
X92543238Y-56833571D01*
X92543238Y-56833571D02*
X92352762Y-56833571D01*
X92352762Y-56833571D02*
X92257524Y-56881190D01*
X92257524Y-56881190D02*
X92209905Y-56928809D01*
X92209905Y-56928809D02*
X92162286Y-57024047D01*
%TO.C,R1*%
X81582619Y-33290166D02*
X81106428Y-33623499D01*
X81582619Y-33861594D02*
X80582619Y-33861594D01*
X80582619Y-33861594D02*
X80582619Y-33480642D01*
X80582619Y-33480642D02*
X80630238Y-33385404D01*
X80630238Y-33385404D02*
X80677857Y-33337785D01*
X80677857Y-33337785D02*
X80773095Y-33290166D01*
X80773095Y-33290166D02*
X80915952Y-33290166D01*
X80915952Y-33290166D02*
X81011190Y-33337785D01*
X81011190Y-33337785D02*
X81058809Y-33385404D01*
X81058809Y-33385404D02*
X81106428Y-33480642D01*
X81106428Y-33480642D02*
X81106428Y-33861594D01*
X81582619Y-32337785D02*
X81582619Y-32909213D01*
X81582619Y-32623499D02*
X80582619Y-32623499D01*
X80582619Y-32623499D02*
X80725476Y-32718737D01*
X80725476Y-32718737D02*
X80820714Y-32813975D01*
X80820714Y-32813975D02*
X80868333Y-32909213D01*
%TO.C,SW15*%
X213879000Y-93809523D02*
X213926619Y-93666666D01*
X213926619Y-93666666D02*
X213926619Y-93428571D01*
X213926619Y-93428571D02*
X213879000Y-93333333D01*
X213879000Y-93333333D02*
X213831380Y-93285714D01*
X213831380Y-93285714D02*
X213736142Y-93238095D01*
X213736142Y-93238095D02*
X213640904Y-93238095D01*
X213640904Y-93238095D02*
X213545666Y-93285714D01*
X213545666Y-93285714D02*
X213498047Y-93333333D01*
X213498047Y-93333333D02*
X213450428Y-93428571D01*
X213450428Y-93428571D02*
X213402809Y-93619047D01*
X213402809Y-93619047D02*
X213355190Y-93714285D01*
X213355190Y-93714285D02*
X213307571Y-93761904D01*
X213307571Y-93761904D02*
X213212333Y-93809523D01*
X213212333Y-93809523D02*
X213117095Y-93809523D01*
X213117095Y-93809523D02*
X213021857Y-93761904D01*
X213021857Y-93761904D02*
X212974238Y-93714285D01*
X212974238Y-93714285D02*
X212926619Y-93619047D01*
X212926619Y-93619047D02*
X212926619Y-93380952D01*
X212926619Y-93380952D02*
X212974238Y-93238095D01*
X212926619Y-92904761D02*
X213926619Y-92666666D01*
X213926619Y-92666666D02*
X213212333Y-92476190D01*
X213212333Y-92476190D02*
X213926619Y-92285714D01*
X213926619Y-92285714D02*
X212926619Y-92047619D01*
X213926619Y-91142857D02*
X213926619Y-91714285D01*
X213926619Y-91428571D02*
X212926619Y-91428571D01*
X212926619Y-91428571D02*
X213069476Y-91523809D01*
X213069476Y-91523809D02*
X213164714Y-91619047D01*
X213164714Y-91619047D02*
X213212333Y-91714285D01*
X212926619Y-90238095D02*
X212926619Y-90714285D01*
X212926619Y-90714285D02*
X213402809Y-90761904D01*
X213402809Y-90761904D02*
X213355190Y-90714285D01*
X213355190Y-90714285D02*
X213307571Y-90619047D01*
X213307571Y-90619047D02*
X213307571Y-90380952D01*
X213307571Y-90380952D02*
X213355190Y-90285714D01*
X213355190Y-90285714D02*
X213402809Y-90238095D01*
X213402809Y-90238095D02*
X213498047Y-90190476D01*
X213498047Y-90190476D02*
X213736142Y-90190476D01*
X213736142Y-90190476D02*
X213831380Y-90238095D01*
X213831380Y-90238095D02*
X213879000Y-90285714D01*
X213879000Y-90285714D02*
X213926619Y-90380952D01*
X213926619Y-90380952D02*
X213926619Y-90619047D01*
X213926619Y-90619047D02*
X213879000Y-90714285D01*
X213879000Y-90714285D02*
X213831380Y-90761904D01*
%TO.C,SW2*%
X126939000Y-132195332D02*
X126986619Y-132052475D01*
X126986619Y-132052475D02*
X126986619Y-131814380D01*
X126986619Y-131814380D02*
X126939000Y-131719142D01*
X126939000Y-131719142D02*
X126891380Y-131671523D01*
X126891380Y-131671523D02*
X126796142Y-131623904D01*
X126796142Y-131623904D02*
X126700904Y-131623904D01*
X126700904Y-131623904D02*
X126605666Y-131671523D01*
X126605666Y-131671523D02*
X126558047Y-131719142D01*
X126558047Y-131719142D02*
X126510428Y-131814380D01*
X126510428Y-131814380D02*
X126462809Y-132004856D01*
X126462809Y-132004856D02*
X126415190Y-132100094D01*
X126415190Y-132100094D02*
X126367571Y-132147713D01*
X126367571Y-132147713D02*
X126272333Y-132195332D01*
X126272333Y-132195332D02*
X126177095Y-132195332D01*
X126177095Y-132195332D02*
X126081857Y-132147713D01*
X126081857Y-132147713D02*
X126034238Y-132100094D01*
X126034238Y-132100094D02*
X125986619Y-132004856D01*
X125986619Y-132004856D02*
X125986619Y-131766761D01*
X125986619Y-131766761D02*
X126034238Y-131623904D01*
X125986619Y-131290570D02*
X126986619Y-131052475D01*
X126986619Y-131052475D02*
X126272333Y-130861999D01*
X126272333Y-130861999D02*
X126986619Y-130671523D01*
X126986619Y-130671523D02*
X125986619Y-130433428D01*
X126081857Y-130100094D02*
X126034238Y-130052475D01*
X126034238Y-130052475D02*
X125986619Y-129957237D01*
X125986619Y-129957237D02*
X125986619Y-129719142D01*
X125986619Y-129719142D02*
X126034238Y-129623904D01*
X126034238Y-129623904D02*
X126081857Y-129576285D01*
X126081857Y-129576285D02*
X126177095Y-129528666D01*
X126177095Y-129528666D02*
X126272333Y-129528666D01*
X126272333Y-129528666D02*
X126415190Y-129576285D01*
X126415190Y-129576285D02*
X126986619Y-130147713D01*
X126986619Y-130147713D02*
X126986619Y-129528666D01*
%TO.C,R26*%
X174292619Y-111998357D02*
X173816428Y-112331690D01*
X174292619Y-112569785D02*
X173292619Y-112569785D01*
X173292619Y-112569785D02*
X173292619Y-112188833D01*
X173292619Y-112188833D02*
X173340238Y-112093595D01*
X173340238Y-112093595D02*
X173387857Y-112045976D01*
X173387857Y-112045976D02*
X173483095Y-111998357D01*
X173483095Y-111998357D02*
X173625952Y-111998357D01*
X173625952Y-111998357D02*
X173721190Y-112045976D01*
X173721190Y-112045976D02*
X173768809Y-112093595D01*
X173768809Y-112093595D02*
X173816428Y-112188833D01*
X173816428Y-112188833D02*
X173816428Y-112569785D01*
X173387857Y-111617404D02*
X173340238Y-111569785D01*
X173340238Y-111569785D02*
X173292619Y-111474547D01*
X173292619Y-111474547D02*
X173292619Y-111236452D01*
X173292619Y-111236452D02*
X173340238Y-111141214D01*
X173340238Y-111141214D02*
X173387857Y-111093595D01*
X173387857Y-111093595D02*
X173483095Y-111045976D01*
X173483095Y-111045976D02*
X173578333Y-111045976D01*
X173578333Y-111045976D02*
X173721190Y-111093595D01*
X173721190Y-111093595D02*
X174292619Y-111665023D01*
X174292619Y-111665023D02*
X174292619Y-111045976D01*
X173292619Y-110188833D02*
X173292619Y-110379309D01*
X173292619Y-110379309D02*
X173340238Y-110474547D01*
X173340238Y-110474547D02*
X173387857Y-110522166D01*
X173387857Y-110522166D02*
X173530714Y-110617404D01*
X173530714Y-110617404D02*
X173721190Y-110665023D01*
X173721190Y-110665023D02*
X174102142Y-110665023D01*
X174102142Y-110665023D02*
X174197380Y-110617404D01*
X174197380Y-110617404D02*
X174245000Y-110569785D01*
X174245000Y-110569785D02*
X174292619Y-110474547D01*
X174292619Y-110474547D02*
X174292619Y-110284071D01*
X174292619Y-110284071D02*
X174245000Y-110188833D01*
X174245000Y-110188833D02*
X174197380Y-110141214D01*
X174197380Y-110141214D02*
X174102142Y-110093595D01*
X174102142Y-110093595D02*
X173864047Y-110093595D01*
X173864047Y-110093595D02*
X173768809Y-110141214D01*
X173768809Y-110141214D02*
X173721190Y-110188833D01*
X173721190Y-110188833D02*
X173673571Y-110284071D01*
X173673571Y-110284071D02*
X173673571Y-110474547D01*
X173673571Y-110474547D02*
X173721190Y-110569785D01*
X173721190Y-110569785D02*
X173768809Y-110617404D01*
X173768809Y-110617404D02*
X173864047Y-110665023D01*
%TO.C,R25*%
X187500619Y-112553357D02*
X187024428Y-112886690D01*
X187500619Y-113124785D02*
X186500619Y-113124785D01*
X186500619Y-113124785D02*
X186500619Y-112743833D01*
X186500619Y-112743833D02*
X186548238Y-112648595D01*
X186548238Y-112648595D02*
X186595857Y-112600976D01*
X186595857Y-112600976D02*
X186691095Y-112553357D01*
X186691095Y-112553357D02*
X186833952Y-112553357D01*
X186833952Y-112553357D02*
X186929190Y-112600976D01*
X186929190Y-112600976D02*
X186976809Y-112648595D01*
X186976809Y-112648595D02*
X187024428Y-112743833D01*
X187024428Y-112743833D02*
X187024428Y-113124785D01*
X186595857Y-112172404D02*
X186548238Y-112124785D01*
X186548238Y-112124785D02*
X186500619Y-112029547D01*
X186500619Y-112029547D02*
X186500619Y-111791452D01*
X186500619Y-111791452D02*
X186548238Y-111696214D01*
X186548238Y-111696214D02*
X186595857Y-111648595D01*
X186595857Y-111648595D02*
X186691095Y-111600976D01*
X186691095Y-111600976D02*
X186786333Y-111600976D01*
X186786333Y-111600976D02*
X186929190Y-111648595D01*
X186929190Y-111648595D02*
X187500619Y-112220023D01*
X187500619Y-112220023D02*
X187500619Y-111600976D01*
X186500619Y-110696214D02*
X186500619Y-111172404D01*
X186500619Y-111172404D02*
X186976809Y-111220023D01*
X186976809Y-111220023D02*
X186929190Y-111172404D01*
X186929190Y-111172404D02*
X186881571Y-111077166D01*
X186881571Y-111077166D02*
X186881571Y-110839071D01*
X186881571Y-110839071D02*
X186929190Y-110743833D01*
X186929190Y-110743833D02*
X186976809Y-110696214D01*
X186976809Y-110696214D02*
X187072047Y-110648595D01*
X187072047Y-110648595D02*
X187310142Y-110648595D01*
X187310142Y-110648595D02*
X187405380Y-110696214D01*
X187405380Y-110696214D02*
X187453000Y-110743833D01*
X187453000Y-110743833D02*
X187500619Y-110839071D01*
X187500619Y-110839071D02*
X187500619Y-111077166D01*
X187500619Y-111077166D02*
X187453000Y-111172404D01*
X187453000Y-111172404D02*
X187405380Y-111220023D01*
%TO.C,SW24*%
X177739000Y-132671523D02*
X177786619Y-132528666D01*
X177786619Y-132528666D02*
X177786619Y-132290571D01*
X177786619Y-132290571D02*
X177739000Y-132195333D01*
X177739000Y-132195333D02*
X177691380Y-132147714D01*
X177691380Y-132147714D02*
X177596142Y-132100095D01*
X177596142Y-132100095D02*
X177500904Y-132100095D01*
X177500904Y-132100095D02*
X177405666Y-132147714D01*
X177405666Y-132147714D02*
X177358047Y-132195333D01*
X177358047Y-132195333D02*
X177310428Y-132290571D01*
X177310428Y-132290571D02*
X177262809Y-132481047D01*
X177262809Y-132481047D02*
X177215190Y-132576285D01*
X177215190Y-132576285D02*
X177167571Y-132623904D01*
X177167571Y-132623904D02*
X177072333Y-132671523D01*
X177072333Y-132671523D02*
X176977095Y-132671523D01*
X176977095Y-132671523D02*
X176881857Y-132623904D01*
X176881857Y-132623904D02*
X176834238Y-132576285D01*
X176834238Y-132576285D02*
X176786619Y-132481047D01*
X176786619Y-132481047D02*
X176786619Y-132242952D01*
X176786619Y-132242952D02*
X176834238Y-132100095D01*
X176786619Y-131766761D02*
X177786619Y-131528666D01*
X177786619Y-131528666D02*
X177072333Y-131338190D01*
X177072333Y-131338190D02*
X177786619Y-131147714D01*
X177786619Y-131147714D02*
X176786619Y-130909619D01*
X176881857Y-130576285D02*
X176834238Y-130528666D01*
X176834238Y-130528666D02*
X176786619Y-130433428D01*
X176786619Y-130433428D02*
X176786619Y-130195333D01*
X176786619Y-130195333D02*
X176834238Y-130100095D01*
X176834238Y-130100095D02*
X176881857Y-130052476D01*
X176881857Y-130052476D02*
X176977095Y-130004857D01*
X176977095Y-130004857D02*
X177072333Y-130004857D01*
X177072333Y-130004857D02*
X177215190Y-130052476D01*
X177215190Y-130052476D02*
X177786619Y-130623904D01*
X177786619Y-130623904D02*
X177786619Y-130004857D01*
X177119952Y-129147714D02*
X177786619Y-129147714D01*
X176739000Y-129385809D02*
X177453285Y-129623904D01*
X177453285Y-129623904D02*
X177453285Y-129004857D01*
%TO.C,SW21*%
X160539000Y-94063523D02*
X160586619Y-93920666D01*
X160586619Y-93920666D02*
X160586619Y-93682571D01*
X160586619Y-93682571D02*
X160539000Y-93587333D01*
X160539000Y-93587333D02*
X160491380Y-93539714D01*
X160491380Y-93539714D02*
X160396142Y-93492095D01*
X160396142Y-93492095D02*
X160300904Y-93492095D01*
X160300904Y-93492095D02*
X160205666Y-93539714D01*
X160205666Y-93539714D02*
X160158047Y-93587333D01*
X160158047Y-93587333D02*
X160110428Y-93682571D01*
X160110428Y-93682571D02*
X160062809Y-93873047D01*
X160062809Y-93873047D02*
X160015190Y-93968285D01*
X160015190Y-93968285D02*
X159967571Y-94015904D01*
X159967571Y-94015904D02*
X159872333Y-94063523D01*
X159872333Y-94063523D02*
X159777095Y-94063523D01*
X159777095Y-94063523D02*
X159681857Y-94015904D01*
X159681857Y-94015904D02*
X159634238Y-93968285D01*
X159634238Y-93968285D02*
X159586619Y-93873047D01*
X159586619Y-93873047D02*
X159586619Y-93634952D01*
X159586619Y-93634952D02*
X159634238Y-93492095D01*
X159586619Y-93158761D02*
X160586619Y-92920666D01*
X160586619Y-92920666D02*
X159872333Y-92730190D01*
X159872333Y-92730190D02*
X160586619Y-92539714D01*
X160586619Y-92539714D02*
X159586619Y-92301619D01*
X159681857Y-91968285D02*
X159634238Y-91920666D01*
X159634238Y-91920666D02*
X159586619Y-91825428D01*
X159586619Y-91825428D02*
X159586619Y-91587333D01*
X159586619Y-91587333D02*
X159634238Y-91492095D01*
X159634238Y-91492095D02*
X159681857Y-91444476D01*
X159681857Y-91444476D02*
X159777095Y-91396857D01*
X159777095Y-91396857D02*
X159872333Y-91396857D01*
X159872333Y-91396857D02*
X160015190Y-91444476D01*
X160015190Y-91444476D02*
X160586619Y-92015904D01*
X160586619Y-92015904D02*
X160586619Y-91396857D01*
X160586619Y-90444476D02*
X160586619Y-91015904D01*
X160586619Y-90730190D02*
X159586619Y-90730190D01*
X159586619Y-90730190D02*
X159729476Y-90825428D01*
X159729476Y-90825428D02*
X159824714Y-90920666D01*
X159824714Y-90920666D02*
X159872333Y-91015904D01*
%TO.C,SW22*%
X177811000Y-94063523D02*
X177858619Y-93920666D01*
X177858619Y-93920666D02*
X177858619Y-93682571D01*
X177858619Y-93682571D02*
X177811000Y-93587333D01*
X177811000Y-93587333D02*
X177763380Y-93539714D01*
X177763380Y-93539714D02*
X177668142Y-93492095D01*
X177668142Y-93492095D02*
X177572904Y-93492095D01*
X177572904Y-93492095D02*
X177477666Y-93539714D01*
X177477666Y-93539714D02*
X177430047Y-93587333D01*
X177430047Y-93587333D02*
X177382428Y-93682571D01*
X177382428Y-93682571D02*
X177334809Y-93873047D01*
X177334809Y-93873047D02*
X177287190Y-93968285D01*
X177287190Y-93968285D02*
X177239571Y-94015904D01*
X177239571Y-94015904D02*
X177144333Y-94063523D01*
X177144333Y-94063523D02*
X177049095Y-94063523D01*
X177049095Y-94063523D02*
X176953857Y-94015904D01*
X176953857Y-94015904D02*
X176906238Y-93968285D01*
X176906238Y-93968285D02*
X176858619Y-93873047D01*
X176858619Y-93873047D02*
X176858619Y-93634952D01*
X176858619Y-93634952D02*
X176906238Y-93492095D01*
X176858619Y-93158761D02*
X177858619Y-92920666D01*
X177858619Y-92920666D02*
X177144333Y-92730190D01*
X177144333Y-92730190D02*
X177858619Y-92539714D01*
X177858619Y-92539714D02*
X176858619Y-92301619D01*
X176953857Y-91968285D02*
X176906238Y-91920666D01*
X176906238Y-91920666D02*
X176858619Y-91825428D01*
X176858619Y-91825428D02*
X176858619Y-91587333D01*
X176858619Y-91587333D02*
X176906238Y-91492095D01*
X176906238Y-91492095D02*
X176953857Y-91444476D01*
X176953857Y-91444476D02*
X177049095Y-91396857D01*
X177049095Y-91396857D02*
X177144333Y-91396857D01*
X177144333Y-91396857D02*
X177287190Y-91444476D01*
X177287190Y-91444476D02*
X177858619Y-92015904D01*
X177858619Y-92015904D02*
X177858619Y-91396857D01*
X176953857Y-91015904D02*
X176906238Y-90968285D01*
X176906238Y-90968285D02*
X176858619Y-90873047D01*
X176858619Y-90873047D02*
X176858619Y-90634952D01*
X176858619Y-90634952D02*
X176906238Y-90539714D01*
X176906238Y-90539714D02*
X176953857Y-90492095D01*
X176953857Y-90492095D02*
X177049095Y-90444476D01*
X177049095Y-90444476D02*
X177144333Y-90444476D01*
X177144333Y-90444476D02*
X177287190Y-90492095D01*
X177287190Y-90492095D02*
X177858619Y-91063523D01*
X177858619Y-91063523D02*
X177858619Y-90444476D01*
%TO.C,R4*%
X121272619Y-111522166D02*
X120796428Y-111855499D01*
X121272619Y-112093594D02*
X120272619Y-112093594D01*
X120272619Y-112093594D02*
X120272619Y-111712642D01*
X120272619Y-111712642D02*
X120320238Y-111617404D01*
X120320238Y-111617404D02*
X120367857Y-111569785D01*
X120367857Y-111569785D02*
X120463095Y-111522166D01*
X120463095Y-111522166D02*
X120605952Y-111522166D01*
X120605952Y-111522166D02*
X120701190Y-111569785D01*
X120701190Y-111569785D02*
X120748809Y-111617404D01*
X120748809Y-111617404D02*
X120796428Y-111712642D01*
X120796428Y-111712642D02*
X120796428Y-112093594D01*
X120605952Y-110665023D02*
X121272619Y-110665023D01*
X120225000Y-110903118D02*
X120939285Y-111141213D01*
X120939285Y-111141213D02*
X120939285Y-110522166D01*
%TO.C,R12*%
X91305142Y-43228619D02*
X90971809Y-42752428D01*
X90733714Y-43228619D02*
X90733714Y-42228619D01*
X90733714Y-42228619D02*
X91114666Y-42228619D01*
X91114666Y-42228619D02*
X91209904Y-42276238D01*
X91209904Y-42276238D02*
X91257523Y-42323857D01*
X91257523Y-42323857D02*
X91305142Y-42419095D01*
X91305142Y-42419095D02*
X91305142Y-42561952D01*
X91305142Y-42561952D02*
X91257523Y-42657190D01*
X91257523Y-42657190D02*
X91209904Y-42704809D01*
X91209904Y-42704809D02*
X91114666Y-42752428D01*
X91114666Y-42752428D02*
X90733714Y-42752428D01*
X92257523Y-43228619D02*
X91686095Y-43228619D01*
X91971809Y-43228619D02*
X91971809Y-42228619D01*
X91971809Y-42228619D02*
X91876571Y-42371476D01*
X91876571Y-42371476D02*
X91781333Y-42466714D01*
X91781333Y-42466714D02*
X91686095Y-42514333D01*
X92638476Y-42323857D02*
X92686095Y-42276238D01*
X92686095Y-42276238D02*
X92781333Y-42228619D01*
X92781333Y-42228619D02*
X93019428Y-42228619D01*
X93019428Y-42228619D02*
X93114666Y-42276238D01*
X93114666Y-42276238D02*
X93162285Y-42323857D01*
X93162285Y-42323857D02*
X93209904Y-42419095D01*
X93209904Y-42419095D02*
X93209904Y-42514333D01*
X93209904Y-42514333D02*
X93162285Y-42657190D01*
X93162285Y-42657190D02*
X92590857Y-43228619D01*
X92590857Y-43228619D02*
X93209904Y-43228619D01*
%TO.C,R16*%
X239382619Y-153908357D02*
X238906428Y-154241690D01*
X239382619Y-154479785D02*
X238382619Y-154479785D01*
X238382619Y-154479785D02*
X238382619Y-154098833D01*
X238382619Y-154098833D02*
X238430238Y-154003595D01*
X238430238Y-154003595D02*
X238477857Y-153955976D01*
X238477857Y-153955976D02*
X238573095Y-153908357D01*
X238573095Y-153908357D02*
X238715952Y-153908357D01*
X238715952Y-153908357D02*
X238811190Y-153955976D01*
X238811190Y-153955976D02*
X238858809Y-154003595D01*
X238858809Y-154003595D02*
X238906428Y-154098833D01*
X238906428Y-154098833D02*
X238906428Y-154479785D01*
X239382619Y-152955976D02*
X239382619Y-153527404D01*
X239382619Y-153241690D02*
X238382619Y-153241690D01*
X238382619Y-153241690D02*
X238525476Y-153336928D01*
X238525476Y-153336928D02*
X238620714Y-153432166D01*
X238620714Y-153432166D02*
X238668333Y-153527404D01*
X238382619Y-152098833D02*
X238382619Y-152289309D01*
X238382619Y-152289309D02*
X238430238Y-152384547D01*
X238430238Y-152384547D02*
X238477857Y-152432166D01*
X238477857Y-152432166D02*
X238620714Y-152527404D01*
X238620714Y-152527404D02*
X238811190Y-152575023D01*
X238811190Y-152575023D02*
X239192142Y-152575023D01*
X239192142Y-152575023D02*
X239287380Y-152527404D01*
X239287380Y-152527404D02*
X239335000Y-152479785D01*
X239335000Y-152479785D02*
X239382619Y-152384547D01*
X239382619Y-152384547D02*
X239382619Y-152194071D01*
X239382619Y-152194071D02*
X239335000Y-152098833D01*
X239335000Y-152098833D02*
X239287380Y-152051214D01*
X239287380Y-152051214D02*
X239192142Y-152003595D01*
X239192142Y-152003595D02*
X238954047Y-152003595D01*
X238954047Y-152003595D02*
X238858809Y-152051214D01*
X238858809Y-152051214D02*
X238811190Y-152098833D01*
X238811190Y-152098833D02*
X238763571Y-152194071D01*
X238763571Y-152194071D02*
X238763571Y-152384547D01*
X238763571Y-152384547D02*
X238811190Y-152479785D01*
X238811190Y-152479785D02*
X238858809Y-152527404D01*
X238858809Y-152527404D02*
X238954047Y-152575023D01*
%TO.C,SW7*%
X55819000Y-51423332D02*
X55866619Y-51280475D01*
X55866619Y-51280475D02*
X55866619Y-51042380D01*
X55866619Y-51042380D02*
X55819000Y-50947142D01*
X55819000Y-50947142D02*
X55771380Y-50899523D01*
X55771380Y-50899523D02*
X55676142Y-50851904D01*
X55676142Y-50851904D02*
X55580904Y-50851904D01*
X55580904Y-50851904D02*
X55485666Y-50899523D01*
X55485666Y-50899523D02*
X55438047Y-50947142D01*
X55438047Y-50947142D02*
X55390428Y-51042380D01*
X55390428Y-51042380D02*
X55342809Y-51232856D01*
X55342809Y-51232856D02*
X55295190Y-51328094D01*
X55295190Y-51328094D02*
X55247571Y-51375713D01*
X55247571Y-51375713D02*
X55152333Y-51423332D01*
X55152333Y-51423332D02*
X55057095Y-51423332D01*
X55057095Y-51423332D02*
X54961857Y-51375713D01*
X54961857Y-51375713D02*
X54914238Y-51328094D01*
X54914238Y-51328094D02*
X54866619Y-51232856D01*
X54866619Y-51232856D02*
X54866619Y-50994761D01*
X54866619Y-50994761D02*
X54914238Y-50851904D01*
X54866619Y-50518570D02*
X55866619Y-50280475D01*
X55866619Y-50280475D02*
X55152333Y-50089999D01*
X55152333Y-50089999D02*
X55866619Y-49899523D01*
X55866619Y-49899523D02*
X54866619Y-49661428D01*
X54866619Y-49375713D02*
X54866619Y-48709047D01*
X54866619Y-48709047D02*
X55866619Y-49137618D01*
%TO.C,SW20*%
X177811000Y-52153523D02*
X177858619Y-52010666D01*
X177858619Y-52010666D02*
X177858619Y-51772571D01*
X177858619Y-51772571D02*
X177811000Y-51677333D01*
X177811000Y-51677333D02*
X177763380Y-51629714D01*
X177763380Y-51629714D02*
X177668142Y-51582095D01*
X177668142Y-51582095D02*
X177572904Y-51582095D01*
X177572904Y-51582095D02*
X177477666Y-51629714D01*
X177477666Y-51629714D02*
X177430047Y-51677333D01*
X177430047Y-51677333D02*
X177382428Y-51772571D01*
X177382428Y-51772571D02*
X177334809Y-51963047D01*
X177334809Y-51963047D02*
X177287190Y-52058285D01*
X177287190Y-52058285D02*
X177239571Y-52105904D01*
X177239571Y-52105904D02*
X177144333Y-52153523D01*
X177144333Y-52153523D02*
X177049095Y-52153523D01*
X177049095Y-52153523D02*
X176953857Y-52105904D01*
X176953857Y-52105904D02*
X176906238Y-52058285D01*
X176906238Y-52058285D02*
X176858619Y-51963047D01*
X176858619Y-51963047D02*
X176858619Y-51724952D01*
X176858619Y-51724952D02*
X176906238Y-51582095D01*
X176858619Y-51248761D02*
X177858619Y-51010666D01*
X177858619Y-51010666D02*
X177144333Y-50820190D01*
X177144333Y-50820190D02*
X177858619Y-50629714D01*
X177858619Y-50629714D02*
X176858619Y-50391619D01*
X176953857Y-50058285D02*
X176906238Y-50010666D01*
X176906238Y-50010666D02*
X176858619Y-49915428D01*
X176858619Y-49915428D02*
X176858619Y-49677333D01*
X176858619Y-49677333D02*
X176906238Y-49582095D01*
X176906238Y-49582095D02*
X176953857Y-49534476D01*
X176953857Y-49534476D02*
X177049095Y-49486857D01*
X177049095Y-49486857D02*
X177144333Y-49486857D01*
X177144333Y-49486857D02*
X177287190Y-49534476D01*
X177287190Y-49534476D02*
X177858619Y-50105904D01*
X177858619Y-50105904D02*
X177858619Y-49486857D01*
X176858619Y-48867809D02*
X176858619Y-48772571D01*
X176858619Y-48772571D02*
X176906238Y-48677333D01*
X176906238Y-48677333D02*
X176953857Y-48629714D01*
X176953857Y-48629714D02*
X177049095Y-48582095D01*
X177049095Y-48582095D02*
X177239571Y-48534476D01*
X177239571Y-48534476D02*
X177477666Y-48534476D01*
X177477666Y-48534476D02*
X177668142Y-48582095D01*
X177668142Y-48582095D02*
X177763380Y-48629714D01*
X177763380Y-48629714D02*
X177811000Y-48677333D01*
X177811000Y-48677333D02*
X177858619Y-48772571D01*
X177858619Y-48772571D02*
X177858619Y-48867809D01*
X177858619Y-48867809D02*
X177811000Y-48963047D01*
X177811000Y-48963047D02*
X177763380Y-49010666D01*
X177763380Y-49010666D02*
X177668142Y-49058285D01*
X177668142Y-49058285D02*
X177477666Y-49105904D01*
X177477666Y-49105904D02*
X177239571Y-49105904D01*
X177239571Y-49105904D02*
X177049095Y-49058285D01*
X177049095Y-49058285D02*
X176953857Y-49010666D01*
X176953857Y-49010666D02*
X176906238Y-48963047D01*
X176906238Y-48963047D02*
X176858619Y-48867809D01*
%TO.C,R15*%
X169212619Y-33512357D02*
X168736428Y-33845690D01*
X169212619Y-34083785D02*
X168212619Y-34083785D01*
X168212619Y-34083785D02*
X168212619Y-33702833D01*
X168212619Y-33702833D02*
X168260238Y-33607595D01*
X168260238Y-33607595D02*
X168307857Y-33559976D01*
X168307857Y-33559976D02*
X168403095Y-33512357D01*
X168403095Y-33512357D02*
X168545952Y-33512357D01*
X168545952Y-33512357D02*
X168641190Y-33559976D01*
X168641190Y-33559976D02*
X168688809Y-33607595D01*
X168688809Y-33607595D02*
X168736428Y-33702833D01*
X168736428Y-33702833D02*
X168736428Y-34083785D01*
X169212619Y-32559976D02*
X169212619Y-33131404D01*
X169212619Y-32845690D02*
X168212619Y-32845690D01*
X168212619Y-32845690D02*
X168355476Y-32940928D01*
X168355476Y-32940928D02*
X168450714Y-33036166D01*
X168450714Y-33036166D02*
X168498333Y-33131404D01*
X168212619Y-31655214D02*
X168212619Y-32131404D01*
X168212619Y-32131404D02*
X168688809Y-32179023D01*
X168688809Y-32179023D02*
X168641190Y-32131404D01*
X168641190Y-32131404D02*
X168593571Y-32036166D01*
X168593571Y-32036166D02*
X168593571Y-31798071D01*
X168593571Y-31798071D02*
X168641190Y-31702833D01*
X168641190Y-31702833D02*
X168688809Y-31655214D01*
X168688809Y-31655214D02*
X168784047Y-31607595D01*
X168784047Y-31607595D02*
X169022142Y-31607595D01*
X169022142Y-31607595D02*
X169117380Y-31655214D01*
X169117380Y-31655214D02*
X169165000Y-31702833D01*
X169165000Y-31702833D02*
X169212619Y-31798071D01*
X169212619Y-31798071D02*
X169212619Y-32036166D01*
X169212619Y-32036166D02*
X169165000Y-32131404D01*
X169165000Y-32131404D02*
X169117380Y-32179023D01*
%TO.C,SW9*%
X55891000Y-93333332D02*
X55938619Y-93190475D01*
X55938619Y-93190475D02*
X55938619Y-92952380D01*
X55938619Y-92952380D02*
X55891000Y-92857142D01*
X55891000Y-92857142D02*
X55843380Y-92809523D01*
X55843380Y-92809523D02*
X55748142Y-92761904D01*
X55748142Y-92761904D02*
X55652904Y-92761904D01*
X55652904Y-92761904D02*
X55557666Y-92809523D01*
X55557666Y-92809523D02*
X55510047Y-92857142D01*
X55510047Y-92857142D02*
X55462428Y-92952380D01*
X55462428Y-92952380D02*
X55414809Y-93142856D01*
X55414809Y-93142856D02*
X55367190Y-93238094D01*
X55367190Y-93238094D02*
X55319571Y-93285713D01*
X55319571Y-93285713D02*
X55224333Y-93333332D01*
X55224333Y-93333332D02*
X55129095Y-93333332D01*
X55129095Y-93333332D02*
X55033857Y-93285713D01*
X55033857Y-93285713D02*
X54986238Y-93238094D01*
X54986238Y-93238094D02*
X54938619Y-93142856D01*
X54938619Y-93142856D02*
X54938619Y-92904761D01*
X54938619Y-92904761D02*
X54986238Y-92761904D01*
X54938619Y-92428570D02*
X55938619Y-92190475D01*
X55938619Y-92190475D02*
X55224333Y-91999999D01*
X55224333Y-91999999D02*
X55938619Y-91809523D01*
X55938619Y-91809523D02*
X54938619Y-91571428D01*
X55938619Y-91142856D02*
X55938619Y-90952380D01*
X55938619Y-90952380D02*
X55891000Y-90857142D01*
X55891000Y-90857142D02*
X55843380Y-90809523D01*
X55843380Y-90809523D02*
X55700523Y-90714285D01*
X55700523Y-90714285D02*
X55510047Y-90666666D01*
X55510047Y-90666666D02*
X55129095Y-90666666D01*
X55129095Y-90666666D02*
X55033857Y-90714285D01*
X55033857Y-90714285D02*
X54986238Y-90761904D01*
X54986238Y-90761904D02*
X54938619Y-90857142D01*
X54938619Y-90857142D02*
X54938619Y-91047618D01*
X54938619Y-91047618D02*
X54986238Y-91142856D01*
X54986238Y-91142856D02*
X55033857Y-91190475D01*
X55033857Y-91190475D02*
X55129095Y-91238094D01*
X55129095Y-91238094D02*
X55367190Y-91238094D01*
X55367190Y-91238094D02*
X55462428Y-91190475D01*
X55462428Y-91190475D02*
X55510047Y-91142856D01*
X55510047Y-91142856D02*
X55557666Y-91047618D01*
X55557666Y-91047618D02*
X55557666Y-90857142D01*
X55557666Y-90857142D02*
X55510047Y-90761904D01*
X55510047Y-90761904D02*
X55462428Y-90714285D01*
X55462428Y-90714285D02*
X55367190Y-90666666D01*
%TO.C,R17*%
X243954619Y-111998357D02*
X243478428Y-112331690D01*
X243954619Y-112569785D02*
X242954619Y-112569785D01*
X242954619Y-112569785D02*
X242954619Y-112188833D01*
X242954619Y-112188833D02*
X243002238Y-112093595D01*
X243002238Y-112093595D02*
X243049857Y-112045976D01*
X243049857Y-112045976D02*
X243145095Y-111998357D01*
X243145095Y-111998357D02*
X243287952Y-111998357D01*
X243287952Y-111998357D02*
X243383190Y-112045976D01*
X243383190Y-112045976D02*
X243430809Y-112093595D01*
X243430809Y-112093595D02*
X243478428Y-112188833D01*
X243478428Y-112188833D02*
X243478428Y-112569785D01*
X243954619Y-111045976D02*
X243954619Y-111617404D01*
X243954619Y-111331690D02*
X242954619Y-111331690D01*
X242954619Y-111331690D02*
X243097476Y-111426928D01*
X243097476Y-111426928D02*
X243192714Y-111522166D01*
X243192714Y-111522166D02*
X243240333Y-111617404D01*
X242954619Y-110712642D02*
X242954619Y-110045976D01*
X242954619Y-110045976D02*
X243954619Y-110474547D01*
%TO.C,SW1*%
X109667000Y-132195332D02*
X109714619Y-132052475D01*
X109714619Y-132052475D02*
X109714619Y-131814380D01*
X109714619Y-131814380D02*
X109667000Y-131719142D01*
X109667000Y-131719142D02*
X109619380Y-131671523D01*
X109619380Y-131671523D02*
X109524142Y-131623904D01*
X109524142Y-131623904D02*
X109428904Y-131623904D01*
X109428904Y-131623904D02*
X109333666Y-131671523D01*
X109333666Y-131671523D02*
X109286047Y-131719142D01*
X109286047Y-131719142D02*
X109238428Y-131814380D01*
X109238428Y-131814380D02*
X109190809Y-132004856D01*
X109190809Y-132004856D02*
X109143190Y-132100094D01*
X109143190Y-132100094D02*
X109095571Y-132147713D01*
X109095571Y-132147713D02*
X109000333Y-132195332D01*
X109000333Y-132195332D02*
X108905095Y-132195332D01*
X108905095Y-132195332D02*
X108809857Y-132147713D01*
X108809857Y-132147713D02*
X108762238Y-132100094D01*
X108762238Y-132100094D02*
X108714619Y-132004856D01*
X108714619Y-132004856D02*
X108714619Y-131766761D01*
X108714619Y-131766761D02*
X108762238Y-131623904D01*
X108714619Y-131290570D02*
X109714619Y-131052475D01*
X109714619Y-131052475D02*
X109000333Y-130861999D01*
X109000333Y-130861999D02*
X109714619Y-130671523D01*
X109714619Y-130671523D02*
X108714619Y-130433428D01*
X109714619Y-129528666D02*
X109714619Y-130100094D01*
X109714619Y-129814380D02*
X108714619Y-129814380D01*
X108714619Y-129814380D02*
X108857476Y-129909618D01*
X108857476Y-129909618D02*
X108952714Y-130004856D01*
X108952714Y-130004856D02*
X109000333Y-130100094D01*
%TO.C,R11*%
X61008619Y-71762857D02*
X60532428Y-72096190D01*
X61008619Y-72334285D02*
X60008619Y-72334285D01*
X60008619Y-72334285D02*
X60008619Y-71953333D01*
X60008619Y-71953333D02*
X60056238Y-71858095D01*
X60056238Y-71858095D02*
X60103857Y-71810476D01*
X60103857Y-71810476D02*
X60199095Y-71762857D01*
X60199095Y-71762857D02*
X60341952Y-71762857D01*
X60341952Y-71762857D02*
X60437190Y-71810476D01*
X60437190Y-71810476D02*
X60484809Y-71858095D01*
X60484809Y-71858095D02*
X60532428Y-71953333D01*
X60532428Y-71953333D02*
X60532428Y-72334285D01*
X61008619Y-70810476D02*
X61008619Y-71381904D01*
X61008619Y-71096190D02*
X60008619Y-71096190D01*
X60008619Y-71096190D02*
X60151476Y-71191428D01*
X60151476Y-71191428D02*
X60246714Y-71286666D01*
X60246714Y-71286666D02*
X60294333Y-71381904D01*
X61008619Y-69858095D02*
X61008619Y-70429523D01*
X61008619Y-70143809D02*
X60008619Y-70143809D01*
X60008619Y-70143809D02*
X60151476Y-70239047D01*
X60151476Y-70239047D02*
X60246714Y-70334285D01*
X60246714Y-70334285D02*
X60294333Y-70429523D01*
%TO.C,R14*%
X109080619Y-112252357D02*
X108604428Y-112585690D01*
X109080619Y-112823785D02*
X108080619Y-112823785D01*
X108080619Y-112823785D02*
X108080619Y-112442833D01*
X108080619Y-112442833D02*
X108128238Y-112347595D01*
X108128238Y-112347595D02*
X108175857Y-112299976D01*
X108175857Y-112299976D02*
X108271095Y-112252357D01*
X108271095Y-112252357D02*
X108413952Y-112252357D01*
X108413952Y-112252357D02*
X108509190Y-112299976D01*
X108509190Y-112299976D02*
X108556809Y-112347595D01*
X108556809Y-112347595D02*
X108604428Y-112442833D01*
X108604428Y-112442833D02*
X108604428Y-112823785D01*
X109080619Y-111299976D02*
X109080619Y-111871404D01*
X109080619Y-111585690D02*
X108080619Y-111585690D01*
X108080619Y-111585690D02*
X108223476Y-111680928D01*
X108223476Y-111680928D02*
X108318714Y-111776166D01*
X108318714Y-111776166D02*
X108366333Y-111871404D01*
X108413952Y-110442833D02*
X109080619Y-110442833D01*
X108033000Y-110680928D02*
X108747285Y-110919023D01*
X108747285Y-110919023D02*
X108747285Y-110299976D01*
%TO.C,SW14*%
X231333000Y-133179523D02*
X231380619Y-133036666D01*
X231380619Y-133036666D02*
X231380619Y-132798571D01*
X231380619Y-132798571D02*
X231333000Y-132703333D01*
X231333000Y-132703333D02*
X231285380Y-132655714D01*
X231285380Y-132655714D02*
X231190142Y-132608095D01*
X231190142Y-132608095D02*
X231094904Y-132608095D01*
X231094904Y-132608095D02*
X230999666Y-132655714D01*
X230999666Y-132655714D02*
X230952047Y-132703333D01*
X230952047Y-132703333D02*
X230904428Y-132798571D01*
X230904428Y-132798571D02*
X230856809Y-132989047D01*
X230856809Y-132989047D02*
X230809190Y-133084285D01*
X230809190Y-133084285D02*
X230761571Y-133131904D01*
X230761571Y-133131904D02*
X230666333Y-133179523D01*
X230666333Y-133179523D02*
X230571095Y-133179523D01*
X230571095Y-133179523D02*
X230475857Y-133131904D01*
X230475857Y-133131904D02*
X230428238Y-133084285D01*
X230428238Y-133084285D02*
X230380619Y-132989047D01*
X230380619Y-132989047D02*
X230380619Y-132750952D01*
X230380619Y-132750952D02*
X230428238Y-132608095D01*
X230380619Y-132274761D02*
X231380619Y-132036666D01*
X231380619Y-132036666D02*
X230666333Y-131846190D01*
X230666333Y-131846190D02*
X231380619Y-131655714D01*
X231380619Y-131655714D02*
X230380619Y-131417619D01*
X231380619Y-130512857D02*
X231380619Y-131084285D01*
X231380619Y-130798571D02*
X230380619Y-130798571D01*
X230380619Y-130798571D02*
X230523476Y-130893809D01*
X230523476Y-130893809D02*
X230618714Y-130989047D01*
X230618714Y-130989047D02*
X230666333Y-131084285D01*
X230713952Y-129655714D02*
X231380619Y-129655714D01*
X230333000Y-129893809D02*
X231047285Y-130131904D01*
X231047285Y-130131904D02*
X231047285Y-129512857D01*
%TO.C,R13*%
X109080619Y-71612357D02*
X108604428Y-71945690D01*
X109080619Y-72183785D02*
X108080619Y-72183785D01*
X108080619Y-72183785D02*
X108080619Y-71802833D01*
X108080619Y-71802833D02*
X108128238Y-71707595D01*
X108128238Y-71707595D02*
X108175857Y-71659976D01*
X108175857Y-71659976D02*
X108271095Y-71612357D01*
X108271095Y-71612357D02*
X108413952Y-71612357D01*
X108413952Y-71612357D02*
X108509190Y-71659976D01*
X108509190Y-71659976D02*
X108556809Y-71707595D01*
X108556809Y-71707595D02*
X108604428Y-71802833D01*
X108604428Y-71802833D02*
X108604428Y-72183785D01*
X109080619Y-70659976D02*
X109080619Y-71231404D01*
X109080619Y-70945690D02*
X108080619Y-70945690D01*
X108080619Y-70945690D02*
X108223476Y-71040928D01*
X108223476Y-71040928D02*
X108318714Y-71136166D01*
X108318714Y-71136166D02*
X108366333Y-71231404D01*
X108080619Y-70326642D02*
X108080619Y-69707595D01*
X108080619Y-69707595D02*
X108461571Y-70040928D01*
X108461571Y-70040928D02*
X108461571Y-69898071D01*
X108461571Y-69898071D02*
X108509190Y-69802833D01*
X108509190Y-69802833D02*
X108556809Y-69755214D01*
X108556809Y-69755214D02*
X108652047Y-69707595D01*
X108652047Y-69707595D02*
X108890142Y-69707595D01*
X108890142Y-69707595D02*
X108985380Y-69755214D01*
X108985380Y-69755214D02*
X109033000Y-69802833D01*
X109033000Y-69802833D02*
X109080619Y-69898071D01*
X109080619Y-69898071D02*
X109080619Y-70183785D01*
X109080619Y-70183785D02*
X109033000Y-70279023D01*
X109033000Y-70279023D02*
X108985380Y-70326642D01*
%TO.C,R23*%
X187500619Y-72270857D02*
X187024428Y-72604190D01*
X187500619Y-72842285D02*
X186500619Y-72842285D01*
X186500619Y-72842285D02*
X186500619Y-72461333D01*
X186500619Y-72461333D02*
X186548238Y-72366095D01*
X186548238Y-72366095D02*
X186595857Y-72318476D01*
X186595857Y-72318476D02*
X186691095Y-72270857D01*
X186691095Y-72270857D02*
X186833952Y-72270857D01*
X186833952Y-72270857D02*
X186929190Y-72318476D01*
X186929190Y-72318476D02*
X186976809Y-72366095D01*
X186976809Y-72366095D02*
X187024428Y-72461333D01*
X187024428Y-72461333D02*
X187024428Y-72842285D01*
X186595857Y-71889904D02*
X186548238Y-71842285D01*
X186548238Y-71842285D02*
X186500619Y-71747047D01*
X186500619Y-71747047D02*
X186500619Y-71508952D01*
X186500619Y-71508952D02*
X186548238Y-71413714D01*
X186548238Y-71413714D02*
X186595857Y-71366095D01*
X186595857Y-71366095D02*
X186691095Y-71318476D01*
X186691095Y-71318476D02*
X186786333Y-71318476D01*
X186786333Y-71318476D02*
X186929190Y-71366095D01*
X186929190Y-71366095D02*
X187500619Y-71937523D01*
X187500619Y-71937523D02*
X187500619Y-71318476D01*
X186500619Y-70985142D02*
X186500619Y-70366095D01*
X186500619Y-70366095D02*
X186881571Y-70699428D01*
X186881571Y-70699428D02*
X186881571Y-70556571D01*
X186881571Y-70556571D02*
X186929190Y-70461333D01*
X186929190Y-70461333D02*
X186976809Y-70413714D01*
X186976809Y-70413714D02*
X187072047Y-70366095D01*
X187072047Y-70366095D02*
X187310142Y-70366095D01*
X187310142Y-70366095D02*
X187405380Y-70413714D01*
X187405380Y-70413714D02*
X187453000Y-70461333D01*
X187453000Y-70461333D02*
X187500619Y-70556571D01*
X187500619Y-70556571D02*
X187500619Y-70842285D01*
X187500619Y-70842285D02*
X187453000Y-70937523D01*
X187453000Y-70937523D02*
X187405380Y-70985142D01*
%TO.C,SW16*%
X231405000Y-93809523D02*
X231452619Y-93666666D01*
X231452619Y-93666666D02*
X231452619Y-93428571D01*
X231452619Y-93428571D02*
X231405000Y-93333333D01*
X231405000Y-93333333D02*
X231357380Y-93285714D01*
X231357380Y-93285714D02*
X231262142Y-93238095D01*
X231262142Y-93238095D02*
X231166904Y-93238095D01*
X231166904Y-93238095D02*
X231071666Y-93285714D01*
X231071666Y-93285714D02*
X231024047Y-93333333D01*
X231024047Y-93333333D02*
X230976428Y-93428571D01*
X230976428Y-93428571D02*
X230928809Y-93619047D01*
X230928809Y-93619047D02*
X230881190Y-93714285D01*
X230881190Y-93714285D02*
X230833571Y-93761904D01*
X230833571Y-93761904D02*
X230738333Y-93809523D01*
X230738333Y-93809523D02*
X230643095Y-93809523D01*
X230643095Y-93809523D02*
X230547857Y-93761904D01*
X230547857Y-93761904D02*
X230500238Y-93714285D01*
X230500238Y-93714285D02*
X230452619Y-93619047D01*
X230452619Y-93619047D02*
X230452619Y-93380952D01*
X230452619Y-93380952D02*
X230500238Y-93238095D01*
X230452619Y-92904761D02*
X231452619Y-92666666D01*
X231452619Y-92666666D02*
X230738333Y-92476190D01*
X230738333Y-92476190D02*
X231452619Y-92285714D01*
X231452619Y-92285714D02*
X230452619Y-92047619D01*
X231452619Y-91142857D02*
X231452619Y-91714285D01*
X231452619Y-91428571D02*
X230452619Y-91428571D01*
X230452619Y-91428571D02*
X230595476Y-91523809D01*
X230595476Y-91523809D02*
X230690714Y-91619047D01*
X230690714Y-91619047D02*
X230738333Y-91714285D01*
X230452619Y-90285714D02*
X230452619Y-90476190D01*
X230452619Y-90476190D02*
X230500238Y-90571428D01*
X230500238Y-90571428D02*
X230547857Y-90619047D01*
X230547857Y-90619047D02*
X230690714Y-90714285D01*
X230690714Y-90714285D02*
X230881190Y-90761904D01*
X230881190Y-90761904D02*
X231262142Y-90761904D01*
X231262142Y-90761904D02*
X231357380Y-90714285D01*
X231357380Y-90714285D02*
X231405000Y-90666666D01*
X231405000Y-90666666D02*
X231452619Y-90571428D01*
X231452619Y-90571428D02*
X231452619Y-90380952D01*
X231452619Y-90380952D02*
X231405000Y-90285714D01*
X231405000Y-90285714D02*
X231357380Y-90238095D01*
X231357380Y-90238095D02*
X231262142Y-90190476D01*
X231262142Y-90190476D02*
X231024047Y-90190476D01*
X231024047Y-90190476D02*
X230928809Y-90238095D01*
X230928809Y-90238095D02*
X230881190Y-90285714D01*
X230881190Y-90285714D02*
X230833571Y-90380952D01*
X230833571Y-90380952D02*
X230833571Y-90571428D01*
X230833571Y-90571428D02*
X230881190Y-90666666D01*
X230881190Y-90666666D02*
X230928809Y-90714285D01*
X230928809Y-90714285D02*
X231024047Y-90761904D01*
%TO.C,R18*%
X230238619Y-112252357D02*
X229762428Y-112585690D01*
X230238619Y-112823785D02*
X229238619Y-112823785D01*
X229238619Y-112823785D02*
X229238619Y-112442833D01*
X229238619Y-112442833D02*
X229286238Y-112347595D01*
X229286238Y-112347595D02*
X229333857Y-112299976D01*
X229333857Y-112299976D02*
X229429095Y-112252357D01*
X229429095Y-112252357D02*
X229571952Y-112252357D01*
X229571952Y-112252357D02*
X229667190Y-112299976D01*
X229667190Y-112299976D02*
X229714809Y-112347595D01*
X229714809Y-112347595D02*
X229762428Y-112442833D01*
X229762428Y-112442833D02*
X229762428Y-112823785D01*
X230238619Y-111299976D02*
X230238619Y-111871404D01*
X230238619Y-111585690D02*
X229238619Y-111585690D01*
X229238619Y-111585690D02*
X229381476Y-111680928D01*
X229381476Y-111680928D02*
X229476714Y-111776166D01*
X229476714Y-111776166D02*
X229524333Y-111871404D01*
X229667190Y-110728547D02*
X229619571Y-110823785D01*
X229619571Y-110823785D02*
X229571952Y-110871404D01*
X229571952Y-110871404D02*
X229476714Y-110919023D01*
X229476714Y-110919023D02*
X229429095Y-110919023D01*
X229429095Y-110919023D02*
X229333857Y-110871404D01*
X229333857Y-110871404D02*
X229286238Y-110823785D01*
X229286238Y-110823785D02*
X229238619Y-110728547D01*
X229238619Y-110728547D02*
X229238619Y-110538071D01*
X229238619Y-110538071D02*
X229286238Y-110442833D01*
X229286238Y-110442833D02*
X229333857Y-110395214D01*
X229333857Y-110395214D02*
X229429095Y-110347595D01*
X229429095Y-110347595D02*
X229476714Y-110347595D01*
X229476714Y-110347595D02*
X229571952Y-110395214D01*
X229571952Y-110395214D02*
X229619571Y-110442833D01*
X229619571Y-110442833D02*
X229667190Y-110538071D01*
X229667190Y-110538071D02*
X229667190Y-110728547D01*
X229667190Y-110728547D02*
X229714809Y-110823785D01*
X229714809Y-110823785D02*
X229762428Y-110871404D01*
X229762428Y-110871404D02*
X229857666Y-110919023D01*
X229857666Y-110919023D02*
X230048142Y-110919023D01*
X230048142Y-110919023D02*
X230143380Y-110871404D01*
X230143380Y-110871404D02*
X230191000Y-110823785D01*
X230191000Y-110823785D02*
X230238619Y-110728547D01*
X230238619Y-110728547D02*
X230238619Y-110538071D01*
X230238619Y-110538071D02*
X230191000Y-110442833D01*
X230191000Y-110442833D02*
X230143380Y-110395214D01*
X230143380Y-110395214D02*
X230048142Y-110347595D01*
X230048142Y-110347595D02*
X229857666Y-110347595D01*
X229857666Y-110347595D02*
X229762428Y-110395214D01*
X229762428Y-110395214D02*
X229714809Y-110442833D01*
X229714809Y-110442833D02*
X229667190Y-110538071D01*
%TO.C,SW8*%
X73599000Y-51423332D02*
X73646619Y-51280475D01*
X73646619Y-51280475D02*
X73646619Y-51042380D01*
X73646619Y-51042380D02*
X73599000Y-50947142D01*
X73599000Y-50947142D02*
X73551380Y-50899523D01*
X73551380Y-50899523D02*
X73456142Y-50851904D01*
X73456142Y-50851904D02*
X73360904Y-50851904D01*
X73360904Y-50851904D02*
X73265666Y-50899523D01*
X73265666Y-50899523D02*
X73218047Y-50947142D01*
X73218047Y-50947142D02*
X73170428Y-51042380D01*
X73170428Y-51042380D02*
X73122809Y-51232856D01*
X73122809Y-51232856D02*
X73075190Y-51328094D01*
X73075190Y-51328094D02*
X73027571Y-51375713D01*
X73027571Y-51375713D02*
X72932333Y-51423332D01*
X72932333Y-51423332D02*
X72837095Y-51423332D01*
X72837095Y-51423332D02*
X72741857Y-51375713D01*
X72741857Y-51375713D02*
X72694238Y-51328094D01*
X72694238Y-51328094D02*
X72646619Y-51232856D01*
X72646619Y-51232856D02*
X72646619Y-50994761D01*
X72646619Y-50994761D02*
X72694238Y-50851904D01*
X72646619Y-50518570D02*
X73646619Y-50280475D01*
X73646619Y-50280475D02*
X72932333Y-50089999D01*
X72932333Y-50089999D02*
X73646619Y-49899523D01*
X73646619Y-49899523D02*
X72646619Y-49661428D01*
X73075190Y-49137618D02*
X73027571Y-49232856D01*
X73027571Y-49232856D02*
X72979952Y-49280475D01*
X72979952Y-49280475D02*
X72884714Y-49328094D01*
X72884714Y-49328094D02*
X72837095Y-49328094D01*
X72837095Y-49328094D02*
X72741857Y-49280475D01*
X72741857Y-49280475D02*
X72694238Y-49232856D01*
X72694238Y-49232856D02*
X72646619Y-49137618D01*
X72646619Y-49137618D02*
X72646619Y-48947142D01*
X72646619Y-48947142D02*
X72694238Y-48851904D01*
X72694238Y-48851904D02*
X72741857Y-48804285D01*
X72741857Y-48804285D02*
X72837095Y-48756666D01*
X72837095Y-48756666D02*
X72884714Y-48756666D01*
X72884714Y-48756666D02*
X72979952Y-48804285D01*
X72979952Y-48804285D02*
X73027571Y-48851904D01*
X73027571Y-48851904D02*
X73075190Y-48947142D01*
X73075190Y-48947142D02*
X73075190Y-49137618D01*
X73075190Y-49137618D02*
X73122809Y-49232856D01*
X73122809Y-49232856D02*
X73170428Y-49280475D01*
X73170428Y-49280475D02*
X73265666Y-49328094D01*
X73265666Y-49328094D02*
X73456142Y-49328094D01*
X73456142Y-49328094D02*
X73551380Y-49280475D01*
X73551380Y-49280475D02*
X73599000Y-49232856D01*
X73599000Y-49232856D02*
X73646619Y-49137618D01*
X73646619Y-49137618D02*
X73646619Y-48947142D01*
X73646619Y-48947142D02*
X73599000Y-48851904D01*
X73599000Y-48851904D02*
X73551380Y-48804285D01*
X73551380Y-48804285D02*
X73456142Y-48756666D01*
X73456142Y-48756666D02*
X73265666Y-48756666D01*
X73265666Y-48756666D02*
X73170428Y-48804285D01*
X73170428Y-48804285D02*
X73122809Y-48851904D01*
X73122809Y-48851904D02*
X73075190Y-48947142D01*
%TO.C,SW6*%
X127011000Y-51677332D02*
X127058619Y-51534475D01*
X127058619Y-51534475D02*
X127058619Y-51296380D01*
X127058619Y-51296380D02*
X127011000Y-51201142D01*
X127011000Y-51201142D02*
X126963380Y-51153523D01*
X126963380Y-51153523D02*
X126868142Y-51105904D01*
X126868142Y-51105904D02*
X126772904Y-51105904D01*
X126772904Y-51105904D02*
X126677666Y-51153523D01*
X126677666Y-51153523D02*
X126630047Y-51201142D01*
X126630047Y-51201142D02*
X126582428Y-51296380D01*
X126582428Y-51296380D02*
X126534809Y-51486856D01*
X126534809Y-51486856D02*
X126487190Y-51582094D01*
X126487190Y-51582094D02*
X126439571Y-51629713D01*
X126439571Y-51629713D02*
X126344333Y-51677332D01*
X126344333Y-51677332D02*
X126249095Y-51677332D01*
X126249095Y-51677332D02*
X126153857Y-51629713D01*
X126153857Y-51629713D02*
X126106238Y-51582094D01*
X126106238Y-51582094D02*
X126058619Y-51486856D01*
X126058619Y-51486856D02*
X126058619Y-51248761D01*
X126058619Y-51248761D02*
X126106238Y-51105904D01*
X126058619Y-50772570D02*
X127058619Y-50534475D01*
X127058619Y-50534475D02*
X126344333Y-50343999D01*
X126344333Y-50343999D02*
X127058619Y-50153523D01*
X127058619Y-50153523D02*
X126058619Y-49915428D01*
X126058619Y-49105904D02*
X126058619Y-49296380D01*
X126058619Y-49296380D02*
X126106238Y-49391618D01*
X126106238Y-49391618D02*
X126153857Y-49439237D01*
X126153857Y-49439237D02*
X126296714Y-49534475D01*
X126296714Y-49534475D02*
X126487190Y-49582094D01*
X126487190Y-49582094D02*
X126868142Y-49582094D01*
X126868142Y-49582094D02*
X126963380Y-49534475D01*
X126963380Y-49534475D02*
X127011000Y-49486856D01*
X127011000Y-49486856D02*
X127058619Y-49391618D01*
X127058619Y-49391618D02*
X127058619Y-49201142D01*
X127058619Y-49201142D02*
X127011000Y-49105904D01*
X127011000Y-49105904D02*
X126963380Y-49058285D01*
X126963380Y-49058285D02*
X126868142Y-49010666D01*
X126868142Y-49010666D02*
X126630047Y-49010666D01*
X126630047Y-49010666D02*
X126534809Y-49058285D01*
X126534809Y-49058285D02*
X126487190Y-49105904D01*
X126487190Y-49105904D02*
X126439571Y-49201142D01*
X126439571Y-49201142D02*
X126439571Y-49391618D01*
X126439571Y-49391618D02*
X126487190Y-49486856D01*
X126487190Y-49486856D02*
X126534809Y-49534475D01*
X126534809Y-49534475D02*
X126630047Y-49582094D01*
%TO.C,SW17*%
X213879000Y-52153523D02*
X213926619Y-52010666D01*
X213926619Y-52010666D02*
X213926619Y-51772571D01*
X213926619Y-51772571D02*
X213879000Y-51677333D01*
X213879000Y-51677333D02*
X213831380Y-51629714D01*
X213831380Y-51629714D02*
X213736142Y-51582095D01*
X213736142Y-51582095D02*
X213640904Y-51582095D01*
X213640904Y-51582095D02*
X213545666Y-51629714D01*
X213545666Y-51629714D02*
X213498047Y-51677333D01*
X213498047Y-51677333D02*
X213450428Y-51772571D01*
X213450428Y-51772571D02*
X213402809Y-51963047D01*
X213402809Y-51963047D02*
X213355190Y-52058285D01*
X213355190Y-52058285D02*
X213307571Y-52105904D01*
X213307571Y-52105904D02*
X213212333Y-52153523D01*
X213212333Y-52153523D02*
X213117095Y-52153523D01*
X213117095Y-52153523D02*
X213021857Y-52105904D01*
X213021857Y-52105904D02*
X212974238Y-52058285D01*
X212974238Y-52058285D02*
X212926619Y-51963047D01*
X212926619Y-51963047D02*
X212926619Y-51724952D01*
X212926619Y-51724952D02*
X212974238Y-51582095D01*
X212926619Y-51248761D02*
X213926619Y-51010666D01*
X213926619Y-51010666D02*
X213212333Y-50820190D01*
X213212333Y-50820190D02*
X213926619Y-50629714D01*
X213926619Y-50629714D02*
X212926619Y-50391619D01*
X213926619Y-49486857D02*
X213926619Y-50058285D01*
X213926619Y-49772571D02*
X212926619Y-49772571D01*
X212926619Y-49772571D02*
X213069476Y-49867809D01*
X213069476Y-49867809D02*
X213164714Y-49963047D01*
X213164714Y-49963047D02*
X213212333Y-50058285D01*
X212926619Y-49153523D02*
X212926619Y-48486857D01*
X212926619Y-48486857D02*
X213926619Y-48915428D01*
%TO.C,R2*%
X71996619Y-33290166D02*
X71520428Y-33623499D01*
X71996619Y-33861594D02*
X70996619Y-33861594D01*
X70996619Y-33861594D02*
X70996619Y-33480642D01*
X70996619Y-33480642D02*
X71044238Y-33385404D01*
X71044238Y-33385404D02*
X71091857Y-33337785D01*
X71091857Y-33337785D02*
X71187095Y-33290166D01*
X71187095Y-33290166D02*
X71329952Y-33290166D01*
X71329952Y-33290166D02*
X71425190Y-33337785D01*
X71425190Y-33337785D02*
X71472809Y-33385404D01*
X71472809Y-33385404D02*
X71520428Y-33480642D01*
X71520428Y-33480642D02*
X71520428Y-33861594D01*
X71091857Y-32909213D02*
X71044238Y-32861594D01*
X71044238Y-32861594D02*
X70996619Y-32766356D01*
X70996619Y-32766356D02*
X70996619Y-32528261D01*
X70996619Y-32528261D02*
X71044238Y-32433023D01*
X71044238Y-32433023D02*
X71091857Y-32385404D01*
X71091857Y-32385404D02*
X71187095Y-32337785D01*
X71187095Y-32337785D02*
X71282333Y-32337785D01*
X71282333Y-32337785D02*
X71425190Y-32385404D01*
X71425190Y-32385404D02*
X71996619Y-32956832D01*
X71996619Y-32956832D02*
X71996619Y-32337785D01*
%TO.C,R24*%
X174292619Y-71866357D02*
X173816428Y-72199690D01*
X174292619Y-72437785D02*
X173292619Y-72437785D01*
X173292619Y-72437785D02*
X173292619Y-72056833D01*
X173292619Y-72056833D02*
X173340238Y-71961595D01*
X173340238Y-71961595D02*
X173387857Y-71913976D01*
X173387857Y-71913976D02*
X173483095Y-71866357D01*
X173483095Y-71866357D02*
X173625952Y-71866357D01*
X173625952Y-71866357D02*
X173721190Y-71913976D01*
X173721190Y-71913976D02*
X173768809Y-71961595D01*
X173768809Y-71961595D02*
X173816428Y-72056833D01*
X173816428Y-72056833D02*
X173816428Y-72437785D01*
X173387857Y-71485404D02*
X173340238Y-71437785D01*
X173340238Y-71437785D02*
X173292619Y-71342547D01*
X173292619Y-71342547D02*
X173292619Y-71104452D01*
X173292619Y-71104452D02*
X173340238Y-71009214D01*
X173340238Y-71009214D02*
X173387857Y-70961595D01*
X173387857Y-70961595D02*
X173483095Y-70913976D01*
X173483095Y-70913976D02*
X173578333Y-70913976D01*
X173578333Y-70913976D02*
X173721190Y-70961595D01*
X173721190Y-70961595D02*
X174292619Y-71533023D01*
X174292619Y-71533023D02*
X174292619Y-70913976D01*
X173625952Y-70056833D02*
X174292619Y-70056833D01*
X173245000Y-70294928D02*
X173959285Y-70533023D01*
X173959285Y-70533023D02*
X173959285Y-69913976D01*
%TO.C,R3*%
X117716619Y-153432166D02*
X117240428Y-153765499D01*
X117716619Y-154003594D02*
X116716619Y-154003594D01*
X116716619Y-154003594D02*
X116716619Y-153622642D01*
X116716619Y-153622642D02*
X116764238Y-153527404D01*
X116764238Y-153527404D02*
X116811857Y-153479785D01*
X116811857Y-153479785D02*
X116907095Y-153432166D01*
X116907095Y-153432166D02*
X117049952Y-153432166D01*
X117049952Y-153432166D02*
X117145190Y-153479785D01*
X117145190Y-153479785D02*
X117192809Y-153527404D01*
X117192809Y-153527404D02*
X117240428Y-153622642D01*
X117240428Y-153622642D02*
X117240428Y-154003594D01*
X116716619Y-153098832D02*
X116716619Y-152479785D01*
X116716619Y-152479785D02*
X117097571Y-152813118D01*
X117097571Y-152813118D02*
X117097571Y-152670261D01*
X117097571Y-152670261D02*
X117145190Y-152575023D01*
X117145190Y-152575023D02*
X117192809Y-152527404D01*
X117192809Y-152527404D02*
X117288047Y-152479785D01*
X117288047Y-152479785D02*
X117526142Y-152479785D01*
X117526142Y-152479785D02*
X117621380Y-152527404D01*
X117621380Y-152527404D02*
X117669000Y-152575023D01*
X117669000Y-152575023D02*
X117716619Y-152670261D01*
X117716619Y-152670261D02*
X117716619Y-152955975D01*
X117716619Y-152955975D02*
X117669000Y-153051213D01*
X117669000Y-153051213D02*
X117621380Y-153098832D01*
%TO.C,SW5*%
X109739000Y-51677332D02*
X109786619Y-51534475D01*
X109786619Y-51534475D02*
X109786619Y-51296380D01*
X109786619Y-51296380D02*
X109739000Y-51201142D01*
X109739000Y-51201142D02*
X109691380Y-51153523D01*
X109691380Y-51153523D02*
X109596142Y-51105904D01*
X109596142Y-51105904D02*
X109500904Y-51105904D01*
X109500904Y-51105904D02*
X109405666Y-51153523D01*
X109405666Y-51153523D02*
X109358047Y-51201142D01*
X109358047Y-51201142D02*
X109310428Y-51296380D01*
X109310428Y-51296380D02*
X109262809Y-51486856D01*
X109262809Y-51486856D02*
X109215190Y-51582094D01*
X109215190Y-51582094D02*
X109167571Y-51629713D01*
X109167571Y-51629713D02*
X109072333Y-51677332D01*
X109072333Y-51677332D02*
X108977095Y-51677332D01*
X108977095Y-51677332D02*
X108881857Y-51629713D01*
X108881857Y-51629713D02*
X108834238Y-51582094D01*
X108834238Y-51582094D02*
X108786619Y-51486856D01*
X108786619Y-51486856D02*
X108786619Y-51248761D01*
X108786619Y-51248761D02*
X108834238Y-51105904D01*
X108786619Y-50772570D02*
X109786619Y-50534475D01*
X109786619Y-50534475D02*
X109072333Y-50343999D01*
X109072333Y-50343999D02*
X109786619Y-50153523D01*
X109786619Y-50153523D02*
X108786619Y-49915428D01*
X108786619Y-49058285D02*
X108786619Y-49534475D01*
X108786619Y-49534475D02*
X109262809Y-49582094D01*
X109262809Y-49582094D02*
X109215190Y-49534475D01*
X109215190Y-49534475D02*
X109167571Y-49439237D01*
X109167571Y-49439237D02*
X109167571Y-49201142D01*
X109167571Y-49201142D02*
X109215190Y-49105904D01*
X109215190Y-49105904D02*
X109262809Y-49058285D01*
X109262809Y-49058285D02*
X109358047Y-49010666D01*
X109358047Y-49010666D02*
X109596142Y-49010666D01*
X109596142Y-49010666D02*
X109691380Y-49058285D01*
X109691380Y-49058285D02*
X109739000Y-49105904D01*
X109739000Y-49105904D02*
X109786619Y-49201142D01*
X109786619Y-49201142D02*
X109786619Y-49439237D01*
X109786619Y-49439237D02*
X109739000Y-49534475D01*
X109739000Y-49534475D02*
X109691380Y-49582094D01*
%TO.C,R5*%
X121423119Y-71390166D02*
X120946928Y-71723499D01*
X121423119Y-71961594D02*
X120423119Y-71961594D01*
X120423119Y-71961594D02*
X120423119Y-71580642D01*
X120423119Y-71580642D02*
X120470738Y-71485404D01*
X120470738Y-71485404D02*
X120518357Y-71437785D01*
X120518357Y-71437785D02*
X120613595Y-71390166D01*
X120613595Y-71390166D02*
X120756452Y-71390166D01*
X120756452Y-71390166D02*
X120851690Y-71437785D01*
X120851690Y-71437785D02*
X120899309Y-71485404D01*
X120899309Y-71485404D02*
X120946928Y-71580642D01*
X120946928Y-71580642D02*
X120946928Y-71961594D01*
X120423119Y-70485404D02*
X120423119Y-70961594D01*
X120423119Y-70961594D02*
X120899309Y-71009213D01*
X120899309Y-71009213D02*
X120851690Y-70961594D01*
X120851690Y-70961594D02*
X120804071Y-70866356D01*
X120804071Y-70866356D02*
X120804071Y-70628261D01*
X120804071Y-70628261D02*
X120851690Y-70533023D01*
X120851690Y-70533023D02*
X120899309Y-70485404D01*
X120899309Y-70485404D02*
X120994547Y-70437785D01*
X120994547Y-70437785D02*
X121232642Y-70437785D01*
X121232642Y-70437785D02*
X121327880Y-70485404D01*
X121327880Y-70485404D02*
X121375500Y-70533023D01*
X121375500Y-70533023D02*
X121423119Y-70628261D01*
X121423119Y-70628261D02*
X121423119Y-70866356D01*
X121423119Y-70866356D02*
X121375500Y-70961594D01*
X121375500Y-70961594D02*
X121327880Y-71009213D01*
%TO.C,SW12*%
X73671000Y-132671523D02*
X73718619Y-132528666D01*
X73718619Y-132528666D02*
X73718619Y-132290571D01*
X73718619Y-132290571D02*
X73671000Y-132195333D01*
X73671000Y-132195333D02*
X73623380Y-132147714D01*
X73623380Y-132147714D02*
X73528142Y-132100095D01*
X73528142Y-132100095D02*
X73432904Y-132100095D01*
X73432904Y-132100095D02*
X73337666Y-132147714D01*
X73337666Y-132147714D02*
X73290047Y-132195333D01*
X73290047Y-132195333D02*
X73242428Y-132290571D01*
X73242428Y-132290571D02*
X73194809Y-132481047D01*
X73194809Y-132481047D02*
X73147190Y-132576285D01*
X73147190Y-132576285D02*
X73099571Y-132623904D01*
X73099571Y-132623904D02*
X73004333Y-132671523D01*
X73004333Y-132671523D02*
X72909095Y-132671523D01*
X72909095Y-132671523D02*
X72813857Y-132623904D01*
X72813857Y-132623904D02*
X72766238Y-132576285D01*
X72766238Y-132576285D02*
X72718619Y-132481047D01*
X72718619Y-132481047D02*
X72718619Y-132242952D01*
X72718619Y-132242952D02*
X72766238Y-132100095D01*
X72718619Y-131766761D02*
X73718619Y-131528666D01*
X73718619Y-131528666D02*
X73004333Y-131338190D01*
X73004333Y-131338190D02*
X73718619Y-131147714D01*
X73718619Y-131147714D02*
X72718619Y-130909619D01*
X73718619Y-130004857D02*
X73718619Y-130576285D01*
X73718619Y-130290571D02*
X72718619Y-130290571D01*
X72718619Y-130290571D02*
X72861476Y-130385809D01*
X72861476Y-130385809D02*
X72956714Y-130481047D01*
X72956714Y-130481047D02*
X73004333Y-130576285D01*
X72813857Y-129623904D02*
X72766238Y-129576285D01*
X72766238Y-129576285D02*
X72718619Y-129481047D01*
X72718619Y-129481047D02*
X72718619Y-129242952D01*
X72718619Y-129242952D02*
X72766238Y-129147714D01*
X72766238Y-129147714D02*
X72813857Y-129100095D01*
X72813857Y-129100095D02*
X72909095Y-129052476D01*
X72909095Y-129052476D02*
X73004333Y-129052476D01*
X73004333Y-129052476D02*
X73147190Y-129100095D01*
X73147190Y-129100095D02*
X73718619Y-129671523D01*
X73718619Y-129671523D02*
X73718619Y-129052476D01*
%TO.C,R7*%
X64818619Y-71390166D02*
X64342428Y-71723499D01*
X64818619Y-71961594D02*
X63818619Y-71961594D01*
X63818619Y-71961594D02*
X63818619Y-71580642D01*
X63818619Y-71580642D02*
X63866238Y-71485404D01*
X63866238Y-71485404D02*
X63913857Y-71437785D01*
X63913857Y-71437785D02*
X64009095Y-71390166D01*
X64009095Y-71390166D02*
X64151952Y-71390166D01*
X64151952Y-71390166D02*
X64247190Y-71437785D01*
X64247190Y-71437785D02*
X64294809Y-71485404D01*
X64294809Y-71485404D02*
X64342428Y-71580642D01*
X64342428Y-71580642D02*
X64342428Y-71961594D01*
X63818619Y-71056832D02*
X63818619Y-70390166D01*
X63818619Y-70390166D02*
X64818619Y-70818737D01*
%TO.C,J1*%
X43504619Y-28527333D02*
X44218904Y-28527333D01*
X44218904Y-28527333D02*
X44361761Y-28574952D01*
X44361761Y-28574952D02*
X44457000Y-28670190D01*
X44457000Y-28670190D02*
X44504619Y-28813047D01*
X44504619Y-28813047D02*
X44504619Y-28908285D01*
X44504619Y-27527333D02*
X44504619Y-28098761D01*
X44504619Y-27813047D02*
X43504619Y-27813047D01*
X43504619Y-27813047D02*
X43647476Y-27908285D01*
X43647476Y-27908285D02*
X43742714Y-28003523D01*
X43742714Y-28003523D02*
X43790333Y-28098761D01*
%TO.C,SW23*%
X160467000Y-132671523D02*
X160514619Y-132528666D01*
X160514619Y-132528666D02*
X160514619Y-132290571D01*
X160514619Y-132290571D02*
X160467000Y-132195333D01*
X160467000Y-132195333D02*
X160419380Y-132147714D01*
X160419380Y-132147714D02*
X160324142Y-132100095D01*
X160324142Y-132100095D02*
X160228904Y-132100095D01*
X160228904Y-132100095D02*
X160133666Y-132147714D01*
X160133666Y-132147714D02*
X160086047Y-132195333D01*
X160086047Y-132195333D02*
X160038428Y-132290571D01*
X160038428Y-132290571D02*
X159990809Y-132481047D01*
X159990809Y-132481047D02*
X159943190Y-132576285D01*
X159943190Y-132576285D02*
X159895571Y-132623904D01*
X159895571Y-132623904D02*
X159800333Y-132671523D01*
X159800333Y-132671523D02*
X159705095Y-132671523D01*
X159705095Y-132671523D02*
X159609857Y-132623904D01*
X159609857Y-132623904D02*
X159562238Y-132576285D01*
X159562238Y-132576285D02*
X159514619Y-132481047D01*
X159514619Y-132481047D02*
X159514619Y-132242952D01*
X159514619Y-132242952D02*
X159562238Y-132100095D01*
X159514619Y-131766761D02*
X160514619Y-131528666D01*
X160514619Y-131528666D02*
X159800333Y-131338190D01*
X159800333Y-131338190D02*
X160514619Y-131147714D01*
X160514619Y-131147714D02*
X159514619Y-130909619D01*
X159609857Y-130576285D02*
X159562238Y-130528666D01*
X159562238Y-130528666D02*
X159514619Y-130433428D01*
X159514619Y-130433428D02*
X159514619Y-130195333D01*
X159514619Y-130195333D02*
X159562238Y-130100095D01*
X159562238Y-130100095D02*
X159609857Y-130052476D01*
X159609857Y-130052476D02*
X159705095Y-130004857D01*
X159705095Y-130004857D02*
X159800333Y-130004857D01*
X159800333Y-130004857D02*
X159943190Y-130052476D01*
X159943190Y-130052476D02*
X160514619Y-130623904D01*
X160514619Y-130623904D02*
X160514619Y-130004857D01*
X159514619Y-129671523D02*
X159514619Y-129052476D01*
X159514619Y-129052476D02*
X159895571Y-129385809D01*
X159895571Y-129385809D02*
X159895571Y-129242952D01*
X159895571Y-129242952D02*
X159943190Y-129147714D01*
X159943190Y-129147714D02*
X159990809Y-129100095D01*
X159990809Y-129100095D02*
X160086047Y-129052476D01*
X160086047Y-129052476D02*
X160324142Y-129052476D01*
X160324142Y-129052476D02*
X160419380Y-129100095D01*
X160419380Y-129100095D02*
X160467000Y-129147714D01*
X160467000Y-129147714D02*
X160514619Y-129242952D01*
X160514619Y-129242952D02*
X160514619Y-129528666D01*
X160514619Y-129528666D02*
X160467000Y-129623904D01*
X160467000Y-129623904D02*
X160419380Y-129671523D01*
%TO.C,R21*%
X197119642Y-54912619D02*
X196786309Y-54436428D01*
X196548214Y-54912619D02*
X196548214Y-53912619D01*
X196548214Y-53912619D02*
X196929166Y-53912619D01*
X196929166Y-53912619D02*
X197024404Y-53960238D01*
X197024404Y-53960238D02*
X197072023Y-54007857D01*
X197072023Y-54007857D02*
X197119642Y-54103095D01*
X197119642Y-54103095D02*
X197119642Y-54245952D01*
X197119642Y-54245952D02*
X197072023Y-54341190D01*
X197072023Y-54341190D02*
X197024404Y-54388809D01*
X197024404Y-54388809D02*
X196929166Y-54436428D01*
X196929166Y-54436428D02*
X196548214Y-54436428D01*
X197500595Y-54007857D02*
X197548214Y-53960238D01*
X197548214Y-53960238D02*
X197643452Y-53912619D01*
X197643452Y-53912619D02*
X197881547Y-53912619D01*
X197881547Y-53912619D02*
X197976785Y-53960238D01*
X197976785Y-53960238D02*
X198024404Y-54007857D01*
X198024404Y-54007857D02*
X198072023Y-54103095D01*
X198072023Y-54103095D02*
X198072023Y-54198333D01*
X198072023Y-54198333D02*
X198024404Y-54341190D01*
X198024404Y-54341190D02*
X197452976Y-54912619D01*
X197452976Y-54912619D02*
X198072023Y-54912619D01*
X199024404Y-54912619D02*
X198452976Y-54912619D01*
X198738690Y-54912619D02*
X198738690Y-53912619D01*
X198738690Y-53912619D02*
X198643452Y-54055476D01*
X198643452Y-54055476D02*
X198548214Y-54150714D01*
X198548214Y-54150714D02*
X198452976Y-54198333D01*
%TO.C,SW13*%
X213807000Y-132925523D02*
X213854619Y-132782666D01*
X213854619Y-132782666D02*
X213854619Y-132544571D01*
X213854619Y-132544571D02*
X213807000Y-132449333D01*
X213807000Y-132449333D02*
X213759380Y-132401714D01*
X213759380Y-132401714D02*
X213664142Y-132354095D01*
X213664142Y-132354095D02*
X213568904Y-132354095D01*
X213568904Y-132354095D02*
X213473666Y-132401714D01*
X213473666Y-132401714D02*
X213426047Y-132449333D01*
X213426047Y-132449333D02*
X213378428Y-132544571D01*
X213378428Y-132544571D02*
X213330809Y-132735047D01*
X213330809Y-132735047D02*
X213283190Y-132830285D01*
X213283190Y-132830285D02*
X213235571Y-132877904D01*
X213235571Y-132877904D02*
X213140333Y-132925523D01*
X213140333Y-132925523D02*
X213045095Y-132925523D01*
X213045095Y-132925523D02*
X212949857Y-132877904D01*
X212949857Y-132877904D02*
X212902238Y-132830285D01*
X212902238Y-132830285D02*
X212854619Y-132735047D01*
X212854619Y-132735047D02*
X212854619Y-132496952D01*
X212854619Y-132496952D02*
X212902238Y-132354095D01*
X212854619Y-132020761D02*
X213854619Y-131782666D01*
X213854619Y-131782666D02*
X213140333Y-131592190D01*
X213140333Y-131592190D02*
X213854619Y-131401714D01*
X213854619Y-131401714D02*
X212854619Y-131163619D01*
X213854619Y-130258857D02*
X213854619Y-130830285D01*
X213854619Y-130544571D02*
X212854619Y-130544571D01*
X212854619Y-130544571D02*
X212997476Y-130639809D01*
X212997476Y-130639809D02*
X213092714Y-130735047D01*
X213092714Y-130735047D02*
X213140333Y-130830285D01*
X212854619Y-129925523D02*
X212854619Y-129306476D01*
X212854619Y-129306476D02*
X213235571Y-129639809D01*
X213235571Y-129639809D02*
X213235571Y-129496952D01*
X213235571Y-129496952D02*
X213283190Y-129401714D01*
X213283190Y-129401714D02*
X213330809Y-129354095D01*
X213330809Y-129354095D02*
X213426047Y-129306476D01*
X213426047Y-129306476D02*
X213664142Y-129306476D01*
X213664142Y-129306476D02*
X213759380Y-129354095D01*
X213759380Y-129354095D02*
X213807000Y-129401714D01*
X213807000Y-129401714D02*
X213854619Y-129496952D01*
X213854619Y-129496952D02*
X213854619Y-129782666D01*
X213854619Y-129782666D02*
X213807000Y-129877904D01*
X213807000Y-129877904D02*
X213759380Y-129925523D01*
%TO.C,R27*%
X170482619Y-153908357D02*
X170006428Y-154241690D01*
X170482619Y-154479785D02*
X169482619Y-154479785D01*
X169482619Y-154479785D02*
X169482619Y-154098833D01*
X169482619Y-154098833D02*
X169530238Y-154003595D01*
X169530238Y-154003595D02*
X169577857Y-153955976D01*
X169577857Y-153955976D02*
X169673095Y-153908357D01*
X169673095Y-153908357D02*
X169815952Y-153908357D01*
X169815952Y-153908357D02*
X169911190Y-153955976D01*
X169911190Y-153955976D02*
X169958809Y-154003595D01*
X169958809Y-154003595D02*
X170006428Y-154098833D01*
X170006428Y-154098833D02*
X170006428Y-154479785D01*
X169577857Y-153527404D02*
X169530238Y-153479785D01*
X169530238Y-153479785D02*
X169482619Y-153384547D01*
X169482619Y-153384547D02*
X169482619Y-153146452D01*
X169482619Y-153146452D02*
X169530238Y-153051214D01*
X169530238Y-153051214D02*
X169577857Y-153003595D01*
X169577857Y-153003595D02*
X169673095Y-152955976D01*
X169673095Y-152955976D02*
X169768333Y-152955976D01*
X169768333Y-152955976D02*
X169911190Y-153003595D01*
X169911190Y-153003595D02*
X170482619Y-153575023D01*
X170482619Y-153575023D02*
X170482619Y-152955976D01*
X169482619Y-152622642D02*
X169482619Y-151955976D01*
X169482619Y-151955976D02*
X170482619Y-152384547D01*
%TO.C,SW10*%
X73671000Y-93809523D02*
X73718619Y-93666666D01*
X73718619Y-93666666D02*
X73718619Y-93428571D01*
X73718619Y-93428571D02*
X73671000Y-93333333D01*
X73671000Y-93333333D02*
X73623380Y-93285714D01*
X73623380Y-93285714D02*
X73528142Y-93238095D01*
X73528142Y-93238095D02*
X73432904Y-93238095D01*
X73432904Y-93238095D02*
X73337666Y-93285714D01*
X73337666Y-93285714D02*
X73290047Y-93333333D01*
X73290047Y-93333333D02*
X73242428Y-93428571D01*
X73242428Y-93428571D02*
X73194809Y-93619047D01*
X73194809Y-93619047D02*
X73147190Y-93714285D01*
X73147190Y-93714285D02*
X73099571Y-93761904D01*
X73099571Y-93761904D02*
X73004333Y-93809523D01*
X73004333Y-93809523D02*
X72909095Y-93809523D01*
X72909095Y-93809523D02*
X72813857Y-93761904D01*
X72813857Y-93761904D02*
X72766238Y-93714285D01*
X72766238Y-93714285D02*
X72718619Y-93619047D01*
X72718619Y-93619047D02*
X72718619Y-93380952D01*
X72718619Y-93380952D02*
X72766238Y-93238095D01*
X72718619Y-92904761D02*
X73718619Y-92666666D01*
X73718619Y-92666666D02*
X73004333Y-92476190D01*
X73004333Y-92476190D02*
X73718619Y-92285714D01*
X73718619Y-92285714D02*
X72718619Y-92047619D01*
X73718619Y-91142857D02*
X73718619Y-91714285D01*
X73718619Y-91428571D02*
X72718619Y-91428571D01*
X72718619Y-91428571D02*
X72861476Y-91523809D01*
X72861476Y-91523809D02*
X72956714Y-91619047D01*
X72956714Y-91619047D02*
X73004333Y-91714285D01*
X72718619Y-90523809D02*
X72718619Y-90428571D01*
X72718619Y-90428571D02*
X72766238Y-90333333D01*
X72766238Y-90333333D02*
X72813857Y-90285714D01*
X72813857Y-90285714D02*
X72909095Y-90238095D01*
X72909095Y-90238095D02*
X73099571Y-90190476D01*
X73099571Y-90190476D02*
X73337666Y-90190476D01*
X73337666Y-90190476D02*
X73528142Y-90238095D01*
X73528142Y-90238095D02*
X73623380Y-90285714D01*
X73623380Y-90285714D02*
X73671000Y-90333333D01*
X73671000Y-90333333D02*
X73718619Y-90428571D01*
X73718619Y-90428571D02*
X73718619Y-90523809D01*
X73718619Y-90523809D02*
X73671000Y-90619047D01*
X73671000Y-90619047D02*
X73623380Y-90666666D01*
X73623380Y-90666666D02*
X73528142Y-90714285D01*
X73528142Y-90714285D02*
X73337666Y-90761904D01*
X73337666Y-90761904D02*
X73099571Y-90761904D01*
X73099571Y-90761904D02*
X72909095Y-90714285D01*
X72909095Y-90714285D02*
X72813857Y-90666666D01*
X72813857Y-90666666D02*
X72766238Y-90619047D01*
X72766238Y-90619047D02*
X72718619Y-90523809D01*
%TO.C,SW4*%
X127011000Y-93587332D02*
X127058619Y-93444475D01*
X127058619Y-93444475D02*
X127058619Y-93206380D01*
X127058619Y-93206380D02*
X127011000Y-93111142D01*
X127011000Y-93111142D02*
X126963380Y-93063523D01*
X126963380Y-93063523D02*
X126868142Y-93015904D01*
X126868142Y-93015904D02*
X126772904Y-93015904D01*
X126772904Y-93015904D02*
X126677666Y-93063523D01*
X126677666Y-93063523D02*
X126630047Y-93111142D01*
X126630047Y-93111142D02*
X126582428Y-93206380D01*
X126582428Y-93206380D02*
X126534809Y-93396856D01*
X126534809Y-93396856D02*
X126487190Y-93492094D01*
X126487190Y-93492094D02*
X126439571Y-93539713D01*
X126439571Y-93539713D02*
X126344333Y-93587332D01*
X126344333Y-93587332D02*
X126249095Y-93587332D01*
X126249095Y-93587332D02*
X126153857Y-93539713D01*
X126153857Y-93539713D02*
X126106238Y-93492094D01*
X126106238Y-93492094D02*
X126058619Y-93396856D01*
X126058619Y-93396856D02*
X126058619Y-93158761D01*
X126058619Y-93158761D02*
X126106238Y-93015904D01*
X126058619Y-92682570D02*
X127058619Y-92444475D01*
X127058619Y-92444475D02*
X126344333Y-92253999D01*
X126344333Y-92253999D02*
X127058619Y-92063523D01*
X127058619Y-92063523D02*
X126058619Y-91825428D01*
X126391952Y-91015904D02*
X127058619Y-91015904D01*
X126011000Y-91253999D02*
X126725285Y-91492094D01*
X126725285Y-91492094D02*
X126725285Y-90873047D01*
%TO.C,R8*%
X64818619Y-111672666D02*
X64342428Y-112005999D01*
X64818619Y-112244094D02*
X63818619Y-112244094D01*
X63818619Y-112244094D02*
X63818619Y-111863142D01*
X63818619Y-111863142D02*
X63866238Y-111767904D01*
X63866238Y-111767904D02*
X63913857Y-111720285D01*
X63913857Y-111720285D02*
X64009095Y-111672666D01*
X64009095Y-111672666D02*
X64151952Y-111672666D01*
X64151952Y-111672666D02*
X64247190Y-111720285D01*
X64247190Y-111720285D02*
X64294809Y-111767904D01*
X64294809Y-111767904D02*
X64342428Y-111863142D01*
X64342428Y-111863142D02*
X64342428Y-112244094D01*
X64247190Y-111101237D02*
X64199571Y-111196475D01*
X64199571Y-111196475D02*
X64151952Y-111244094D01*
X64151952Y-111244094D02*
X64056714Y-111291713D01*
X64056714Y-111291713D02*
X64009095Y-111291713D01*
X64009095Y-111291713D02*
X63913857Y-111244094D01*
X63913857Y-111244094D02*
X63866238Y-111196475D01*
X63866238Y-111196475D02*
X63818619Y-111101237D01*
X63818619Y-111101237D02*
X63818619Y-110910761D01*
X63818619Y-110910761D02*
X63866238Y-110815523D01*
X63866238Y-110815523D02*
X63913857Y-110767904D01*
X63913857Y-110767904D02*
X64009095Y-110720285D01*
X64009095Y-110720285D02*
X64056714Y-110720285D01*
X64056714Y-110720285D02*
X64151952Y-110767904D01*
X64151952Y-110767904D02*
X64199571Y-110815523D01*
X64199571Y-110815523D02*
X64247190Y-110910761D01*
X64247190Y-110910761D02*
X64247190Y-111101237D01*
X64247190Y-111101237D02*
X64294809Y-111196475D01*
X64294809Y-111196475D02*
X64342428Y-111244094D01*
X64342428Y-111244094D02*
X64437666Y-111291713D01*
X64437666Y-111291713D02*
X64628142Y-111291713D01*
X64628142Y-111291713D02*
X64723380Y-111244094D01*
X64723380Y-111244094D02*
X64771000Y-111196475D01*
X64771000Y-111196475D02*
X64818619Y-111101237D01*
X64818619Y-111101237D02*
X64818619Y-110910761D01*
X64818619Y-110910761D02*
X64771000Y-110815523D01*
X64771000Y-110815523D02*
X64723380Y-110767904D01*
X64723380Y-110767904D02*
X64628142Y-110720285D01*
X64628142Y-110720285D02*
X64437666Y-110720285D01*
X64437666Y-110720285D02*
X64342428Y-110767904D01*
X64342428Y-110767904D02*
X64294809Y-110815523D01*
X64294809Y-110815523D02*
X64247190Y-110910761D01*
%TO.C,R19*%
X243954619Y-71866357D02*
X243478428Y-72199690D01*
X243954619Y-72437785D02*
X242954619Y-72437785D01*
X242954619Y-72437785D02*
X242954619Y-72056833D01*
X242954619Y-72056833D02*
X243002238Y-71961595D01*
X243002238Y-71961595D02*
X243049857Y-71913976D01*
X243049857Y-71913976D02*
X243145095Y-71866357D01*
X243145095Y-71866357D02*
X243287952Y-71866357D01*
X243287952Y-71866357D02*
X243383190Y-71913976D01*
X243383190Y-71913976D02*
X243430809Y-71961595D01*
X243430809Y-71961595D02*
X243478428Y-72056833D01*
X243478428Y-72056833D02*
X243478428Y-72437785D01*
X243954619Y-70913976D02*
X243954619Y-71485404D01*
X243954619Y-71199690D02*
X242954619Y-71199690D01*
X242954619Y-71199690D02*
X243097476Y-71294928D01*
X243097476Y-71294928D02*
X243192714Y-71390166D01*
X243192714Y-71390166D02*
X243240333Y-71485404D01*
X243954619Y-70437785D02*
X243954619Y-70247309D01*
X243954619Y-70247309D02*
X243907000Y-70152071D01*
X243907000Y-70152071D02*
X243859380Y-70104452D01*
X243859380Y-70104452D02*
X243716523Y-70009214D01*
X243716523Y-70009214D02*
X243526047Y-69961595D01*
X243526047Y-69961595D02*
X243145095Y-69961595D01*
X243145095Y-69961595D02*
X243049857Y-70009214D01*
X243049857Y-70009214D02*
X243002238Y-70056833D01*
X243002238Y-70056833D02*
X242954619Y-70152071D01*
X242954619Y-70152071D02*
X242954619Y-70342547D01*
X242954619Y-70342547D02*
X243002238Y-70437785D01*
X243002238Y-70437785D02*
X243049857Y-70485404D01*
X243049857Y-70485404D02*
X243145095Y-70533023D01*
X243145095Y-70533023D02*
X243383190Y-70533023D01*
X243383190Y-70533023D02*
X243478428Y-70485404D01*
X243478428Y-70485404D02*
X243526047Y-70437785D01*
X243526047Y-70437785D02*
X243573666Y-70342547D01*
X243573666Y-70342547D02*
X243573666Y-70152071D01*
X243573666Y-70152071D02*
X243526047Y-70056833D01*
X243526047Y-70056833D02*
X243478428Y-70009214D01*
X243478428Y-70009214D02*
X243383190Y-69961595D01*
%TO.C,SW11*%
X55891000Y-132671523D02*
X55938619Y-132528666D01*
X55938619Y-132528666D02*
X55938619Y-132290571D01*
X55938619Y-132290571D02*
X55891000Y-132195333D01*
X55891000Y-132195333D02*
X55843380Y-132147714D01*
X55843380Y-132147714D02*
X55748142Y-132100095D01*
X55748142Y-132100095D02*
X55652904Y-132100095D01*
X55652904Y-132100095D02*
X55557666Y-132147714D01*
X55557666Y-132147714D02*
X55510047Y-132195333D01*
X55510047Y-132195333D02*
X55462428Y-132290571D01*
X55462428Y-132290571D02*
X55414809Y-132481047D01*
X55414809Y-132481047D02*
X55367190Y-132576285D01*
X55367190Y-132576285D02*
X55319571Y-132623904D01*
X55319571Y-132623904D02*
X55224333Y-132671523D01*
X55224333Y-132671523D02*
X55129095Y-132671523D01*
X55129095Y-132671523D02*
X55033857Y-132623904D01*
X55033857Y-132623904D02*
X54986238Y-132576285D01*
X54986238Y-132576285D02*
X54938619Y-132481047D01*
X54938619Y-132481047D02*
X54938619Y-132242952D01*
X54938619Y-132242952D02*
X54986238Y-132100095D01*
X54938619Y-131766761D02*
X55938619Y-131528666D01*
X55938619Y-131528666D02*
X55224333Y-131338190D01*
X55224333Y-131338190D02*
X55938619Y-131147714D01*
X55938619Y-131147714D02*
X54938619Y-130909619D01*
X55938619Y-130004857D02*
X55938619Y-130576285D01*
X55938619Y-130290571D02*
X54938619Y-130290571D01*
X54938619Y-130290571D02*
X55081476Y-130385809D01*
X55081476Y-130385809D02*
X55176714Y-130481047D01*
X55176714Y-130481047D02*
X55224333Y-130576285D01*
X55938619Y-129052476D02*
X55938619Y-129623904D01*
X55938619Y-129338190D02*
X54938619Y-129338190D01*
X54938619Y-129338190D02*
X55081476Y-129433428D01*
X55081476Y-129433428D02*
X55176714Y-129528666D01*
X55176714Y-129528666D02*
X55224333Y-129623904D01*
%TO.C,R28*%
X189024619Y-153908357D02*
X188548428Y-154241690D01*
X189024619Y-154479785D02*
X188024619Y-154479785D01*
X188024619Y-154479785D02*
X188024619Y-154098833D01*
X188024619Y-154098833D02*
X188072238Y-154003595D01*
X188072238Y-154003595D02*
X188119857Y-153955976D01*
X188119857Y-153955976D02*
X188215095Y-153908357D01*
X188215095Y-153908357D02*
X188357952Y-153908357D01*
X188357952Y-153908357D02*
X188453190Y-153955976D01*
X188453190Y-153955976D02*
X188500809Y-154003595D01*
X188500809Y-154003595D02*
X188548428Y-154098833D01*
X188548428Y-154098833D02*
X188548428Y-154479785D01*
X188119857Y-153527404D02*
X188072238Y-153479785D01*
X188072238Y-153479785D02*
X188024619Y-153384547D01*
X188024619Y-153384547D02*
X188024619Y-153146452D01*
X188024619Y-153146452D02*
X188072238Y-153051214D01*
X188072238Y-153051214D02*
X188119857Y-153003595D01*
X188119857Y-153003595D02*
X188215095Y-152955976D01*
X188215095Y-152955976D02*
X188310333Y-152955976D01*
X188310333Y-152955976D02*
X188453190Y-153003595D01*
X188453190Y-153003595D02*
X189024619Y-153575023D01*
X189024619Y-153575023D02*
X189024619Y-152955976D01*
X188453190Y-152384547D02*
X188405571Y-152479785D01*
X188405571Y-152479785D02*
X188357952Y-152527404D01*
X188357952Y-152527404D02*
X188262714Y-152575023D01*
X188262714Y-152575023D02*
X188215095Y-152575023D01*
X188215095Y-152575023D02*
X188119857Y-152527404D01*
X188119857Y-152527404D02*
X188072238Y-152479785D01*
X188072238Y-152479785D02*
X188024619Y-152384547D01*
X188024619Y-152384547D02*
X188024619Y-152194071D01*
X188024619Y-152194071D02*
X188072238Y-152098833D01*
X188072238Y-152098833D02*
X188119857Y-152051214D01*
X188119857Y-152051214D02*
X188215095Y-152003595D01*
X188215095Y-152003595D02*
X188262714Y-152003595D01*
X188262714Y-152003595D02*
X188357952Y-152051214D01*
X188357952Y-152051214D02*
X188405571Y-152098833D01*
X188405571Y-152098833D02*
X188453190Y-152194071D01*
X188453190Y-152194071D02*
X188453190Y-152384547D01*
X188453190Y-152384547D02*
X188500809Y-152479785D01*
X188500809Y-152479785D02*
X188548428Y-152527404D01*
X188548428Y-152527404D02*
X188643666Y-152575023D01*
X188643666Y-152575023D02*
X188834142Y-152575023D01*
X188834142Y-152575023D02*
X188929380Y-152527404D01*
X188929380Y-152527404D02*
X188977000Y-152479785D01*
X188977000Y-152479785D02*
X189024619Y-152384547D01*
X189024619Y-152384547D02*
X189024619Y-152194071D01*
X189024619Y-152194071D02*
X188977000Y-152098833D01*
X188977000Y-152098833D02*
X188929380Y-152051214D01*
X188929380Y-152051214D02*
X188834142Y-152003595D01*
X188834142Y-152003595D02*
X188643666Y-152003595D01*
X188643666Y-152003595D02*
X188548428Y-152051214D01*
X188548428Y-152051214D02*
X188500809Y-152098833D01*
X188500809Y-152098833D02*
X188453190Y-152194071D01*
%TO.C,SW18*%
X231405000Y-52153523D02*
X231452619Y-52010666D01*
X231452619Y-52010666D02*
X231452619Y-51772571D01*
X231452619Y-51772571D02*
X231405000Y-51677333D01*
X231405000Y-51677333D02*
X231357380Y-51629714D01*
X231357380Y-51629714D02*
X231262142Y-51582095D01*
X231262142Y-51582095D02*
X231166904Y-51582095D01*
X231166904Y-51582095D02*
X231071666Y-51629714D01*
X231071666Y-51629714D02*
X231024047Y-51677333D01*
X231024047Y-51677333D02*
X230976428Y-51772571D01*
X230976428Y-51772571D02*
X230928809Y-51963047D01*
X230928809Y-51963047D02*
X230881190Y-52058285D01*
X230881190Y-52058285D02*
X230833571Y-52105904D01*
X230833571Y-52105904D02*
X230738333Y-52153523D01*
X230738333Y-52153523D02*
X230643095Y-52153523D01*
X230643095Y-52153523D02*
X230547857Y-52105904D01*
X230547857Y-52105904D02*
X230500238Y-52058285D01*
X230500238Y-52058285D02*
X230452619Y-51963047D01*
X230452619Y-51963047D02*
X230452619Y-51724952D01*
X230452619Y-51724952D02*
X230500238Y-51582095D01*
X230452619Y-51248761D02*
X231452619Y-51010666D01*
X231452619Y-51010666D02*
X230738333Y-50820190D01*
X230738333Y-50820190D02*
X231452619Y-50629714D01*
X231452619Y-50629714D02*
X230452619Y-50391619D01*
X231452619Y-49486857D02*
X231452619Y-50058285D01*
X231452619Y-49772571D02*
X230452619Y-49772571D01*
X230452619Y-49772571D02*
X230595476Y-49867809D01*
X230595476Y-49867809D02*
X230690714Y-49963047D01*
X230690714Y-49963047D02*
X230738333Y-50058285D01*
X230881190Y-48915428D02*
X230833571Y-49010666D01*
X230833571Y-49010666D02*
X230785952Y-49058285D01*
X230785952Y-49058285D02*
X230690714Y-49105904D01*
X230690714Y-49105904D02*
X230643095Y-49105904D01*
X230643095Y-49105904D02*
X230547857Y-49058285D01*
X230547857Y-49058285D02*
X230500238Y-49010666D01*
X230500238Y-49010666D02*
X230452619Y-48915428D01*
X230452619Y-48915428D02*
X230452619Y-48724952D01*
X230452619Y-48724952D02*
X230500238Y-48629714D01*
X230500238Y-48629714D02*
X230547857Y-48582095D01*
X230547857Y-48582095D02*
X230643095Y-48534476D01*
X230643095Y-48534476D02*
X230690714Y-48534476D01*
X230690714Y-48534476D02*
X230785952Y-48582095D01*
X230785952Y-48582095D02*
X230833571Y-48629714D01*
X230833571Y-48629714D02*
X230881190Y-48724952D01*
X230881190Y-48724952D02*
X230881190Y-48915428D01*
X230881190Y-48915428D02*
X230928809Y-49010666D01*
X230928809Y-49010666D02*
X230976428Y-49058285D01*
X230976428Y-49058285D02*
X231071666Y-49105904D01*
X231071666Y-49105904D02*
X231262142Y-49105904D01*
X231262142Y-49105904D02*
X231357380Y-49058285D01*
X231357380Y-49058285D02*
X231405000Y-49010666D01*
X231405000Y-49010666D02*
X231452619Y-48915428D01*
X231452619Y-48915428D02*
X231452619Y-48724952D01*
X231452619Y-48724952D02*
X231405000Y-48629714D01*
X231405000Y-48629714D02*
X231357380Y-48582095D01*
X231357380Y-48582095D02*
X231262142Y-48534476D01*
X231262142Y-48534476D02*
X231071666Y-48534476D01*
X231071666Y-48534476D02*
X230976428Y-48582095D01*
X230976428Y-48582095D02*
X230928809Y-48629714D01*
X230928809Y-48629714D02*
X230881190Y-48724952D01*
%TO.C,SW3*%
X109739000Y-93587332D02*
X109786619Y-93444475D01*
X109786619Y-93444475D02*
X109786619Y-93206380D01*
X109786619Y-93206380D02*
X109739000Y-93111142D01*
X109739000Y-93111142D02*
X109691380Y-93063523D01*
X109691380Y-93063523D02*
X109596142Y-93015904D01*
X109596142Y-93015904D02*
X109500904Y-93015904D01*
X109500904Y-93015904D02*
X109405666Y-93063523D01*
X109405666Y-93063523D02*
X109358047Y-93111142D01*
X109358047Y-93111142D02*
X109310428Y-93206380D01*
X109310428Y-93206380D02*
X109262809Y-93396856D01*
X109262809Y-93396856D02*
X109215190Y-93492094D01*
X109215190Y-93492094D02*
X109167571Y-93539713D01*
X109167571Y-93539713D02*
X109072333Y-93587332D01*
X109072333Y-93587332D02*
X108977095Y-93587332D01*
X108977095Y-93587332D02*
X108881857Y-93539713D01*
X108881857Y-93539713D02*
X108834238Y-93492094D01*
X108834238Y-93492094D02*
X108786619Y-93396856D01*
X108786619Y-93396856D02*
X108786619Y-93158761D01*
X108786619Y-93158761D02*
X108834238Y-93015904D01*
X108786619Y-92682570D02*
X109786619Y-92444475D01*
X109786619Y-92444475D02*
X109072333Y-92253999D01*
X109072333Y-92253999D02*
X109786619Y-92063523D01*
X109786619Y-92063523D02*
X108786619Y-91825428D01*
X108786619Y-91539713D02*
X108786619Y-90920666D01*
X108786619Y-90920666D02*
X109167571Y-91253999D01*
X109167571Y-91253999D02*
X109167571Y-91111142D01*
X109167571Y-91111142D02*
X109215190Y-91015904D01*
X109215190Y-91015904D02*
X109262809Y-90968285D01*
X109262809Y-90968285D02*
X109358047Y-90920666D01*
X109358047Y-90920666D02*
X109596142Y-90920666D01*
X109596142Y-90920666D02*
X109691380Y-90968285D01*
X109691380Y-90968285D02*
X109739000Y-91015904D01*
X109739000Y-91015904D02*
X109786619Y-91111142D01*
X109786619Y-91111142D02*
X109786619Y-91396856D01*
X109786619Y-91396856D02*
X109739000Y-91492094D01*
X109739000Y-91492094D02*
X109691380Y-91539713D01*
D12*
%TO.C,SW19*%
X163624000Y-53590000D02*
X165124000Y-53590000D01*
X167624000Y-52340000D02*
X167624000Y-47840000D01*
X161124000Y-47840000D02*
X161124000Y-52340000D01*
X165124000Y-46590000D02*
X163624000Y-46590000D01*
%TO.C,R20*%
X228868500Y-70968776D02*
X228868500Y-71478224D01*
X227823500Y-70968776D02*
X227823500Y-71478224D01*
%TO.C,R9*%
X52309500Y-153520224D02*
X52309500Y-153010776D01*
X53354500Y-153520224D02*
X53354500Y-153010776D01*
%TO.C,R22*%
X197611276Y-59675500D02*
X198120724Y-59675500D01*
X197611276Y-60720500D02*
X198120724Y-60720500D01*
%TO.C,R10*%
X52563500Y-111864224D02*
X52563500Y-111354776D01*
X53608500Y-111864224D02*
X53608500Y-111354776D01*
%TO.C,R6*%
X91693276Y-57897500D02*
X92202724Y-57897500D01*
X91693276Y-58942500D02*
X92202724Y-58942500D01*
%TO.C,R1*%
X82027500Y-33378224D02*
X82027500Y-32868776D01*
X83072500Y-33378224D02*
X83072500Y-32868776D01*
%TO.C,SW15*%
X216964000Y-95500000D02*
X218464000Y-95500000D01*
X220964000Y-94250000D02*
X220964000Y-89750000D01*
X214464000Y-89750000D02*
X214464000Y-94250000D01*
X218464000Y-88500000D02*
X216964000Y-88500000D01*
%TO.C,SW2*%
X130024000Y-134362000D02*
X131524000Y-134362000D01*
X134024000Y-133112000D02*
X134024000Y-128612000D01*
X127524000Y-128612000D02*
X127524000Y-133112000D01*
X131524000Y-127362000D02*
X130024000Y-127362000D01*
%TO.C,R26*%
X174737500Y-111610224D02*
X174737500Y-111100776D01*
X175782500Y-111610224D02*
X175782500Y-111100776D01*
%TO.C,R25*%
X187945500Y-112165224D02*
X187945500Y-111655776D01*
X188990500Y-112165224D02*
X188990500Y-111655776D01*
%TO.C,SW24*%
X180824000Y-134362000D02*
X182324000Y-134362000D01*
X184824000Y-133112000D02*
X184824000Y-128612000D01*
X178324000Y-128612000D02*
X178324000Y-133112000D01*
X182324000Y-127362000D02*
X180824000Y-127362000D01*
%TO.C,SW21*%
X163624000Y-95754000D02*
X165124000Y-95754000D01*
X167624000Y-94504000D02*
X167624000Y-90004000D01*
X161124000Y-90004000D02*
X161124000Y-94504000D01*
X165124000Y-88754000D02*
X163624000Y-88754000D01*
%TO.C,SW22*%
X180896000Y-95754000D02*
X182396000Y-95754000D01*
X184896000Y-94504000D02*
X184896000Y-90004000D01*
X178396000Y-90004000D02*
X178396000Y-94504000D01*
X182396000Y-88754000D02*
X180896000Y-88754000D01*
%TO.C,R4*%
X119902500Y-111100776D02*
X119902500Y-111610224D01*
X118857500Y-111100776D02*
X118857500Y-111610224D01*
%TO.C,R12*%
X91693276Y-43673500D02*
X92202724Y-43673500D01*
X91693276Y-44718500D02*
X92202724Y-44718500D01*
%TO.C,R16*%
X238012500Y-153010776D02*
X238012500Y-153520224D01*
X236967500Y-153010776D02*
X236967500Y-153520224D01*
%TO.C,SW7*%
X58904000Y-53590000D02*
X60404000Y-53590000D01*
X62904000Y-52340000D02*
X62904000Y-47840000D01*
X56404000Y-47840000D02*
X56404000Y-52340000D01*
X60404000Y-46590000D02*
X58904000Y-46590000D01*
%TO.C,SW20*%
X180896000Y-53844000D02*
X182396000Y-53844000D01*
X184896000Y-52594000D02*
X184896000Y-48094000D01*
X178396000Y-48094000D02*
X178396000Y-52594000D01*
X182396000Y-46844000D02*
X180896000Y-46844000D01*
%TO.C,R15*%
X169657500Y-33124224D02*
X169657500Y-32614776D01*
X170702500Y-33124224D02*
X170702500Y-32614776D01*
%TO.C,SW9*%
X58976000Y-95500000D02*
X60476000Y-95500000D01*
X62976000Y-94250000D02*
X62976000Y-89750000D01*
X56476000Y-89750000D02*
X56476000Y-94250000D01*
X60476000Y-88500000D02*
X58976000Y-88500000D01*
%TO.C,R17*%
X242584500Y-111100776D02*
X242584500Y-111610224D01*
X241539500Y-111100776D02*
X241539500Y-111610224D01*
%TO.C,SW1*%
X112752000Y-134362000D02*
X114252000Y-134362000D01*
X116752000Y-133112000D02*
X116752000Y-128612000D01*
X110252000Y-128612000D02*
X110252000Y-133112000D01*
X114252000Y-127362000D02*
X112752000Y-127362000D01*
%TO.C,R11*%
X61453500Y-71374724D02*
X61453500Y-70865276D01*
X62498500Y-71374724D02*
X62498500Y-70865276D01*
%TO.C,R14*%
X107710500Y-111354776D02*
X107710500Y-111864224D01*
X106665500Y-111354776D02*
X106665500Y-111864224D01*
%TO.C,SW14*%
X234418000Y-134870000D02*
X235918000Y-134870000D01*
X238418000Y-133620000D02*
X238418000Y-129120000D01*
X231918000Y-129120000D02*
X231918000Y-133620000D01*
X235918000Y-127870000D02*
X234418000Y-127870000D01*
%TO.C,R13*%
X107710500Y-70714776D02*
X107710500Y-71224224D01*
X106665500Y-70714776D02*
X106665500Y-71224224D01*
%TO.C,R23*%
X187945500Y-71882724D02*
X187945500Y-71373276D01*
X188990500Y-71882724D02*
X188990500Y-71373276D01*
%TO.C,SW16*%
X234490000Y-95500000D02*
X235990000Y-95500000D01*
X238490000Y-94250000D02*
X238490000Y-89750000D01*
X231990000Y-89750000D02*
X231990000Y-94250000D01*
X235990000Y-88500000D02*
X234490000Y-88500000D01*
%TO.C,R18*%
X228868500Y-111354776D02*
X228868500Y-111864224D01*
X227823500Y-111354776D02*
X227823500Y-111864224D01*
%TO.C,SW8*%
X78184000Y-46590000D02*
X76684000Y-46590000D01*
X74184000Y-47840000D02*
X74184000Y-52340000D01*
X80684000Y-52340000D02*
X80684000Y-47840000D01*
X76684000Y-53590000D02*
X78184000Y-53590000D01*
%TO.C,SW6*%
X130096000Y-53844000D02*
X131596000Y-53844000D01*
X134096000Y-52594000D02*
X134096000Y-48094000D01*
X127596000Y-48094000D02*
X127596000Y-52594000D01*
X131596000Y-46844000D02*
X130096000Y-46844000D01*
%TO.C,SW17*%
X216964000Y-53844000D02*
X218464000Y-53844000D01*
X220964000Y-52594000D02*
X220964000Y-48094000D01*
X214464000Y-48094000D02*
X214464000Y-52594000D01*
X218464000Y-46844000D02*
X216964000Y-46844000D01*
%TO.C,R2*%
X70626500Y-32868776D02*
X70626500Y-33378224D01*
X69581500Y-32868776D02*
X69581500Y-33378224D01*
%TO.C,R24*%
X174737500Y-71478224D02*
X174737500Y-70968776D01*
X175782500Y-71478224D02*
X175782500Y-70968776D01*
%TO.C,R3*%
X116346500Y-153010776D02*
X116346500Y-153520224D01*
X115301500Y-153010776D02*
X115301500Y-153520224D01*
%TO.C,SW5*%
X112824000Y-53844000D02*
X114324000Y-53844000D01*
X116824000Y-52594000D02*
X116824000Y-48094000D01*
X110324000Y-48094000D02*
X110324000Y-52594000D01*
X114324000Y-46844000D02*
X112824000Y-46844000D01*
%TO.C,R5*%
X120053000Y-70968776D02*
X120053000Y-71478224D01*
X119008000Y-70968776D02*
X119008000Y-71478224D01*
%TO.C,SW12*%
X76756000Y-134362000D02*
X78256000Y-134362000D01*
X80756000Y-133112000D02*
X80756000Y-128612000D01*
X74256000Y-128612000D02*
X74256000Y-133112000D01*
X78256000Y-127362000D02*
X76756000Y-127362000D01*
%TO.C,R7*%
X65263500Y-71478224D02*
X65263500Y-70968776D01*
X66308500Y-71478224D02*
X66308500Y-70968776D01*
%TO.C,J1*%
X45042000Y-29254000D02*
X45042000Y-28194000D01*
X46102000Y-29254000D02*
X45042000Y-29254000D01*
X47102000Y-29254000D02*
X55162000Y-29254000D01*
X47102000Y-29254000D02*
X47102000Y-27134000D01*
X55162000Y-29254000D02*
X55162000Y-27134000D01*
X47102000Y-27134000D02*
X55162000Y-27134000D01*
%TO.C,SW23*%
X165052000Y-127362000D02*
X163552000Y-127362000D01*
X161052000Y-128612000D02*
X161052000Y-133112000D01*
X167552000Y-133112000D02*
X167552000Y-128612000D01*
X163552000Y-134362000D02*
X165052000Y-134362000D01*
%TO.C,R21*%
X197507776Y-55357500D02*
X198017224Y-55357500D01*
X197507776Y-56402500D02*
X198017224Y-56402500D01*
%TO.C,SW13*%
X216892000Y-134616000D02*
X218392000Y-134616000D01*
X220892000Y-133366000D02*
X220892000Y-128866000D01*
X214392000Y-128866000D02*
X214392000Y-133366000D01*
X218392000Y-127616000D02*
X216892000Y-127616000D01*
%TO.C,R27*%
X170927500Y-153520224D02*
X170927500Y-153010776D01*
X171972500Y-153520224D02*
X171972500Y-153010776D01*
%TO.C,SW10*%
X76756000Y-95500000D02*
X78256000Y-95500000D01*
X80756000Y-94250000D02*
X80756000Y-89750000D01*
X74256000Y-89750000D02*
X74256000Y-94250000D01*
X78256000Y-88500000D02*
X76756000Y-88500000D01*
%TO.C,SW4*%
X130096000Y-95754000D02*
X131596000Y-95754000D01*
X134096000Y-94504000D02*
X134096000Y-90004000D01*
X127596000Y-90004000D02*
X127596000Y-94504000D01*
X131596000Y-88754000D02*
X130096000Y-88754000D01*
%TO.C,R8*%
X65263500Y-111760724D02*
X65263500Y-111251276D01*
X66308500Y-111760724D02*
X66308500Y-111251276D01*
%TO.C,R19*%
X242584500Y-70968776D02*
X242584500Y-71478224D01*
X241539500Y-70968776D02*
X241539500Y-71478224D01*
%TO.C,SW11*%
X58976000Y-134362000D02*
X60476000Y-134362000D01*
X62976000Y-133112000D02*
X62976000Y-128612000D01*
X56476000Y-128612000D02*
X56476000Y-133112000D01*
X60476000Y-127362000D02*
X58976000Y-127362000D01*
%TO.C,R28*%
X189469500Y-153520224D02*
X189469500Y-153010776D01*
X190514500Y-153520224D02*
X190514500Y-153010776D01*
%TO.C,SW18*%
X234490000Y-53844000D02*
X235990000Y-53844000D01*
X238490000Y-52594000D02*
X238490000Y-48094000D01*
X231990000Y-48094000D02*
X231990000Y-52594000D01*
X235990000Y-46844000D02*
X234490000Y-46844000D01*
%TO.C,SW3*%
X112824000Y-95754000D02*
X114324000Y-95754000D01*
X116824000Y-94504000D02*
X116824000Y-90004000D01*
X110324000Y-90004000D02*
X110324000Y-94504000D01*
X114324000Y-88754000D02*
X112824000Y-88754000D01*
%TD*%
M02*
