%TF.GenerationSoftware,KiCad,Pcbnew,7.0.2*%
%TF.CreationDate,2025-07-06T11:08:55-05:00*%
%TF.ProjectId,MagicBook,4d616769-6342-46f6-9f6b-2e6b69636164,rev?*%
%TF.SameCoordinates,Original*%
%TF.FileFunction,Copper,L1,Top*%
%TF.FilePolarity,Positive*%
%FSLAX46Y46*%
G04 Gerber Fmt 4.6, Leading zero omitted, Abs format (unit mm)*
G04 Created by KiCad (PCBNEW 7.0.2) date 2025-07-06 11:08:55*
%MOMM*%
%LPD*%
G01*
G04 APERTURE LIST*
G04 Aperture macros list*
%AMRoundRect*
0 Rectangle with rounded corners*
0 $1 Rounding radius*
0 $2 $3 $4 $5 $6 $7 $8 $9 X,Y pos of 4 corners*
0 Add a 4 corners polygon primitive as box body*
4,1,4,$2,$3,$4,$5,$6,$7,$8,$9,$2,$3,0*
0 Add four circle primitives for the rounded corners*
1,1,$1+$1,$2,$3*
1,1,$1+$1,$4,$5*
1,1,$1+$1,$6,$7*
1,1,$1+$1,$8,$9*
0 Add four rect primitives between the rounded corners*
20,1,$1+$1,$2,$3,$4,$5,0*
20,1,$1+$1,$4,$5,$6,$7,0*
20,1,$1+$1,$6,$7,$8,$9,0*
20,1,$1+$1,$8,$9,$2,$3,0*%
G04 Aperture macros list end*
%TA.AperFunction,NonConductor*%
%ADD10C,0.200000*%
%TD*%
%TA.AperFunction,ComponentPad*%
%ADD11C,2.000000*%
%TD*%
%TA.AperFunction,SMDPad,CuDef*%
%ADD12RoundRect,0.237500X-0.237500X0.250000X-0.237500X-0.250000X0.237500X-0.250000X0.237500X0.250000X0*%
%TD*%
%TA.AperFunction,SMDPad,CuDef*%
%ADD13RoundRect,0.237500X0.237500X-0.250000X0.237500X0.250000X-0.237500X0.250000X-0.237500X-0.250000X0*%
%TD*%
%TA.AperFunction,SMDPad,CuDef*%
%ADD14RoundRect,0.237500X-0.250000X-0.237500X0.250000X-0.237500X0.250000X0.237500X-0.250000X0.237500X0*%
%TD*%
%TA.AperFunction,ComponentPad*%
%ADD15R,1.350000X1.350000*%
%TD*%
%TA.AperFunction,ComponentPad*%
%ADD16O,1.350000X1.350000*%
%TD*%
%TA.AperFunction,ViaPad*%
%ADD17C,1.000000*%
%TD*%
%TA.AperFunction,ViaPad*%
%ADD18C,0.800000*%
%TD*%
%TA.AperFunction,Conductor*%
%ADD19C,0.600000*%
%TD*%
%TA.AperFunction,Conductor*%
%ADD20C,0.250000*%
%TD*%
%TA.AperFunction,Conductor*%
%ADD21C,1.000000*%
%TD*%
G04 APERTURE END LIST*
D10*
X251460000Y-161290000D02*
X37846000Y-161290000D01*
X251460000Y-21590000D02*
X251460000Y-161290000D01*
X37846000Y-161290000D02*
X37846000Y-21590000D01*
X37846000Y-21590000D02*
X251460000Y-21590000D01*
D11*
%TO.P,SW19,1,1*%
%TO.N,Net-(J1-LR)*%
X162124000Y-53340000D03*
%TO.P,SW19,2,2*%
%TO.N,Net-(R15-Pad1)*%
X166624000Y-53340000D03*
%TO.P,SW19,3,3*%
%TO.N,Net-(J1-LR)*%
X162124000Y-46840000D03*
%TO.P,SW19,4,4*%
%TO.N,Net-(R27-Pad2)*%
X166624000Y-46840000D03*
%TD*%
D12*
%TO.P,R20,1*%
%TO.N,Net-(R20-Pad1)*%
X228346000Y-70311000D03*
%TO.P,R20,2*%
%TO.N,Net-(R18-Pad1)*%
X228346000Y-72136000D03*
%TD*%
D13*
%TO.P,R9,1*%
%TO.N,GND*%
X52832000Y-154178000D03*
%TO.P,R9,2*%
%TO.N,Net-(R10-Pad1)*%
X52832000Y-152353000D03*
%TD*%
D14*
%TO.P,R22,1*%
%TO.N,Net-(R22-Pad1)*%
X196953500Y-60198000D03*
%TO.P,R22,2*%
%TO.N,Net-(R20-Pad1)*%
X198778500Y-60198000D03*
%TD*%
D13*
%TO.P,R10,1*%
%TO.N,Net-(R10-Pad1)*%
X53086000Y-112522000D03*
%TO.P,R10,2*%
%TO.N,Net-(R10-Pad2)*%
X53086000Y-110697000D03*
%TD*%
D14*
%TO.P,R6,1*%
%TO.N,Net-(R6-Pad1)*%
X91035500Y-58420000D03*
%TO.P,R6,2*%
%TO.N,Net-(R5-Pad1)*%
X92860500Y-58420000D03*
%TD*%
D13*
%TO.P,R1,1*%
%TO.N,Net-(R1-Pad1)*%
X82550000Y-34036000D03*
%TO.P,R1,2*%
%TO.N,+5V*%
X82550000Y-32211000D03*
%TD*%
D11*
%TO.P,SW15,1,1*%
%TO.N,Net-(J1-LR)*%
X215464000Y-95250000D03*
%TO.P,SW15,2,2*%
%TO.N,Net-(R15-Pad1)*%
X219964000Y-95250000D03*
%TO.P,SW15,3,3*%
%TO.N,Net-(J1-LR)*%
X215464000Y-88750000D03*
%TO.P,SW15,4,4*%
%TO.N,Net-(R27-Pad2)*%
X219964000Y-88750000D03*
%TD*%
%TO.P,SW2,1,1*%
%TO.N,Net-(J1-UD)*%
X128524000Y-134112000D03*
%TO.P,SW2,2,2*%
%TO.N,Net-(R1-Pad1)*%
X133024000Y-134112000D03*
%TO.P,SW2,3,3*%
%TO.N,Net-(J1-UD)*%
X128524000Y-127612000D03*
%TO.P,SW2,4,4*%
%TO.N,Net-(R2-Pad2)*%
X133024000Y-127612000D03*
%TD*%
D13*
%TO.P,R26,1*%
%TO.N,Net-(R26-Pad1)*%
X175260000Y-112268000D03*
%TO.P,R26,2*%
%TO.N,Net-(R24-Pad1)*%
X175260000Y-110443000D03*
%TD*%
%TO.P,R25,1*%
%TO.N,Net-(R25-Pad1)*%
X188468000Y-112823000D03*
%TO.P,R25,2*%
%TO.N,Net-(R23-Pad1)*%
X188468000Y-110998000D03*
%TD*%
D11*
%TO.P,SW24,1,1*%
%TO.N,Net-(J1-UD)*%
X179324000Y-134112000D03*
%TO.P,SW24,2,2*%
%TO.N,Net-(R25-Pad1)*%
X183824000Y-134112000D03*
%TO.P,SW24,3,3*%
%TO.N,Net-(J1-UD)*%
X179324000Y-127612000D03*
%TO.P,SW24,4,4*%
%TO.N,Net-(R26-Pad1)*%
X183824000Y-127612000D03*
%TD*%
%TO.P,SW21,1,1*%
%TO.N,Net-(J1-LR)*%
X162124000Y-95504000D03*
%TO.P,SW21,2,2*%
%TO.N,Net-(R15-Pad1)*%
X166624000Y-95504000D03*
%TO.P,SW21,3,3*%
%TO.N,Net-(J1-LR)*%
X162124000Y-89004000D03*
%TO.P,SW21,4,4*%
%TO.N,Net-(R27-Pad2)*%
X166624000Y-89004000D03*
%TD*%
%TO.P,SW22,1,1*%
%TO.N,Net-(J1-UD)*%
X179396000Y-95504000D03*
%TO.P,SW22,2,2*%
%TO.N,Net-(R23-Pad1)*%
X183896000Y-95504000D03*
%TO.P,SW22,3,3*%
%TO.N,Net-(J1-UD)*%
X179396000Y-89004000D03*
%TO.P,SW22,4,4*%
%TO.N,Net-(R24-Pad1)*%
X183896000Y-89004000D03*
%TD*%
D12*
%TO.P,R4,1*%
%TO.N,Net-(R4-Pad1)*%
X119380000Y-110443000D03*
%TO.P,R4,2*%
%TO.N,Net-(R3-Pad1)*%
X119380000Y-112268000D03*
%TD*%
D14*
%TO.P,R12,1*%
%TO.N,Net-(R11-Pad2)*%
X91035500Y-44196000D03*
%TO.P,R12,2*%
%TO.N,Net-(R12-Pad2)*%
X92860500Y-44196000D03*
%TD*%
D12*
%TO.P,R16,1*%
%TO.N,Net-(R16-Pad1)*%
X237490000Y-152353000D03*
%TO.P,R16,2*%
%TO.N,+5V*%
X237490000Y-154178000D03*
%TD*%
D11*
%TO.P,SW7,1,1*%
%TO.N,Net-(J1-LR)*%
X57404000Y-53340000D03*
%TO.P,SW7,2,2*%
%TO.N,Net-(R6-Pad1)*%
X61904000Y-53340000D03*
%TO.P,SW7,3,3*%
%TO.N,Net-(J1-LR)*%
X57404000Y-46840000D03*
%TO.P,SW7,4,4*%
%TO.N,Net-(R11-Pad2)*%
X61904000Y-46840000D03*
%TD*%
%TO.P,SW20,1,1*%
%TO.N,Net-(J1-UD)*%
X179396000Y-53594000D03*
%TO.P,SW20,2,2*%
%TO.N,Net-(R21-Pad1)*%
X183896000Y-53594000D03*
%TO.P,SW20,3,3*%
%TO.N,Net-(J1-UD)*%
X179396000Y-47094000D03*
%TO.P,SW20,4,4*%
%TO.N,Net-(R22-Pad1)*%
X183896000Y-47094000D03*
%TD*%
D13*
%TO.P,R15,1*%
%TO.N,Net-(R15-Pad1)*%
X170180000Y-33782000D03*
%TO.P,R15,2*%
%TO.N,+5V*%
X170180000Y-31957000D03*
%TD*%
D11*
%TO.P,SW9,1,1*%
%TO.N,Net-(J1-LR)*%
X57476000Y-95250000D03*
%TO.P,SW9,2,2*%
%TO.N,Net-(R7-Pad1)*%
X61976000Y-95250000D03*
%TO.P,SW9,3,3*%
%TO.N,Net-(J1-LR)*%
X57476000Y-88750000D03*
%TO.P,SW9,4,4*%
%TO.N,Net-(R10-Pad2)*%
X61976000Y-88750000D03*
%TD*%
D12*
%TO.P,R17,1*%
%TO.N,Net-(R17-Pad1)*%
X242062000Y-110443000D03*
%TO.P,R17,2*%
%TO.N,Net-(R16-Pad1)*%
X242062000Y-112268000D03*
%TD*%
D11*
%TO.P,SW1,1,1*%
%TO.N,Net-(J1-LR)*%
X111252000Y-134112000D03*
%TO.P,SW1,2,2*%
%TO.N,Net-(R3-Pad1)*%
X115752000Y-134112000D03*
%TO.P,SW1,3,3*%
%TO.N,Net-(J1-LR)*%
X111252000Y-127612000D03*
%TO.P,SW1,4,4*%
%TO.N,Net-(R14-Pad2)*%
X115752000Y-127612000D03*
%TD*%
D13*
%TO.P,R11,1*%
%TO.N,Net-(R10-Pad2)*%
X61976000Y-72032500D03*
%TO.P,R11,2*%
%TO.N,Net-(R11-Pad2)*%
X61976000Y-70207500D03*
%TD*%
D12*
%TO.P,R14,1*%
%TO.N,Net-(R13-Pad2)*%
X107188000Y-110697000D03*
%TO.P,R14,2*%
%TO.N,Net-(R14-Pad2)*%
X107188000Y-112522000D03*
%TD*%
D11*
%TO.P,SW14,1,1*%
%TO.N,Net-(J1-UD)*%
X232918000Y-134620000D03*
%TO.P,SW14,2,2*%
%TO.N,Net-(R16-Pad1)*%
X237418000Y-134620000D03*
%TO.P,SW14,3,3*%
%TO.N,Net-(J1-UD)*%
X232918000Y-128120000D03*
%TO.P,SW14,4,4*%
%TO.N,Net-(R18-Pad2)*%
X237418000Y-128120000D03*
%TD*%
D12*
%TO.P,R13,1*%
%TO.N,Net-(R12-Pad2)*%
X107188000Y-70057000D03*
%TO.P,R13,2*%
%TO.N,Net-(R13-Pad2)*%
X107188000Y-71882000D03*
%TD*%
D13*
%TO.P,R23,1*%
%TO.N,Net-(R23-Pad1)*%
X188468000Y-72540500D03*
%TO.P,R23,2*%
%TO.N,Net-(R21-Pad1)*%
X188468000Y-70715500D03*
%TD*%
D11*
%TO.P,SW16,1,1*%
%TO.N,Net-(J1-UD)*%
X232990000Y-95250000D03*
%TO.P,SW16,2,2*%
%TO.N,Net-(R17-Pad1)*%
X237490000Y-95250000D03*
%TO.P,SW16,3,3*%
%TO.N,Net-(J1-UD)*%
X232990000Y-88750000D03*
%TO.P,SW16,4,4*%
%TO.N,Net-(R18-Pad1)*%
X237490000Y-88750000D03*
%TD*%
D12*
%TO.P,R18,1*%
%TO.N,Net-(R18-Pad1)*%
X228346000Y-110697000D03*
%TO.P,R18,2*%
%TO.N,Net-(R18-Pad2)*%
X228346000Y-112522000D03*
%TD*%
D11*
%TO.P,SW8,4,4*%
%TO.N,Net-(R2-Pad2)*%
X79684000Y-46840000D03*
%TO.P,SW8,3,3*%
%TO.N,Net-(J1-UD)*%
X75184000Y-46840000D03*
%TO.P,SW8,2,2*%
%TO.N,Net-(R1-Pad1)*%
X79684000Y-53340000D03*
%TO.P,SW8,1,1*%
%TO.N,Net-(J1-UD)*%
X75184000Y-53340000D03*
%TD*%
%TO.P,SW6,1,1*%
%TO.N,Net-(J1-UD)*%
X128596000Y-53594000D03*
%TO.P,SW6,2,2*%
%TO.N,Net-(R1-Pad1)*%
X133096000Y-53594000D03*
%TO.P,SW6,3,3*%
%TO.N,Net-(J1-UD)*%
X128596000Y-47094000D03*
%TO.P,SW6,4,4*%
%TO.N,Net-(R2-Pad2)*%
X133096000Y-47094000D03*
%TD*%
%TO.P,SW17,1,1*%
%TO.N,Net-(J1-LR)*%
X215464000Y-53594000D03*
%TO.P,SW17,2,2*%
%TO.N,Net-(R15-Pad1)*%
X219964000Y-53594000D03*
%TO.P,SW17,3,3*%
%TO.N,Net-(J1-LR)*%
X215464000Y-47094000D03*
%TO.P,SW17,4,4*%
%TO.N,Net-(R27-Pad2)*%
X219964000Y-47094000D03*
%TD*%
D12*
%TO.P,R2,1*%
%TO.N,GND*%
X70104000Y-32211000D03*
%TO.P,R2,2*%
%TO.N,Net-(R2-Pad2)*%
X70104000Y-34036000D03*
%TD*%
D13*
%TO.P,R24,1*%
%TO.N,Net-(R24-Pad1)*%
X175260000Y-72136000D03*
%TO.P,R24,2*%
%TO.N,Net-(R22-Pad1)*%
X175260000Y-70311000D03*
%TD*%
D12*
%TO.P,R3,1*%
%TO.N,Net-(R3-Pad1)*%
X115824000Y-152353000D03*
%TO.P,R3,2*%
%TO.N,+5V*%
X115824000Y-154178000D03*
%TD*%
D11*
%TO.P,SW5,1,1*%
%TO.N,Net-(J1-LR)*%
X111324000Y-53594000D03*
%TO.P,SW5,2,2*%
%TO.N,Net-(R5-Pad1)*%
X115824000Y-53594000D03*
%TO.P,SW5,3,3*%
%TO.N,Net-(J1-LR)*%
X111324000Y-47094000D03*
%TO.P,SW5,4,4*%
%TO.N,Net-(R12-Pad2)*%
X115824000Y-47094000D03*
%TD*%
D12*
%TO.P,R5,1*%
%TO.N,Net-(R5-Pad1)*%
X119530500Y-70311000D03*
%TO.P,R5,2*%
%TO.N,Net-(R4-Pad1)*%
X119530500Y-72136000D03*
%TD*%
D11*
%TO.P,SW12,1,1*%
%TO.N,Net-(J1-UD)*%
X75256000Y-134112000D03*
%TO.P,SW12,2,2*%
%TO.N,Net-(R1-Pad1)*%
X79756000Y-134112000D03*
%TO.P,SW12,3,3*%
%TO.N,Net-(J1-UD)*%
X75256000Y-127612000D03*
%TO.P,SW12,4,4*%
%TO.N,Net-(R2-Pad2)*%
X79756000Y-127612000D03*
%TD*%
D13*
%TO.P,R7,1*%
%TO.N,Net-(R7-Pad1)*%
X65786000Y-72136000D03*
%TO.P,R7,2*%
%TO.N,Net-(R6-Pad1)*%
X65786000Y-70311000D03*
%TD*%
D15*
%TO.P,J1,1,LR*%
%TO.N,Net-(J1-LR)*%
X46102000Y-28194000D03*
D16*
%TO.P,J1,2,UD*%
%TO.N,Net-(J1-UD)*%
X48102000Y-28194000D03*
%TO.P,J1,3,GND*%
%TO.N,GND*%
X50102000Y-28194000D03*
%TO.P,J1,4,fire1*%
%TO.N,Net-(J1-fire1)*%
X52102000Y-28194000D03*
%TO.P,J1,5,VCC*%
%TO.N,+5V*%
X54102000Y-28194000D03*
%TD*%
D11*
%TO.P,SW23,4,4*%
%TO.N,Net-(R27-Pad2)*%
X166552000Y-127612000D03*
%TO.P,SW23,3,3*%
%TO.N,Net-(J1-LR)*%
X162052000Y-127612000D03*
%TO.P,SW23,2,2*%
%TO.N,Net-(R15-Pad1)*%
X166552000Y-134112000D03*
%TO.P,SW23,1,1*%
%TO.N,Net-(J1-LR)*%
X162052000Y-134112000D03*
%TD*%
D14*
%TO.P,R21,1*%
%TO.N,Net-(R21-Pad1)*%
X196850000Y-55880000D03*
%TO.P,R21,2*%
%TO.N,Net-(R19-Pad1)*%
X198675000Y-55880000D03*
%TD*%
D11*
%TO.P,SW13,1,1*%
%TO.N,Net-(J1-LR)*%
X215392000Y-134366000D03*
%TO.P,SW13,2,2*%
%TO.N,Net-(R15-Pad1)*%
X219892000Y-134366000D03*
%TO.P,SW13,3,3*%
%TO.N,Net-(J1-LR)*%
X215392000Y-127866000D03*
%TO.P,SW13,4,4*%
%TO.N,Net-(R27-Pad2)*%
X219892000Y-127866000D03*
%TD*%
D13*
%TO.P,R27,1*%
%TO.N,GND*%
X171450000Y-154178000D03*
%TO.P,R27,2*%
%TO.N,Net-(R27-Pad2)*%
X171450000Y-152353000D03*
%TD*%
D11*
%TO.P,SW10,1,1*%
%TO.N,Net-(J1-UD)*%
X75256000Y-95250000D03*
%TO.P,SW10,2,2*%
%TO.N,Net-(R1-Pad1)*%
X79756000Y-95250000D03*
%TO.P,SW10,3,3*%
%TO.N,Net-(J1-UD)*%
X75256000Y-88750000D03*
%TO.P,SW10,4,4*%
%TO.N,Net-(R2-Pad2)*%
X79756000Y-88750000D03*
%TD*%
%TO.P,SW4,1,1*%
%TO.N,Net-(J1-UD)*%
X128596000Y-95504000D03*
%TO.P,SW4,2,2*%
%TO.N,Net-(R1-Pad1)*%
X133096000Y-95504000D03*
%TO.P,SW4,3,3*%
%TO.N,Net-(J1-UD)*%
X128596000Y-89004000D03*
%TO.P,SW4,4,4*%
%TO.N,Net-(R2-Pad2)*%
X133096000Y-89004000D03*
%TD*%
D13*
%TO.P,R8,1*%
%TO.N,Net-(R8-Pad1)*%
X65786000Y-112418500D03*
%TO.P,R8,2*%
%TO.N,Net-(R7-Pad1)*%
X65786000Y-110593500D03*
%TD*%
D12*
%TO.P,R19,1*%
%TO.N,Net-(R19-Pad1)*%
X242062000Y-70311000D03*
%TO.P,R19,2*%
%TO.N,Net-(R17-Pad1)*%
X242062000Y-72136000D03*
%TD*%
D11*
%TO.P,SW11,1,1*%
%TO.N,Net-(J1-LR)*%
X57476000Y-134112000D03*
%TO.P,SW11,2,2*%
%TO.N,Net-(R8-Pad1)*%
X61976000Y-134112000D03*
%TO.P,SW11,3,3*%
%TO.N,Net-(J1-LR)*%
X57476000Y-127612000D03*
%TO.P,SW11,4,4*%
%TO.N,Net-(R10-Pad1)*%
X61976000Y-127612000D03*
%TD*%
D13*
%TO.P,R28,1*%
%TO.N,GND*%
X189992000Y-154178000D03*
%TO.P,R28,2*%
%TO.N,Net-(R26-Pad1)*%
X189992000Y-152353000D03*
%TD*%
D11*
%TO.P,SW18,1,1*%
%TO.N,Net-(J1-UD)*%
X232990000Y-53594000D03*
%TO.P,SW18,2,2*%
%TO.N,Net-(R19-Pad1)*%
X237490000Y-53594000D03*
%TO.P,SW18,3,3*%
%TO.N,Net-(J1-UD)*%
X232990000Y-47094000D03*
%TO.P,SW18,4,4*%
%TO.N,unconnected-(SW18-Pad4)*%
X237490000Y-47094000D03*
%TD*%
%TO.P,SW3,1,1*%
%TO.N,Net-(J1-LR)*%
X111324000Y-95504000D03*
%TO.P,SW3,2,2*%
%TO.N,Net-(R4-Pad1)*%
X115824000Y-95504000D03*
%TO.P,SW3,3,3*%
%TO.N,Net-(J1-LR)*%
X111324000Y-89004000D03*
%TO.P,SW3,4,4*%
%TO.N,Net-(R13-Pad2)*%
X115824000Y-89004000D03*
%TD*%
D17*
%TO.N,Net-(R27-Pad2)*%
X171450000Y-141478000D03*
%TO.N,Net-(R2-Pad2)*%
X136652000Y-62230000D03*
X116840000Y-62230000D03*
X70104000Y-62230000D03*
%TO.N,Net-(R26-Pad1)*%
X189992000Y-133858000D03*
%TO.N,Net-(R27-Pad2)*%
X171450000Y-133858000D03*
%TO.N,Net-(R1-Pad1)*%
X113284000Y-56642000D03*
X104902000Y-56642000D03*
D18*
%TO.N,Net-(R15-Pad1)*%
X223266000Y-62738000D03*
D17*
%TO.N,+5V*%
X237490000Y-156972000D03*
X115824000Y-156210000D03*
%TO.N,GND*%
X45720000Y-156464000D03*
%TO.N,Net-(R2-Pad2)*%
X70104000Y-36576000D03*
D18*
%TO.N,Net-(R12-Pad2)*%
X107188000Y-44196000D03*
%TO.N,GND*%
X50102000Y-31178000D03*
%TO.N,+5V*%
X54102000Y-28194000D03*
%TO.N,Net-(R2-Pad2)*%
X70104000Y-115316000D03*
X70104000Y-75438000D03*
D17*
%TO.N,Net-(R11-Pad2)*%
X64262000Y-58928000D03*
D18*
%TO.N,Net-(R22-Pad1)*%
X187198000Y-60198000D03*
X189738000Y-60198000D03*
%TD*%
D19*
%TO.N,+5V*%
X115824000Y-156210000D02*
X115824000Y-154178000D01*
%TO.N,GND*%
X69342000Y-31242000D02*
X50166000Y-31242000D01*
X70104000Y-32004000D02*
X69342000Y-31242000D01*
X70104000Y-32211000D02*
X70104000Y-32004000D01*
%TO.N,Net-(J1-UD)*%
X48102000Y-31846000D02*
X48102000Y-28194000D01*
X49784000Y-33528000D02*
X48102000Y-31846000D01*
X75184000Y-44958000D02*
X63754000Y-33528000D01*
X63754000Y-33528000D02*
X49784000Y-33528000D01*
X75184000Y-46840000D02*
X75184000Y-44958000D01*
%TO.N,Net-(R25-Pad1)*%
X188468000Y-131064000D02*
X188468000Y-112823000D01*
X185420000Y-134112000D02*
X188468000Y-131064000D01*
X183824000Y-134112000D02*
X185420000Y-134112000D01*
%TO.N,Net-(R23-Pad1)*%
X188468000Y-110744000D02*
X188468000Y-95504000D01*
D20*
X188214000Y-110998000D02*
X188468000Y-110744000D01*
D19*
X188468000Y-95504000D02*
X188468000Y-72540500D01*
X183896000Y-95504000D02*
X188468000Y-95504000D01*
%TO.N,Net-(R15-Pad1)*%
X221996000Y-53594000D02*
X219964000Y-53594000D01*
X223520000Y-45974000D02*
X223520000Y-52070000D01*
X221742000Y-44196000D02*
X223520000Y-45974000D01*
X170180000Y-44196000D02*
X221742000Y-44196000D01*
X223520000Y-52070000D02*
X221996000Y-53594000D01*
X170180000Y-44196000D02*
X170180000Y-33020000D01*
X170180000Y-53340000D02*
X170180000Y-44196000D01*
%TO.N,Net-(R27-Pad2)*%
X171450000Y-141478000D02*
X171450000Y-152099000D01*
%TO.N,Net-(R2-Pad2)*%
X70104000Y-62230000D02*
X116840000Y-62230000D01*
%TO.N,Net-(J1-UD)*%
X75184000Y-53340000D02*
X75184000Y-46840000D01*
%TO.N,Net-(R26-Pad1)*%
X189992000Y-152353000D02*
X189992000Y-133858000D01*
%TO.N,Net-(R27-Pad2)*%
X171450000Y-133858000D02*
X171450000Y-141478000D01*
%TO.N,Net-(R15-Pad1)*%
X172466000Y-97790000D02*
X170180000Y-95504000D01*
X172466000Y-130302000D02*
X172466000Y-97790000D01*
X168656000Y-134112000D02*
X172466000Y-130302000D01*
X166552000Y-134112000D02*
X168656000Y-134112000D01*
%TO.N,Net-(R19-Pad1)*%
X237490000Y-55626000D02*
X237490000Y-53594000D01*
X242062000Y-60198000D02*
X237490000Y-55626000D01*
X242062000Y-70057000D02*
X242062000Y-60198000D01*
%TO.N,Net-(R17-Pad1)*%
X241808000Y-72644000D02*
X242062000Y-72390000D01*
X242062000Y-95250000D02*
X242062000Y-72644000D01*
X242062000Y-95250000D02*
X237490000Y-95250000D01*
X242062000Y-110443000D02*
X242062000Y-95250000D01*
%TO.N,Net-(R2-Pad2)*%
X134978000Y-47094000D02*
X133096000Y-47094000D01*
X136652000Y-48768000D02*
X134978000Y-47094000D01*
X136652000Y-89154000D02*
X136652000Y-48768000D01*
X136502000Y-89004000D02*
X133096000Y-89004000D01*
X136652000Y-89154000D02*
X136502000Y-89004000D01*
X136652000Y-125476000D02*
X136652000Y-89154000D01*
X134620000Y-127508000D02*
X136652000Y-125476000D01*
X133128000Y-127508000D02*
X134620000Y-127508000D01*
D20*
X133024000Y-127612000D02*
X133128000Y-127508000D01*
D19*
%TO.N,Net-(R1-Pad1)*%
X104902000Y-56642000D02*
X113284000Y-56642000D01*
D20*
%TO.N,Net-(R19-Pad1)*%
X237490000Y-55880000D02*
X237490000Y-53594000D01*
D19*
X198628000Y-55880000D02*
X237490000Y-55880000D01*
%TO.N,Net-(R22-Pad1)*%
X196953500Y-60198000D02*
X189738000Y-60198000D01*
%TO.N,Net-(R21-Pad1)*%
X188468000Y-70715500D02*
X188468000Y-55880000D01*
%TO.N,Net-(R15-Pad1)*%
X219964000Y-95250000D02*
X223266000Y-95250000D01*
X223266000Y-132842000D02*
X223266000Y-94488000D01*
X221742000Y-134366000D02*
X223266000Y-132842000D01*
X219892000Y-134366000D02*
X221742000Y-134366000D01*
X223266000Y-94488000D02*
X223266000Y-62738000D01*
%TO.N,Net-(R26-Pad1)*%
X175260000Y-116078000D02*
X175260000Y-112268000D01*
X183824000Y-124642000D02*
X175260000Y-116078000D01*
X183824000Y-127612000D02*
X183824000Y-124642000D01*
%TO.N,Net-(R15-Pad1)*%
X170180000Y-95504000D02*
X170180000Y-53594000D01*
X170180000Y-95504000D02*
X166624000Y-95504000D01*
%TO.N,Net-(R13-Pad2)*%
X107188000Y-110697000D02*
X107188000Y-71882000D01*
%TO.N,Net-(R2-Pad2)*%
X73152000Y-36576000D02*
X70104000Y-36576000D01*
X79684000Y-46840000D02*
X79684000Y-43108000D01*
X79684000Y-43108000D02*
X73152000Y-36576000D01*
D20*
%TO.N,Net-(R15-Pad1)*%
X170180000Y-53594000D02*
X169926000Y-53340000D01*
D19*
X166624000Y-53340000D02*
X170180000Y-53340000D01*
%TO.N,+5V*%
X170133000Y-29925000D02*
X170133000Y-31242000D01*
X168402000Y-28194000D02*
X170133000Y-29925000D01*
X82550000Y-28194000D02*
X168402000Y-28194000D01*
X54102000Y-28194000D02*
X82550000Y-28194000D01*
X82550000Y-32211000D02*
X82550000Y-28194000D01*
%TO.N,Net-(R1-Pad1)*%
X82550000Y-50292000D02*
X82550000Y-34036000D01*
X79502000Y-53340000D02*
X82550000Y-50292000D01*
%TO.N,Net-(R11-Pad2)*%
X63350000Y-46840000D02*
X61904000Y-46840000D01*
X81280000Y-56134000D02*
X72644000Y-56134000D01*
X86614000Y-50800000D02*
X81280000Y-56134000D01*
X88138000Y-44196000D02*
X86614000Y-45720000D01*
X72644000Y-56134000D02*
X63350000Y-46840000D01*
X91035500Y-44196000D02*
X88138000Y-44196000D01*
X86614000Y-45720000D02*
X86614000Y-50800000D01*
%TO.N,Net-(R5-Pad1)*%
X119634000Y-62230000D02*
X115824000Y-58420000D01*
X119634000Y-70207500D02*
X119634000Y-62230000D01*
X115824000Y-58420000D02*
X92860500Y-58420000D01*
X115824000Y-53594000D02*
X115824000Y-58420000D01*
%TO.N,Net-(R12-Pad2)*%
X115824000Y-45720000D02*
X115824000Y-46840000D01*
X107188000Y-44196000D02*
X114300000Y-44196000D01*
X114300000Y-44196000D02*
X115824000Y-45720000D01*
%TO.N,Net-(R6-Pad1)*%
X91035500Y-58420000D02*
X65786000Y-58420000D01*
X65786000Y-55372000D02*
X63936000Y-53522000D01*
X63936000Y-53522000D02*
X61904000Y-53522000D01*
X65786000Y-58420000D02*
X65786000Y-55372000D01*
D20*
X61904000Y-53522000D02*
X61904000Y-53340000D01*
D19*
%TO.N,Net-(R7-Pad1)*%
X65786000Y-95250000D02*
X65786000Y-72136000D01*
X63754000Y-95250000D02*
X65786000Y-95250000D01*
X65786000Y-95250000D02*
X65786000Y-110593500D01*
X61976000Y-95250000D02*
X65786000Y-95250000D01*
D20*
%TO.N,Net-(R16-Pad1)*%
X237490000Y-134692000D02*
X237418000Y-134620000D01*
D19*
X237490000Y-152353000D02*
X237490000Y-134692000D01*
%TO.N,+5V*%
X237490000Y-156972000D02*
X237490000Y-154178000D01*
D21*
%TO.N,GND*%
X171704000Y-154178000D02*
X189992000Y-154178000D01*
X167640000Y-158242000D02*
X171704000Y-154178000D01*
X54610000Y-158242000D02*
X167640000Y-158242000D01*
X52832000Y-156464000D02*
X54610000Y-158242000D01*
D19*
%TO.N,Net-(R3-Pad1)*%
X115752000Y-152281000D02*
X115752000Y-134112000D01*
%TO.N,GND*%
X52832000Y-154178000D02*
X52832000Y-156464000D01*
D21*
X45720000Y-156464000D02*
X52832000Y-156464000D01*
D19*
%TO.N,Net-(R10-Pad1)*%
X52832000Y-112776000D02*
X53086000Y-112522000D01*
X52832000Y-152353000D02*
X52832000Y-112776000D01*
X52832000Y-152353000D02*
X52578000Y-152099000D01*
%TO.N,Net-(R3-Pad1)*%
X117348000Y-134112000D02*
X115752000Y-134112000D01*
X119380000Y-131826000D02*
X119380000Y-112268000D01*
X119380000Y-132080000D02*
X117348000Y-134112000D01*
D20*
X119380000Y-131826000D02*
X119380000Y-132080000D01*
D19*
%TO.N,Net-(R4-Pad1)*%
X117602000Y-95504000D02*
X115824000Y-95504000D01*
X119380000Y-97282000D02*
X117602000Y-95504000D01*
X119380000Y-110443000D02*
X119380000Y-97282000D01*
D20*
X117856000Y-95504000D02*
X115824000Y-95504000D01*
D19*
X119530500Y-93726000D02*
X119530500Y-72136000D01*
X119530500Y-93829500D02*
X117856000Y-95504000D01*
D20*
X119530500Y-93726000D02*
X119530500Y-93829500D01*
D19*
%TO.N,Net-(R2-Pad2)*%
X70104000Y-34290000D02*
X69850000Y-34036000D01*
X70104000Y-36576000D02*
X70104000Y-34290000D01*
D20*
%TO.N,Net-(J1-UD)*%
X75256000Y-53594000D02*
X75184000Y-53522000D01*
D19*
%TO.N,Net-(J1-LR)*%
X57404000Y-44196000D02*
X46102000Y-32894000D01*
X57404000Y-46840000D02*
X57404000Y-44196000D01*
D20*
%TO.N,Net-(R7-Pad1)*%
X61976000Y-95250000D02*
X63754000Y-95250000D01*
D19*
%TO.N,Net-(R8-Pad1)*%
X63754000Y-134112000D02*
X65786000Y-132080000D01*
X65786000Y-132080000D02*
X65786000Y-112418500D01*
X61976000Y-134112000D02*
X63754000Y-134112000D01*
%TO.N,Net-(R12-Pad2)*%
X92860500Y-44196000D02*
X107188000Y-44196000D01*
D20*
%TO.N,Net-(J1-LR)*%
X111252000Y-47166000D02*
X111324000Y-47094000D01*
X111324000Y-53594000D02*
X111252000Y-53522000D01*
D19*
X111252000Y-53522000D02*
X111252000Y-47166000D01*
D20*
X215392000Y-95322000D02*
X215464000Y-95250000D01*
D19*
X57476000Y-134112000D02*
X57476000Y-127612000D01*
X162124000Y-53340000D02*
X162124000Y-46840000D01*
X46102000Y-32894000D02*
X46102000Y-28194000D01*
D20*
X57476000Y-54102000D02*
X57404000Y-54030000D01*
X57476000Y-95250000D02*
X57476000Y-88750000D01*
X215464000Y-95250000D02*
X215464000Y-88750000D01*
X162052000Y-95576000D02*
X162124000Y-95504000D01*
D19*
X162052000Y-134112000D02*
X162052000Y-127612000D01*
X215392000Y-134366000D02*
X215392000Y-127866000D01*
D20*
X215464000Y-47094000D02*
X215210000Y-47094000D01*
D19*
X111252000Y-134112000D02*
X111252000Y-127612000D01*
D20*
X162124000Y-95504000D02*
X162124000Y-89004000D01*
X111324000Y-95504000D02*
X111324000Y-89004000D01*
D19*
X57404000Y-54030000D02*
X57404000Y-46840000D01*
D20*
%TO.N,Net-(J1-UD)*%
X128596000Y-95504000D02*
X128596000Y-89004000D01*
D19*
X179324000Y-134112000D02*
X179324000Y-127612000D01*
D20*
X232918000Y-134620000D02*
X232918000Y-128120000D01*
D19*
X179396000Y-53594000D02*
X179396000Y-47094000D01*
D20*
X128524000Y-95576000D02*
X128596000Y-95504000D01*
X75256000Y-95250000D02*
X75256000Y-88750000D01*
D19*
X128524000Y-127612000D02*
X128524000Y-95576000D01*
D20*
X179324000Y-95576000D02*
X179396000Y-95504000D01*
D19*
X128524000Y-134112000D02*
X128524000Y-127612000D01*
D20*
X232990000Y-95250000D02*
X232990000Y-88750000D01*
X232918000Y-95322000D02*
X232990000Y-95250000D01*
D19*
X128596000Y-89004000D02*
X128596000Y-53594000D01*
X128596000Y-53594000D02*
X128596000Y-47094000D01*
D20*
X232990000Y-53594000D02*
X232990000Y-47094000D01*
X179396000Y-95504000D02*
X179396000Y-89004000D01*
%TO.N,+5V*%
X170180000Y-31195000D02*
X170133000Y-31242000D01*
D19*
%TO.N,Net-(R2-Pad2)*%
X79756000Y-85090000D02*
X70104000Y-75438000D01*
X79756000Y-88750000D02*
X79756000Y-85090000D01*
D20*
X70104000Y-115316000D02*
X70104000Y-115824000D01*
D19*
X79756000Y-127612000D02*
X79756000Y-125476000D01*
X70104000Y-115824000D02*
X79756000Y-125476000D01*
D20*
%TO.N,Net-(R3-Pad1)*%
X115824000Y-152353000D02*
X115752000Y-152281000D01*
%TO.N,Net-(R5-Pad1)*%
X119530500Y-70311000D02*
X119634000Y-70207500D01*
D19*
%TO.N,Net-(R6-Pad1)*%
X65786000Y-70311000D02*
X65786000Y-58420000D01*
%TO.N,Net-(R10-Pad1)*%
X61976000Y-127612000D02*
X61976000Y-125222000D01*
X61976000Y-125222000D02*
X53086000Y-116332000D01*
%TO.N,Net-(R10-Pad2)*%
X53086000Y-110697000D02*
X53086000Y-87630000D01*
X61976000Y-78740000D02*
X61976000Y-72032500D01*
X61976000Y-88750000D02*
X61976000Y-78740000D01*
X53086000Y-87630000D02*
X61976000Y-78740000D01*
%TO.N,Net-(R11-Pad2)*%
X64262000Y-66294000D02*
X61976000Y-68580000D01*
X64262000Y-58928000D02*
X64262000Y-66294000D01*
X61976000Y-68580000D02*
X61976000Y-70207500D01*
%TO.N,Net-(R13-Pad2)*%
X115824000Y-84328000D02*
X107188000Y-75692000D01*
X115824000Y-89004000D02*
X115824000Y-84328000D01*
%TO.N,Net-(R14-Pad2)*%
X115752000Y-127612000D02*
X115752000Y-124896000D01*
X107188000Y-116332000D02*
X107188000Y-112522000D01*
X115752000Y-124896000D02*
X107188000Y-116332000D01*
%TO.N,Net-(R16-Pad1)*%
X237418000Y-134620000D02*
X242062000Y-129976000D01*
X242062000Y-129976000D02*
X242062000Y-112268000D01*
D20*
%TO.N,Net-(R17-Pad1)*%
X242316000Y-72390000D02*
X242062000Y-72136000D01*
D19*
%TO.N,Net-(R18-Pad1)*%
X228346000Y-75438000D02*
X228346000Y-72136000D01*
X237490000Y-84582000D02*
X228346000Y-75438000D01*
X237490000Y-88750000D02*
X237490000Y-84582000D01*
X228346000Y-110697000D02*
X228346000Y-75438000D01*
%TO.N,Net-(R18-Pad2)*%
X237418000Y-125658000D02*
X237418000Y-128120000D01*
X228346000Y-116586000D02*
X237418000Y-125658000D01*
X228346000Y-112522000D02*
X228346000Y-116586000D01*
%TO.N,Net-(R20-Pad1)*%
X198778500Y-60198000D02*
X225298000Y-60198000D01*
X228346000Y-63246000D02*
X228346000Y-70311000D01*
X225298000Y-60198000D02*
X228346000Y-63246000D01*
%TO.N,Net-(R21-Pad1)*%
X188468000Y-55880000D02*
X196549000Y-55880000D01*
D20*
X196549000Y-55880000D02*
X196803000Y-55626000D01*
D19*
X186182000Y-53594000D02*
X183896000Y-53594000D01*
X188468000Y-55880000D02*
X186182000Y-53594000D01*
%TO.N,Net-(R22-Pad1)*%
X175260000Y-68834000D02*
X175260000Y-70311000D01*
D20*
X184000000Y-46990000D02*
X183896000Y-47094000D01*
D19*
X187198000Y-60198000D02*
X183896000Y-60198000D01*
X183896000Y-60198000D02*
X175260000Y-68834000D01*
%TO.N,Net-(R24-Pad1)*%
X175260000Y-110443000D02*
X175260000Y-75692000D01*
X183896000Y-84328000D02*
X175260000Y-75692000D01*
D20*
X175514000Y-72390000D02*
X175260000Y-72136000D01*
D19*
X175260000Y-75692000D02*
X175260000Y-72390000D01*
X183896000Y-89004000D02*
X183896000Y-84328000D01*
%TD*%
M02*
