%TF.GenerationSoftware,KiCad,Pcbnew,7.0.2*%
%TF.CreationDate,2025-07-06T11:08:55-05:00*%
%TF.ProjectId,MagicBook,4d616769-6342-46f6-9f6b-2e6b69636164,rev?*%
%TF.SameCoordinates,Original*%
%TF.FileFunction,Copper,L2,Bot*%
%TF.FilePolarity,Positive*%
%FSLAX46Y46*%
G04 Gerber Fmt 4.6, Leading zero omitted, Abs format (unit mm)*
G04 Created by KiCad (PCBNEW 7.0.2) date 2025-07-06 11:08:55*
%MOMM*%
%LPD*%
G01*
G04 APERTURE LIST*
%TA.AperFunction,ComponentPad*%
%ADD10C,2.000000*%
%TD*%
%TA.AperFunction,ComponentPad*%
%ADD11R,1.350000X1.350000*%
%TD*%
%TA.AperFunction,ComponentPad*%
%ADD12O,1.350000X1.350000*%
%TD*%
%TA.AperFunction,ViaPad*%
%ADD13C,1.000000*%
%TD*%
%TA.AperFunction,ViaPad*%
%ADD14C,0.800000*%
%TD*%
%TA.AperFunction,Conductor*%
%ADD15C,0.600000*%
%TD*%
%TA.AperFunction,Conductor*%
%ADD16C,0.250000*%
%TD*%
%TA.AperFunction,Conductor*%
%ADD17C,1.000000*%
%TD*%
G04 APERTURE END LIST*
D10*
%TO.P,SW19,1,1*%
%TO.N,Net-(J1-LR)*%
X162124000Y-53340000D03*
%TO.P,SW19,2,2*%
%TO.N,Net-(R15-Pad1)*%
X166624000Y-53340000D03*
%TO.P,SW19,3,3*%
%TO.N,Net-(J1-LR)*%
X162124000Y-46840000D03*
%TO.P,SW19,4,4*%
%TO.N,Net-(R27-Pad2)*%
X166624000Y-46840000D03*
%TD*%
%TO.P,SW15,1,1*%
%TO.N,Net-(J1-LR)*%
X215464000Y-95250000D03*
%TO.P,SW15,2,2*%
%TO.N,Net-(R15-Pad1)*%
X219964000Y-95250000D03*
%TO.P,SW15,3,3*%
%TO.N,Net-(J1-LR)*%
X215464000Y-88750000D03*
%TO.P,SW15,4,4*%
%TO.N,Net-(R27-Pad2)*%
X219964000Y-88750000D03*
%TD*%
%TO.P,SW2,1,1*%
%TO.N,Net-(J1-UD)*%
X128524000Y-134112000D03*
%TO.P,SW2,2,2*%
%TO.N,Net-(R1-Pad1)*%
X133024000Y-134112000D03*
%TO.P,SW2,3,3*%
%TO.N,Net-(J1-UD)*%
X128524000Y-127612000D03*
%TO.P,SW2,4,4*%
%TO.N,Net-(R2-Pad2)*%
X133024000Y-127612000D03*
%TD*%
%TO.P,SW24,1,1*%
%TO.N,Net-(J1-UD)*%
X179324000Y-134112000D03*
%TO.P,SW24,2,2*%
%TO.N,Net-(R25-Pad1)*%
X183824000Y-134112000D03*
%TO.P,SW24,3,3*%
%TO.N,Net-(J1-UD)*%
X179324000Y-127612000D03*
%TO.P,SW24,4,4*%
%TO.N,Net-(R26-Pad1)*%
X183824000Y-127612000D03*
%TD*%
%TO.P,SW21,1,1*%
%TO.N,Net-(J1-LR)*%
X162124000Y-95504000D03*
%TO.P,SW21,2,2*%
%TO.N,Net-(R15-Pad1)*%
X166624000Y-95504000D03*
%TO.P,SW21,3,3*%
%TO.N,Net-(J1-LR)*%
X162124000Y-89004000D03*
%TO.P,SW21,4,4*%
%TO.N,Net-(R27-Pad2)*%
X166624000Y-89004000D03*
%TD*%
%TO.P,SW22,1,1*%
%TO.N,Net-(J1-UD)*%
X179396000Y-95504000D03*
%TO.P,SW22,2,2*%
%TO.N,Net-(R23-Pad1)*%
X183896000Y-95504000D03*
%TO.P,SW22,3,3*%
%TO.N,Net-(J1-UD)*%
X179396000Y-89004000D03*
%TO.P,SW22,4,4*%
%TO.N,Net-(R24-Pad1)*%
X183896000Y-89004000D03*
%TD*%
%TO.P,SW7,1,1*%
%TO.N,Net-(J1-LR)*%
X57404000Y-53340000D03*
%TO.P,SW7,2,2*%
%TO.N,Net-(R6-Pad1)*%
X61904000Y-53340000D03*
%TO.P,SW7,3,3*%
%TO.N,Net-(J1-LR)*%
X57404000Y-46840000D03*
%TO.P,SW7,4,4*%
%TO.N,Net-(R11-Pad2)*%
X61904000Y-46840000D03*
%TD*%
%TO.P,SW20,1,1*%
%TO.N,Net-(J1-UD)*%
X179396000Y-53594000D03*
%TO.P,SW20,2,2*%
%TO.N,Net-(R21-Pad1)*%
X183896000Y-53594000D03*
%TO.P,SW20,3,3*%
%TO.N,Net-(J1-UD)*%
X179396000Y-47094000D03*
%TO.P,SW20,4,4*%
%TO.N,Net-(R22-Pad1)*%
X183896000Y-47094000D03*
%TD*%
%TO.P,SW9,1,1*%
%TO.N,Net-(J1-LR)*%
X57476000Y-95250000D03*
%TO.P,SW9,2,2*%
%TO.N,Net-(R7-Pad1)*%
X61976000Y-95250000D03*
%TO.P,SW9,3,3*%
%TO.N,Net-(J1-LR)*%
X57476000Y-88750000D03*
%TO.P,SW9,4,4*%
%TO.N,Net-(R10-Pad2)*%
X61976000Y-88750000D03*
%TD*%
%TO.P,SW1,1,1*%
%TO.N,Net-(J1-LR)*%
X111252000Y-134112000D03*
%TO.P,SW1,2,2*%
%TO.N,Net-(R3-Pad1)*%
X115752000Y-134112000D03*
%TO.P,SW1,3,3*%
%TO.N,Net-(J1-LR)*%
X111252000Y-127612000D03*
%TO.P,SW1,4,4*%
%TO.N,Net-(R14-Pad2)*%
X115752000Y-127612000D03*
%TD*%
%TO.P,SW14,1,1*%
%TO.N,Net-(J1-UD)*%
X232918000Y-134620000D03*
%TO.P,SW14,2,2*%
%TO.N,Net-(R16-Pad1)*%
X237418000Y-134620000D03*
%TO.P,SW14,3,3*%
%TO.N,Net-(J1-UD)*%
X232918000Y-128120000D03*
%TO.P,SW14,4,4*%
%TO.N,Net-(R18-Pad2)*%
X237418000Y-128120000D03*
%TD*%
%TO.P,SW16,1,1*%
%TO.N,Net-(J1-UD)*%
X232990000Y-95250000D03*
%TO.P,SW16,2,2*%
%TO.N,Net-(R17-Pad1)*%
X237490000Y-95250000D03*
%TO.P,SW16,3,3*%
%TO.N,Net-(J1-UD)*%
X232990000Y-88750000D03*
%TO.P,SW16,4,4*%
%TO.N,Net-(R18-Pad1)*%
X237490000Y-88750000D03*
%TD*%
%TO.P,SW8,4,4*%
%TO.N,Net-(R2-Pad2)*%
X79684000Y-46840000D03*
%TO.P,SW8,3,3*%
%TO.N,Net-(J1-UD)*%
X75184000Y-46840000D03*
%TO.P,SW8,2,2*%
%TO.N,Net-(R1-Pad1)*%
X79684000Y-53340000D03*
%TO.P,SW8,1,1*%
%TO.N,Net-(J1-UD)*%
X75184000Y-53340000D03*
%TD*%
%TO.P,SW6,1,1*%
%TO.N,Net-(J1-UD)*%
X128596000Y-53594000D03*
%TO.P,SW6,2,2*%
%TO.N,Net-(R1-Pad1)*%
X133096000Y-53594000D03*
%TO.P,SW6,3,3*%
%TO.N,Net-(J1-UD)*%
X128596000Y-47094000D03*
%TO.P,SW6,4,4*%
%TO.N,Net-(R2-Pad2)*%
X133096000Y-47094000D03*
%TD*%
%TO.P,SW17,1,1*%
%TO.N,Net-(J1-LR)*%
X215464000Y-53594000D03*
%TO.P,SW17,2,2*%
%TO.N,Net-(R15-Pad1)*%
X219964000Y-53594000D03*
%TO.P,SW17,3,3*%
%TO.N,Net-(J1-LR)*%
X215464000Y-47094000D03*
%TO.P,SW17,4,4*%
%TO.N,Net-(R27-Pad2)*%
X219964000Y-47094000D03*
%TD*%
%TO.P,SW5,1,1*%
%TO.N,Net-(J1-LR)*%
X111324000Y-53594000D03*
%TO.P,SW5,2,2*%
%TO.N,Net-(R5-Pad1)*%
X115824000Y-53594000D03*
%TO.P,SW5,3,3*%
%TO.N,Net-(J1-LR)*%
X111324000Y-47094000D03*
%TO.P,SW5,4,4*%
%TO.N,Net-(R12-Pad2)*%
X115824000Y-47094000D03*
%TD*%
%TO.P,SW12,1,1*%
%TO.N,Net-(J1-UD)*%
X75256000Y-134112000D03*
%TO.P,SW12,2,2*%
%TO.N,Net-(R1-Pad1)*%
X79756000Y-134112000D03*
%TO.P,SW12,3,3*%
%TO.N,Net-(J1-UD)*%
X75256000Y-127612000D03*
%TO.P,SW12,4,4*%
%TO.N,Net-(R2-Pad2)*%
X79756000Y-127612000D03*
%TD*%
D11*
%TO.P,J1,1,LR*%
%TO.N,Net-(J1-LR)*%
X46102000Y-28194000D03*
D12*
%TO.P,J1,2,UD*%
%TO.N,Net-(J1-UD)*%
X48102000Y-28194000D03*
%TO.P,J1,3,GND*%
%TO.N,GND*%
X50102000Y-28194000D03*
%TO.P,J1,4,fire1*%
%TO.N,Net-(J1-fire1)*%
X52102000Y-28194000D03*
%TO.P,J1,5,VCC*%
%TO.N,+5V*%
X54102000Y-28194000D03*
%TD*%
D10*
%TO.P,SW23,4,4*%
%TO.N,Net-(R27-Pad2)*%
X166552000Y-127612000D03*
%TO.P,SW23,3,3*%
%TO.N,Net-(J1-LR)*%
X162052000Y-127612000D03*
%TO.P,SW23,2,2*%
%TO.N,Net-(R15-Pad1)*%
X166552000Y-134112000D03*
%TO.P,SW23,1,1*%
%TO.N,Net-(J1-LR)*%
X162052000Y-134112000D03*
%TD*%
%TO.P,SW13,1,1*%
%TO.N,Net-(J1-LR)*%
X215392000Y-134366000D03*
%TO.P,SW13,2,2*%
%TO.N,Net-(R15-Pad1)*%
X219892000Y-134366000D03*
%TO.P,SW13,3,3*%
%TO.N,Net-(J1-LR)*%
X215392000Y-127866000D03*
%TO.P,SW13,4,4*%
%TO.N,Net-(R27-Pad2)*%
X219892000Y-127866000D03*
%TD*%
%TO.P,SW10,1,1*%
%TO.N,Net-(J1-UD)*%
X75256000Y-95250000D03*
%TO.P,SW10,2,2*%
%TO.N,Net-(R1-Pad1)*%
X79756000Y-95250000D03*
%TO.P,SW10,3,3*%
%TO.N,Net-(J1-UD)*%
X75256000Y-88750000D03*
%TO.P,SW10,4,4*%
%TO.N,Net-(R2-Pad2)*%
X79756000Y-88750000D03*
%TD*%
%TO.P,SW4,1,1*%
%TO.N,Net-(J1-UD)*%
X128596000Y-95504000D03*
%TO.P,SW4,2,2*%
%TO.N,Net-(R1-Pad1)*%
X133096000Y-95504000D03*
%TO.P,SW4,3,3*%
%TO.N,Net-(J1-UD)*%
X128596000Y-89004000D03*
%TO.P,SW4,4,4*%
%TO.N,Net-(R2-Pad2)*%
X133096000Y-89004000D03*
%TD*%
%TO.P,SW11,1,1*%
%TO.N,Net-(J1-LR)*%
X57476000Y-134112000D03*
%TO.P,SW11,2,2*%
%TO.N,Net-(R8-Pad1)*%
X61976000Y-134112000D03*
%TO.P,SW11,3,3*%
%TO.N,Net-(J1-LR)*%
X57476000Y-127612000D03*
%TO.P,SW11,4,4*%
%TO.N,Net-(R10-Pad1)*%
X61976000Y-127612000D03*
%TD*%
%TO.P,SW18,1,1*%
%TO.N,Net-(J1-UD)*%
X232990000Y-53594000D03*
%TO.P,SW18,2,2*%
%TO.N,Net-(R19-Pad1)*%
X237490000Y-53594000D03*
%TO.P,SW18,3,3*%
%TO.N,Net-(J1-UD)*%
X232990000Y-47094000D03*
%TO.P,SW18,4,4*%
%TO.N,unconnected-(SW18-Pad4)*%
X237490000Y-47094000D03*
%TD*%
%TO.P,SW3,1,1*%
%TO.N,Net-(J1-LR)*%
X111324000Y-95504000D03*
%TO.P,SW3,2,2*%
%TO.N,Net-(R4-Pad1)*%
X115824000Y-95504000D03*
%TO.P,SW3,3,3*%
%TO.N,Net-(J1-LR)*%
X111324000Y-89004000D03*
%TO.P,SW3,4,4*%
%TO.N,Net-(R13-Pad2)*%
X115824000Y-89004000D03*
%TD*%
D13*
%TO.N,Net-(R27-Pad2)*%
X171450000Y-141478000D03*
%TO.N,Net-(R2-Pad2)*%
X136652000Y-62230000D03*
X116840000Y-62230000D03*
X70104000Y-62230000D03*
%TO.N,Net-(R26-Pad1)*%
X189992000Y-133858000D03*
%TO.N,Net-(R27-Pad2)*%
X171450000Y-133858000D03*
%TO.N,Net-(R1-Pad1)*%
X113284000Y-56642000D03*
X104902000Y-56642000D03*
D14*
%TO.N,Net-(R15-Pad1)*%
X223266000Y-62738000D03*
D13*
%TO.N,+5V*%
X237490000Y-156972000D03*
X115824000Y-156210000D03*
%TO.N,GND*%
X45720000Y-156464000D03*
%TO.N,Net-(R2-Pad2)*%
X70104000Y-36576000D03*
D14*
%TO.N,Net-(R12-Pad2)*%
X107188000Y-44196000D03*
%TO.N,GND*%
X50102000Y-31178000D03*
%TO.N,+5V*%
X54102000Y-28194000D03*
%TO.N,Net-(R2-Pad2)*%
X70104000Y-115316000D03*
X70104000Y-75438000D03*
D13*
%TO.N,Net-(R11-Pad2)*%
X64262000Y-58928000D03*
D14*
%TO.N,Net-(R22-Pad1)*%
X187198000Y-60198000D03*
X189738000Y-60198000D03*
%TD*%
D15*
%TO.N,Net-(R27-Pad2)*%
X224790000Y-137668000D02*
X224790000Y-127762000D01*
X220980000Y-141478000D02*
X224790000Y-137668000D01*
X171704000Y-141478000D02*
X220980000Y-141478000D01*
X224686000Y-127866000D02*
X224790000Y-127762000D01*
X224790000Y-127762000D02*
X224790000Y-87988000D01*
X219892000Y-127866000D02*
X224686000Y-127866000D01*
X222354000Y-47094000D02*
X219964000Y-47094000D01*
X224790000Y-49530000D02*
X222354000Y-47094000D01*
X224790000Y-88750000D02*
X224790000Y-49530000D01*
X224790000Y-88750000D02*
X219964000Y-88750000D01*
%TO.N,Net-(J1-LR)*%
X60706000Y-139192000D02*
X162052000Y-139192000D01*
X57476000Y-135962000D02*
X60706000Y-139192000D01*
X57476000Y-134112000D02*
X57476000Y-135962000D01*
X210566000Y-139192000D02*
X215392000Y-134366000D01*
X162052000Y-139192000D02*
X210566000Y-139192000D01*
X162052000Y-137414000D02*
X162052000Y-139192000D01*
X111252000Y-139192000D02*
X111252000Y-134112000D01*
%TO.N,Net-(R1-Pad1)*%
X134620000Y-56642000D02*
X133096000Y-56642000D01*
X138176000Y-60198000D02*
X134620000Y-56642000D01*
X133096000Y-95504000D02*
X138176000Y-90424000D01*
X138176000Y-90424000D02*
X138176000Y-60198000D01*
%TO.N,Net-(R2-Pad2)*%
X116840000Y-62230000D02*
X136652000Y-62230000D01*
X70104000Y-62230000D02*
X70104000Y-75438000D01*
%TO.N,Net-(R11-Pad2)*%
X63350000Y-46840000D02*
X61904000Y-46840000D01*
X64262000Y-47752000D02*
X63350000Y-46840000D01*
X64262000Y-58928000D02*
X64262000Y-47752000D01*
%TO.N,Net-(R26-Pad1)*%
X189992000Y-133858000D02*
X189992000Y-133780000D01*
X189992000Y-133780000D02*
X183824000Y-127612000D01*
%TO.N,Net-(R27-Pad2)*%
X171450000Y-127762000D02*
X171362481Y-127674481D01*
X171450000Y-133858000D02*
X171450000Y-127762000D01*
X171362481Y-127674481D02*
X167640000Y-127674481D01*
X169522000Y-46840000D02*
X166624000Y-46840000D01*
X171450000Y-48768000D02*
X169522000Y-46840000D01*
X171300000Y-127762000D02*
X171450000Y-127612000D01*
X171450000Y-127612000D02*
X171450000Y-48768000D01*
X169164000Y-127762000D02*
X171300000Y-127762000D01*
X167640000Y-127674481D02*
X169164000Y-127762000D01*
X166552000Y-127612000D02*
X167640000Y-127674481D01*
X171450000Y-89004000D02*
X166624000Y-89004000D01*
%TO.N,Net-(R1-Pad1)*%
X133096000Y-56642000D02*
X133096000Y-53594000D01*
X113284000Y-56642000D02*
X133096000Y-56642000D01*
X82804000Y-56642000D02*
X104902000Y-56642000D01*
%TO.N,Net-(R22-Pad1)*%
X189738000Y-60198000D02*
X187198000Y-60198000D01*
%TO.N,Net-(R15-Pad1)*%
X219964000Y-55880000D02*
X219964000Y-53594000D01*
X223266000Y-59182000D02*
X219964000Y-55880000D01*
X223266000Y-62738000D02*
X223266000Y-59182000D01*
%TO.N,Net-(J1-UD)*%
X232990000Y-44776000D02*
X232990000Y-47094000D01*
X229870000Y-41656000D02*
X232990000Y-44776000D01*
X179578000Y-41656000D02*
X229870000Y-41656000D01*
D16*
X179396000Y-41838000D02*
X179578000Y-41656000D01*
D15*
X179396000Y-47094000D02*
X179396000Y-41838000D01*
X128524000Y-41656000D02*
X179578000Y-41656000D01*
X128596000Y-41728000D02*
X128596000Y-47094000D01*
X77978000Y-41656000D02*
X128524000Y-41656000D01*
X75184000Y-44450000D02*
X77978000Y-41656000D01*
D16*
X128524000Y-41656000D02*
X128596000Y-41728000D01*
D15*
X75184000Y-46840000D02*
X75184000Y-44450000D01*
X75256000Y-134112000D02*
X75256000Y-95250000D01*
%TO.N,Net-(J1-LR)*%
X162052000Y-137414000D02*
X162052000Y-134112000D01*
%TO.N,+5V*%
X235712000Y-158750000D02*
X237490000Y-156972000D01*
X115824000Y-158750000D02*
X235712000Y-158750000D01*
X115824000Y-156210000D02*
X115824000Y-158750000D01*
X43942000Y-150368000D02*
X52324000Y-158750000D01*
X43942000Y-41656000D02*
X43942000Y-150368000D01*
X54102000Y-31496000D02*
X43942000Y-41656000D01*
X54102000Y-28194000D02*
X54102000Y-31496000D01*
D17*
%TO.N,GND*%
X40894000Y-151638000D02*
X45720000Y-156464000D01*
X40894000Y-40386000D02*
X40894000Y-151638000D01*
X50102000Y-31178000D02*
X40894000Y-40386000D01*
D15*
%TO.N,+5V*%
X52324000Y-158750000D02*
X115824000Y-158750000D01*
%TO.N,Net-(R2-Pad2)*%
X70104000Y-36576000D02*
X70104000Y-62230000D01*
X70104000Y-75438000D02*
X70104000Y-115316000D01*
D16*
X79684000Y-46840000D02*
X79756000Y-46768000D01*
D15*
%TO.N,Net-(R1-Pad1)*%
X81280000Y-134112000D02*
X79756000Y-134112000D01*
X83312000Y-132080000D02*
X81280000Y-134112000D01*
X83312000Y-98806000D02*
X83312000Y-132080000D01*
X79756000Y-95250000D02*
X83312000Y-98806000D01*
%TO.N,Net-(R12-Pad2)*%
X107188000Y-70057000D02*
X107188000Y-44196000D01*
D16*
%TO.N,Net-(J1-LR)*%
X111324000Y-53848000D02*
X111578000Y-53594000D01*
D15*
X111324000Y-89004000D02*
X111324000Y-53848000D01*
X162124000Y-89004000D02*
X162124000Y-53340000D01*
X57476000Y-127612000D02*
X57476000Y-95250000D01*
X111252000Y-127612000D02*
X111252000Y-95576000D01*
X215464000Y-88750000D02*
X215464000Y-47094000D01*
X215392000Y-127866000D02*
X215392000Y-95322000D01*
D16*
X111252000Y-95576000D02*
X111324000Y-95504000D01*
D15*
X57476000Y-88750000D02*
X57476000Y-54102000D01*
X162052000Y-127612000D02*
X162052000Y-95576000D01*
D16*
X162052000Y-95576000D02*
X162124000Y-95504000D01*
D15*
%TO.N,Net-(J1-UD)*%
X179324000Y-127612000D02*
X179324000Y-95576000D01*
X179396000Y-89004000D02*
X179396000Y-53594000D01*
X232990000Y-88750000D02*
X232990000Y-53594000D01*
X232918000Y-128120000D02*
X232918000Y-95322000D01*
D16*
X179324000Y-95576000D02*
X179396000Y-95504000D01*
D15*
X75256000Y-88750000D02*
X75256000Y-53594000D01*
D17*
%TO.N,GND*%
X50102000Y-31178000D02*
X50102000Y-28194000D01*
D15*
%TO.N,Net-(R1-Pad1)*%
X137160000Y-99568000D02*
X133096000Y-95504000D01*
X79502000Y-53340000D02*
X82804000Y-56642000D01*
X134874000Y-134112000D02*
X137160000Y-131826000D01*
X137160000Y-131826000D02*
X137160000Y-99568000D01*
X82804000Y-56642000D02*
X82804000Y-92202000D01*
X133024000Y-134112000D02*
X134874000Y-134112000D01*
X82804000Y-92202000D02*
X79756000Y-95250000D01*
%TO.N,Net-(R22-Pad1)*%
X187198000Y-60198000D02*
X187198000Y-48514000D01*
X187198000Y-48514000D02*
X185778000Y-47094000D01*
X185778000Y-47094000D02*
X183896000Y-47094000D01*
%TD*%
M02*
